<?xml version="1.0" encoding="UTF-8"?>
<svg id="Ebene_1" xmlns="http://www.w3.org/2000/svg" version="1.1" viewBox="0 0 2834.6 2834.6">
  <!-- Generator: Adobe Illustrator 29.3.1, SVG Export Plug-In . SVG Version: 2.1.0 Build 151)  -->
  <defs>
    <style>
      .st0 {
        fill: #da3e27;
      }

      .st1 {
        fill: #fcf7ca;
      }

      .st2 {
        fill: #ebe8d2;
      }

      .st3 {
        fill: #a5c40d;
      }

      .st4 {
        fill: #1e1c19;
      }

      .st5 {
        fill: #d41f20;
      }

      .st6 {
        fill: #f3efce;
      }

      .st7 {
        fill: #e67a52;
      }

      .st8 {
        fill: #ed8e67;
      }

      .st9 {
        fill: #e26844;
      }

      .st10 {
        fill: #dd5335;
      }

      .st11 {
        fill: #95be0d;
      }

      .st12 {
        fill: #a3c109;
      }

      .st13 {
        fill: #fdf6f3;
      }
    </style>
  </defs>
  <polygon class="st2" points="651.7 689.2 688 784.5 746.4 813.9 809.7 823.5 879.7 808.8 889.9 752.3 889.3 682.9 843.6 588 758.3 586.3 691.6 598.2 671.9 629.8 651.7 689.2"/>
  <path class="st11" d="M2147.6,1335.5c-3.3,0-6.5.2-9.8.2-565.9,0-1131.8,0-1697.7,0v-9.1c565.9,0,1131.8,0,1697.7,0,3.3,0,6.5.1,9.8.2,0,2.9,0,5.8,0,8.6Z"/>
  <path class="st5" d="M1112.6,932.1c6.3,3,12.7,6,19,9.1,18.8,9.2,31.2,23.8,38.5,43.4,11.1,29.6,14.4,60,11.7,91.2-2.4,27.5-4.8,55.1-13.2,81.7-8.1,26.1-26.8,43.5-48.7,57.3-16.3,10.3-34.4,7.2-51.8,1.1-17.2-6.1-32.6-15.5-47.5-25.9-1.3-.9-2.6-3.1-4.5-1.9-1.6,1-.8,3.2-.9,4.9,0,4.8-.4,9.6,0,14.3,1.4,17.4-8.2,29.4-19.4,40.6-7.1,7.1-16.5,9.5-26.3,9.3-33.2-.9-66.4-2.6-99.5-2.8-26.8-.1-53.3-1.1-79.4-7.6-5.1-1.3-10.2-2.9-15.2-4.5-17.1-5.5-30.4-15.5-39.6-31.5-11.5-20-22-40.1-22-64,.4-12.9,6.4-22.9,16.2-30.9,3.8-3.1,4.6-7.4,4.7-12.2,0-11-1.5-22.2.6-33.1,4.1-20.8,17.6-36.2,31.7-51,11.8-12.5,27.6-17.9,43-24,6.2-2.4,12.3-4.8,18.5-7.3.2,3.6-3,4.5-5.2,5.6-4.4,2.3-9.2,3.9-13.8,5.7-10.9,4.3-22.4,7.1-31.4,15.4-13.6,9.5-23.6,22-31.4,36.5-10.5,12.6-9.2,27.5-8.8,42.4,0,.6,0,1.1,0,1.7,0,.4,0,.8,0,1.2,1.3,11.4-2.8,20.4-11.7,27.7-6.8,5.6-9.2,13.5-8.2,22.3,0,2,0,4,0,6,0,.5,0,1,0,1.5.2,3.7-.1,7.4.9,11.2,1.5,5.6,3.4,8.9,10.5,8.8,8.8-.2,17.7,1.3,26.6,2.2,12.4,1.2,24.6,5.3,37.3,2.9,1.8,4.4,5.6,3.8,9.2,3.5,16.9,2,33.7,4,50.6,6.2,17.8,2.3,35.6,5.3,53.5,7,16.2,1.5,32.2,4.9,48.5,5.1,4.4,5.2,7.9,3.1,10.9-1.5,2.8,0,4.4-5,8.4-1.3,5.1,4.7,12.7.2,18.4,3.9.3.2,1.5-1.1,2.3-1.6,1.1-.8,2.6-1.1,3.3.2,3.8,7.4,8,1.3,11.7.1,4.8-1.5.8-5,1.1-7.6.2-2.5,0-5-.1-7.5,0-.5,0-.9,0-1.4,0-2.6,0-5.2,0-7.7-.5-5.2-.5-10.4-1.5-15.5-2.3-12.4-1.9-25.2-6-37.3-1.6-14.7-5.6-28.8-11.6-42.3-6.1-15.6-13.2-30.7-24-43.8-1.8-2.7-3.5-5.5-5.5-8.1-17.6-23.7-38.5-42.5-67.7-51.2-22-6.5-42.6-6.9-61.4,8.2-1.3,1.1-2.8,2.2-4.8,1.5,1.1-2.6,3.1-4.5,5.3-6.1,10.1-7.2,21.5-11,33.9-12.1,6.3-1,12.6,5.7,18.9.2.2.9.4,1.9.6,2.8,0,.2-.2.5-.2.7l.4-.5c6.6,1.3,13.2,5.8,19.9.3,7.2-6.1,14.4-12.2,21.5-18.4,1.9-1.7,3.7-3.4,6.5-3,3.2,11.6,10.6,20.2,21.2,26.9-4,2-7.2,3.5-10.3,5.2-18.7,10.2-15.3,8-1.5,19.1,4.9,5.2,8.7,11.6,15.5,14.9l-.4.4.4-.3c-.5,3.4,1.6,5.6,3.5,7.9,10.7,12.9,19.5,27,26.6,42.2,2.1,4.2,4.4,8.2,5.9,12.8,6.2,18.3,11.5,36.7,13.8,56,.6,5.2,2.1,10.3,10.2,7.8,3.3-1,8.3,1.8,10.1,5.3,1.9,3.6,4.7,5.1,7.8,6.5,15.5,6.7,29.5,16.6,46.8,19.4,7.7,1.2,12.3,9.7,18.4,14.7-2.1,1.9-5.9,3.3-4.1,6.9,1.1,2.3,3.7,4.5,6.8,3.7,3.6-1,5.4-3.5,4.3-7.4,1.7.3,3.8,0,5.1.9,12.6,9.1,22.2,4.9,30.4-6.3,1-1.4,2.5-2.5,3.7-3.7,8.4-8.4,13.2-18.7,15.8-30.1,9.8-31,12.3-63,13.5-95.1,1-20.1-1.7-39.7-7.7-58.9-6.7-28.6-22.1-50-50.6-60.3-3.9-1.4-7.9-3.1-11.1-6,1-.6,2-1.2,3-1.8ZM993.2,1205.8c-1.9-.4-3.7-.9-5.6-1.3-1.6,0-3.3,0-4.9,0,.5,1,1,2,1.6,2.9-.4,4-.1,7.7,5.2,7.6,5.3,0,5.6-3.7,5.2-7.7,1.6-.3,3.3.6,4.8-.9-2-1.4-4.1-.5-6.2-.7ZM752.5,1192.2c-.6-3.4-2.6-5.4-6-5.4-3.4,0-5.7,1.7-5.7,5.5,0,4.2,3.3,4.7,6.2,5,3.3.3,4.9-2,5.4-5ZM1030.6,1162c-4.3-.5-5.5,2.5-5.5,5.4,0,3.9,3.5,4.6,6.5,4.6,3.1,0,5.3-2.3,5-5.3-.3-3.3-2.5-5.4-6-4.6ZM1069.6,1186.2c2.8-.2,4.9-1.9,5.1-5,.2-3.5-2-5.2-5.5-5.7-4.1-.5-5.9,2.9-5.8,5.2,0,2.5,2.2,5.5,6.3,5.5ZM873.4,1232.6c-2.6,0-4.2,1.8-4.2,5.2,0,3.5,2.3,5.1,5.3,5.1,3.2,0,5.2-2.2,5.1-5.3,0-3.2-2.2-4.9-6.2-4.9ZM957.2,1239.8c-.2-4.3-2.1-5.7-5.4-5.6-3.5.1-5.1,2.2-5,5.3,0,3.3,2.6,5,5.5,4.9,3-.1,5.1-2,4.9-4.6ZM852.7,1213.5c-.4-3.3-2.4-4.8-5.5-4.8-3.1,0-5.1,1.7-5.1,5.1,0,3.7,2.3,5.5,5.7,5.3,3.1-.2,4.7-2.4,4.9-5.6ZM781.4,1211.7c-3.4.1-5.2,2.3-5.1,5.3,0,3,2.1,5.2,5.3,5.1,3.3,0,4.9-2.1,4.9-5.4,0-3.5-1.8-5-5-5ZM915,1227.1c3.2,0,5.4-1.5,5.6-4.7.2-3.5-2-5.7-5.4-5.7-2.9,0-5.1,2-5.2,5.2,0,3.2,1.8,5,4.9,5.2ZM822.3,1232.5c-1-3.2-2-6-5.9-5.8-3.1.2-4.5,1.8-4.7,4.8-.2,3.4,1.9,5.4,4.9,5.5,2.9.2,5.2-1.4,5.7-4.5ZM932.7,977.6c-2.8-.1-4.1,1.5-4.6,3.9-.5,2.7,1.3,4.7,3.5,4.6,2.4,0,4.9-1.7,5.2-4.4.3-2.6-1.9-3.6-4.1-4.1ZM970.8,1203.9c1.3-.6,3.1,1.8,4.1-.7-1.5-.6-2.9-.8-4.1.7ZM1010.3,1208.1c-.4-.3-.8-.6-1.1-.7-.4,0-.8.4-1.1.6.4.2.7.6,1.1.7.4,0,.8-.3,1.2-.6Z"/>
  <path class="st1" d="M647.2,361.5c.5.5,1,1,1.5,1.5.5.5,1.1,1,1.6,1.5.5.5,1,1,1.5,1.5,0,1.3.3,2.4,1.5,3,0,0,0,0,0,0,.5.5,1,1,1.5,1.5,0,0,0,0,0,0,0,1.2.3,2.3,1.5,3,0,0,0,0,0,0,0,1.2.3,2.3,1.5,3,0,0,0,0,0,0,0,1.2.3,2.3,1.5,3,0,0,0,0,0,0,2,8,4,16.1,6,24.1,0,0,0,0,0,0,.5.5,1,1,1.5,1.5,0,0,0,0,0,0,0,1.2.3,2.3,1.5,3,0,0,0,0,0,0,.5.5,1,1,1.5,1.5,0,0,0,0,0,0,0,1.2.3,2.3,1.5,3,0,0,0,0,0,0,0,1.2.3,2.4,1.5,3,0,0,0,0,0,0,1.3,6.9,1.8,13.7,1,20.7-1.8,17.3-5.5,34.3-5.6,51.8-2.6,7-1.5,14.5-3,21.7-1.8,8.5,2.8,15.8,4.5,23.6h0c-1-.5-2-1-3-1.5,0-1.2-.3-2.4-1.5-3-.5-.5-1-1-1.5-1.5-.5-3.1-1.4-6.1-1.4-9.2,0-4.1-2.3-3.3-4.7-2.9-.5-.5-1-1-1.5-1.5-.2-.1-.4-.2-.6-.3.2.1.4.2.6.3l1.5,1.5c3,3.5,2.6,8.8,6.1,12.1.5.5,1,1,1.5,1.5,0,1.2.3,2.3,1.5,3,.2,2.4,1.1,4.5,3,6h0c0,1.2.3,2.3,1.5,3h0c.5.5,1,1,1.5,1.5h0c0,1.2.3,2.4,1.5,3h0c0,1.2.3,2.4,1.5,3h0c0,3.7,1,7,4.5,9h0c0,1.3.3,2.4,1.5,3h0c0,1.3.3,2.4,1.5,3h0c0,1.3.3,2.4,1.5,3h0c0,1.3.3,2.4,1.5,3h0c.5.5,1,1,1.5,1.5h0c1.6,8,5.1,15.1,10.6,21.1h0c0,1.3.3,2.4,1.5,3h0c0,1.3.3,2.4,1.5,3h0c0,1.3.3,2.4,1.5,3h0c0,1.3.3,2.4,1.5,3h0c0,1.3.3,2.4,1.5,3h0c.5,1.5,1,3,1.5,4.6-5.3,1.2-8.6,5.8-13.6,7.6-9.5-7.4-19.4-14.2-30.2-19.6-3.8-2.4-7.7-4.7-11.4-7.3-16-11-34.9-17.8-47.5-33.5,0,0,0,0,0,0-.2-2.1.6-4.4-1.5-6.1,0,0,0,0,0,0,0-1.2-.3-2.4-1.5-3,0,0,0,0,0,0,0-1.7.2-3.4-1.5-4.5,0,0,0,0,0,0-.5-.5-1.1-1-1.6-1.5-2.2-1.3-4.8-1.8-6-4.5,0-1.3-.3-2.4-1.5-3.1,0,0,0,0,0,0-.5-.5-1-1-1.5-1.5,0,0,0,0,0,0,0-1.3-.3-2.4-1.5-3,0,0,0,0,0,0-.5-.5-1-1-1.5-1.5,0,0,0,0,0,0,0-1.2-.3-2.4-1.5-3,0,0,0,0,0,0,0-1.7.2-3.4-1.5-4.5,0,0,0,0,0,0,0-1.2-.3-2.4-1.5-3,0,0,0,0,0,0-.2-2.1.6-4.4-1.5-6,0,0,0,0,0,0-1.5-7.2,3.7-8.2,8.7-9,6-.9,7.6-3.6,4.9-9.3-4.2-8.8-8.1-17.7-11.7-26.8-1.5-3.8-2.3-.4-3.4-.2,0-2.5,0-5,0-7.6,0,0,0,0,0,0,1.2-.7,1.5-1.8,1.5-3,0,0,0,0,0,0,.5-.5,1-1,1.5-1.5,0,0,0,0,0,0,4.2-2.5,8.6-3.9,13.5-2.6-.5,2.4-3.8-.1-4.5,2.6,6.6,2.5,13,5.2,18.7,9.4,4.5,3.3,8.8,6.5,11.4-1.8.2-.7,2.1-1,3.2-1.4.2.1.4.2.6.3-.2-.1-.4-.2-.6-.3-2-1-4-2-6.1-3h0c0-3-.6-5.6-3-7.6,0,0,0,0,0,0,0-1.2-.3-2.4-1.5-3,0,0,0,0,0,0,0-1.2-.3-2.4-1.5-3,0,0,0,0,0,0,0-1.7.2-3.4-1.5-4.5,0,0,0,0,0,0,0-1.3-.3-2.4-1.5-3,0,0,0,0,0,0-.5-.5-1.1-1-1.6-1.5-.5-.5-1-.9-1.4-1.4-.4-22.8-2.9-45.3-6.3-67.7,1,19.4,2.8,38.7,4.7,58,.2,2.3.3,4.7-2.9,5.1,0,0,0,0,0,0,0-1.3-.3-2.4-1.5-3,0,0,0,0,0,0,0-1.2-.3-2.4-1.5-3,0,0,0,0,0,0,0-1.7.2-3.4-1.5-4.5,0,0,0,0,0,0,0-1.2-.3-2.4-1.5-3,0,0,0,0,0,0-.2-2.1.6-4.4-1.5-6.1,0,0,0,0,0,0,0-5.5-1.8-10.5-4.5-15.1,0,0,0,0,0,0,0-1.7.2-3.4-1.5-4.6,0,0,0,0,0,0,0-1.7.2-3.4-1.5-4.6,0,0,0,0,0,0-.8-9.6-2.5-19.2,0-28.8,0-.5,0-.9,0-1.4.5,0,1,0,1.5,0,0,2.3,0,4.5,0,6.8,0,2,.2,4.3,2.8,4.6,2.6.3,3.7-2.2,3.8-3.9.4-9.7,4.6-18.8,3.9-28.6,0,0,0,0,0,0,.5-.5,1-1,1.5-1.5,0,0,0,0,0,0,4,0,8.1,0,12.1,0,0,0,0,0,0,0,5.9,11.7,11.7,23.4,17.9,34.9,2.2,4.1,5.4,1.9,8.2,0,3.3-2.1,4.4-6.7,8.6-7.8ZM645.7,488.3c.5.5,1,1,1.5,1.5,0,1.2.3,2.3,1.5,3,.5.5,1,1,1.5,1.5,0,1.2.3,2.4,1.5,3l1.5,1.5c0,1.2.3,2.4,1.5,3l1.5,1.5c0,1.2.3,2.4,1.5,3,0,1.2.4,2.3,1.5,3,.2.1.4.2.6.3-.2-.1-.4-.2-.6-.3,0-1.2-.3-2.4-1.5-3,0-1.2-.3-2.4-1.5-3-.5-.5-1-1-1.5-1.5,0-1.2-.3-2.3-1.5-3-.5-.5-1-1-1.5-1.5,0-1.2-.3-2.3-1.5-3-.5-.5-1-1-1.5-1.5,0-1.2-.3-2.4-1.5-3-.5-.5-1-1-1.5-1.5-.5-.5-1-1-1.5-1.5,0-1.2-.3-2.3-1.5-3-.5-.5-1-1-1.5-1.5,0-2.2-1-3.7-3-4.5-.5-.5-1-1-1.5-1.5-.5-.5-1-1-1.5-1.5,0-1.2-.3-2.4-1.5-3-.5-.5-1-1-1.5-1.5-.2-.1-.4-.2-.6-.3.2.1.4.2.6.3.5.5,1,1,1.5,1.5,0,1.2.3,2.3,1.5,3,.5.5,1,1,1.5,1.5.5.5,1,1,1.5,1.5,0,2.2,1,3.7,3,4.5.5.5,1,1,1.5,1.5,0,1.2.3,2.3,1.5,3,.5.5,1,1,1.5,1.5ZM639.6,498.9c-.5-.5-1-1-1.5-1.5-.2-.1-.4-.2-.6-.3.2.1.4.2.6.3l1.5,1.5c.5.5,1,1,1.5,1.5,0,1.9,1.1,2.9,3,3,.5.5,1,1,1.5,1.5l.6.3c-.2-.1-.4-.2-.6-.3-.5-.5-1-1-1.5-1.5,0-1.9-1.1-2.9-3-3-.5-.5-1-1-1.5-1.5ZM626,486.8c.2.1.4.2.6.3-.2-.1-.4-.2-.6-.3-.5-.5-1-1-1.5-1.5-.5-.5-1-1-1.5-1.5-.5-.5-1-1-1.5-1.5-.2-2.8-1.7-4.3-4.5-4.5-.5-.5-1-1-1.5-1.5-.2-1.7-.6-3.4-2.6-3.8-.9-.2-1.4.4-1.3,1.3.4,2,2.1,2.4,3.8,2.6.5.5,1,1,1.5,1.5.2,2.8,1.7,4.3,4.5,4.5.5.5,1,1,1.5,1.5.5.5,1,1,1.5,1.5.5.5,1,1,1.5,1.5ZM603.9,475c-1,4.6.8,7.8,1.5,11,2.7,12.7,5.8,25.3,8.7,37.9,2,9.2,4.4,10.6,12.5,6.4,4.5-2.3,8.8-4.9,13.1-7.3,4.8-2.7,5.8-5.8,1.3-10-6.6-6.2-12.9-12.7-19.2-19.1-5.9-6-11.6-12.2-17.9-18.9ZM608.3,362l-1.8.5c3.6,17.3,5.2,34.9,7.7,52.4.6,4.1,3.7,4.5,6.9,3.3,6.1-2.3,12.1-4.9,18.1-7.5,3.9-1.7,4.5-4.4,1.9-7.8-10.9-13.7-21.8-27.3-32.7-40.9Z"/>
  <path class="st1" d="M848.2,601.6c-6.9,3.4-15.6,4-19.6,12.1-7.9-5.3-14.9-12-24.2-15.1-14.2-10.7-29.2-20.2-44.3-29.6-9.1-5.7-16.6-12-18.1-23.5-.3-2.2,0-6.2-4.5-6.5.7,2.6,1.4,5,2,7.3,9.2,31.4,16.1,63.6,30.4,93.5,3,6.2,6.7,12.1,7.3,19.2-3.8-.7-4.7-4.2-6.4-6.8-4.8-7.3-9.3-15.3-17-19.7-15.6-8.9-31.7-16.7-47.7-24.9,0,0,0,0,0,0,0-1.2-.3-2.3-1.5-3,0,0,0,0,0,0,0-1.2-.3-2.3-1.5-3,0,0,0,0,0,0,0-1.2-.3-2.3-1.5-3,0,0,0,0,0,0,0-1.2-.3-2.3-1.5-3,0,0,0,0,0,0,0-1.2-.3-2.3-1.5-3,0,0,0,0,0,0-1.6-8-5.1-15.1-10.6-21.1,0,0,0,0,0,0-.5-.5-1-1-1.5-1.5,0,0,0,0,0,0,0-1.2-.3-2.3-1.5-3,0,0,0,0,0,0,0-1.2-.3-2.3-1.5-3,0,0,0,0,0,0,0-1.2-.3-2.3-1.5-3,0,0,0,0,0,0,0-1.2-.3-2.3-1.5-3,0,0,0,0,0,0,0-3.7-1-7-4.5-9,0,0,0,0,0,0,0-1.2-.3-2.4-1.5-3,0,0,0,0,0,0,0-1.2-.3-2.4-1.5-3,0,0,0,0,0,0-.5-.5-1-1-1.5-1.5,0,0,0,0,0,0,0-1.3-.3-2.4-1.5-3,0,0,0,0,0,0,0-1.5,0-3,0-4.5h0c7,7.5,14.3,5.4,22.8,2,10.3-4.2,20-10.4,31.6-11,.7,1.2,1.8,1.5,3,1.5.2,1.3-.5,3,1.3,3.7.2,0,1-.3,1-.6.3-1.8-1.1-2.4-2.3-3.2-.1-1.9-1.1-3-3.1-3-1.1-.7-1.4-1.7-1.5-2.9.2-.2.6-.4.5-.5-.1-.4-.3-.8-.5-1.1h0c-.3-7.3-5.5-13.5-4.5-21.1,5.4,2.7,10.7,0,16-.3,3-.2,4.4-2.8,2.9-5.4-2.6-4.5-3.1-10-6.8-13.9-1.7-6.6-5.6-12.6-6.1-19.6,0-1.9-1.1-2.9-3-3.1,0-.5,0-1,0-1.5,0,0,0,0,0,0,1.2-.7,1.5-1.8,1.5-3,0,0,0,0,0,0,.5-.5,1.1-1,1.6-1.5,1-1,2-2,2.9-2.9,4,0,8.1,0,12.1,0-.9,1.9-3.3.9-4.7,2.4,9.4,4.3,18.5,8.8,26.6,15.2,3.8,3,6.9,2.4,8.3-2.8.4-1.4,1.1-2.8,1.7-4.2,4.5.8,6.5,4.4,9,7.5-.2,2.6.3,4.9,3,6.1,0,0,0,0,0,0,1,1.5,2,3,3,4.5.7,1.2,1.8,1.5,3,1.5,0,0,0,0,0,0,0,1.3.3,2.4,1.5,3,0,0,0,0,0,0,.5.5,1,1,1.5,1.5,0,0,0,0,0,0,0,2.2,0,4.3,3,4.5,0,0,0,0,0,0,.8,6,3.9,10.5,9.1,13.6,0,0,0,0,0,0-.1,2.6.3,4.9,3,6,0,0,0,0,0,0,.5.5,1,1,1.5,1.5,0,0,0,0,0,0,1.2,7.1-1.3,15,4.5,21.1,0,0,0,0,0,0-.2,2.6.3,4.9,3,6,0,0,0,0,0,0,0,1.2.3,2.4,1.5,3,0,0,0,0,0,0,0,1.2.3,2.4,1.5,3,0,0,0,0,0,0,0,1.2.3,2.4,1.5,3,0,0,0,0,0,0,0,1.2.3,2.4,1.5,3,0,0,0,0,0,0,0,1.2.3,2.4,1.5,3,0,0,0,0,0,0,0,1.2.3,2.4,1.5,3,0,0,0,0,0,0,0,1.2.3,2.4,1.5,3,0,0,0,0,0,0,0,1.2.3,2.4,1.5,3,0,0,0,0,0,0,0,1.2.3,2.4,1.5,3,0,0,0,0,0,0,0,1.2.3,2.4,1.5,3,0,0,0,0,0,0,.8,5.9,3,11.1,7.6,15.1h0c0,1.2.3,2.4,1.5,3,0,0,0,0,0,0,0,1.2.3,2.4,1.5,3,0,0,0,0,0,0,0,1.2.3,2.4,1.5,3,0,0,0,0,0,0,0,1.7-.2,3.4,1.5,4.5,0,0,0,0,0,0,1,3,2,6,3,9.1ZM747.1,465.9c3.7,21.1,7.1,40.9,10.6,60.6.6,3.2,3.6,4.7,6.4,3.5,8.2-3.7,16.3-7.8,24.1-12.2,2.6-1.5,2.8-4.4.2-7-14.4-13.9-27.9-28.5-41.3-45Z"/>
  <path class="st4" d="M1381.8,855.6c7.6,3.2,11.8,8.7,14.4,15,9.4,22.2,18.5,44.5,27.6,66.8.3.6,0,1.5,0,2.8-11.3,0-22.6-.2-33.9,0-4,0-4.2-2.9-5.2-5.2-6.2-15.6-12.4-31.2-18.3-47-4.9-12.9-13.7-19-27.7-18.6-5.2.1-7.4.7-7.3,6.8.5,19.4,0,38.8.3,58.1,0,4.5-.9,6.2-5.7,5.9-7.5-.5-15.1-.5-22.7,0-5.3.3-6.7-1.3-6.6-6.6.3-33.7.1-67.5.1-101.2s0-37.8,0-56.6c0-3.8.7-5.3,4.9-5.2,23.1.5,46.3-.9,69.4,1.5,21.3,2.2,35.7,12.6,40.6,29.5,7.2,25.1-3.4,44.9-30,53.9ZM1348.3,797.6c-5.6,0-9.1.2-12.6,0-3.2-.2-4.4.9-4.4,4.2.2,12.3,0,24.6,0,36.8,0,1.9-.5,4.5,2.6,4.4,10.2-.4,20.6,1.8,30.4-2.6,9.1-4,14.5-13.3,13.6-23-1-10.1-6.9-16.6-17.6-18.7-4.6-.9-9.4-.9-12.1-1.1Z"/>
  <path class="st12" d="M833.1,563.8c29.2-28.8,58.3-57.7,87.5-86.5,11.8-11.7,23.8-23.2,35.3-35.2,4.2-4.4,6.5-4,10.7,0,68.8,69,137.7,137.8,206.6,206.7,10.3,10.3,20.8,20.5,30.9,31,4,4.2,8.1,5.8,13.9,5.8,63.2-.2,126.4-.1,189.6-.1,210.3,0,420.5,0,630.8,0,3.8,0,9.2-2,8.6,5.5-.2,2.7-.9,4.3-3.9,4.1-2-.1-4,0-6,0-274.2,0-548.4,0-822.7.1-6.3,0-10.6-1.8-15.1-6.3-77.3-77.6-154.9-154.9-232.2-232.5-4.7-4.7-6.9-4.7-11.6,0-38.6,38.6-77.5,76.9-116.3,115.4-4.5-1-4.2-5.4-6.1-8.3Z"/>
  <path class="st4" d="M1637.2,832.3c10.4-12.6,22.2-18.8,36.8-19.7,28.4-1.7,45.3,12,47.4,40.4,2,27.6.5,55.3.9,83,0,3.4-1.2,4.3-4.4,4.2-7.5-.2-15.1-.4-22.6,0-5.1.3-5.6-1.8-5.6-6.1.2-19.6.2-39.2,0-58.9,0-5-.5-10-1.2-15-1.9-13.2-8.1-20.1-18.6-21.4-12-1.4-23.5,5-28.1,16.1-3.5,8.3-4.1,17.1-4.1,25.9-.1,17.6-.3,35.2.1,52.8.1,5.4-1.5,7-6.7,6.5-8.4-.8-19.8,3.5-24.5-1.7-4.2-4.6-1.3-15.7-1.3-24,0-50.1,0-100.1-.1-150.2,0-5.6,1-8.2,7.2-7.5,8.1,1,19.2-3.5,23.8,1.7,4,4.5,1.2,15.3,1.2,23.3,0,16.1,0,32.2,0,50.4Z"/>
  <path class="st12" d="M944.8,1003.3c-13.8-11.1-17.3-8.9,1.5-19.1,3.1-1.7,6.3-3.1,10.3-5.2-10.6-6.7-18-15.3-21.2-26.9q-4.3-15.1,11.1-15.4l7.5.3c.2.3.4.7.4,1.1,1.4,3.6,4.3.9,6.4,1.6l.3-.2.4.2c1.6,2.4,4.1,1.6,6.3,1.7h0c1.1,1.8,2.9,1.6,4.6,1.5h0c1.1,1.8,2.9,1.6,4.6,1.5h0c1,1.8,2.8,1.5,4.5,1.6h0c1,1.9,2.9,3.9,4.7,2.4,4.4-3.7,4.8.4,6.1,2.7,1,1.7,2,3.5,2.5,5.4,1.4,4.7,2.7,8.4,9.2,6,11.5-4.4,13.7-6.5,11.1-14-3.6-10.6-10.3-19.4-18.3-27.1-3-2.9-5.5-5.8-5-10.3h0c1.3-.5,1.6-1.6,1.7-2.9,0,0,0,0,0,0,.5-.5,1-1.1,1.5-1.6,0,0,0,0,0,0,1.3-.6,1.6-1.7,1.7-2.9h0c.5-.6.9-1.2,1.4-1.7h0c.5-.5,1-1,1.5-1.6h-.1c1.5-.6,1.7-1.8,1.6-3.2.6-1.7,1.3-3.4,1.9-5.1.6-.8,1.3-1.7,1.9-2.5,5.2-1.1,6,3.5,7.5,6.4,4.4,8.5,6.6,17.8,9,27.6,14.2-13.2,33.7-17.6,48.3-33.7-.5,12.4-4.1,21.5-6.8,30.7-2.1,7-.4,7.8,5.9,6,15.5-4.4,31.1-5.6,46.8-.5,1.1.4,2.2.9,3.4,1.4-1.2,3-4.7,2.2-5.9,4.5-1,.6-2,1.2-3,1.8-10.6,6-20.6,12.9-29.1,21.8-9.1,6-19,10-29.6,12.7-3.2.8-5.6,1.5-2.2,5.2,8.5,9.3,10.2,20.9,10.9,32.8h0c-.3.5-.6,1-.9,1.5-1.3,4.9-4,2.1-6.3,1.1-11.7-5.3-23.2-11-31.1-22.5-10,14.9-17,30.8-31.4,40.9-.6.4-1.2.8-1.8,1.2-3.2.7-6.4,1.2-9.5,2.2-5.6,1.9-7.5.7-5.7-5.5,2.3-8,4-16.2,6.2-25.3-11.9,4.7-23.1,4.7-34.3,3.3Z"/>
  <path class="st4" d="M1942.2,904.8c0,9.6,0,17.6,0,25.6,0,1.9-.3,3.2-2.4,4-25.8,10.2-51.9,13.5-77.3.3-23.3-12-30.6-33.7-30.1-58.3.4-19.1,5.4-37,20.6-50,19.2-16.5,41.3-19.1,64.3-10.2,22.5,8.7,30.4,28.1,32.3,50.3,1.9,22,1.5,22-20.1,22-19.4,0-38.8.3-58.1-.2-7.4-.2-7.1,2.5-4.9,7.7,5.5,12.7,15.5,19.4,29,21,16.4,2,31.3-2.7,46.7-12.4ZM1892.2,865.7c7.3,0,14.6-.3,21.9.1,4.9.3,5.9-1.4,5.4-6-1.6-14.2-13.4-25.4-26.5-25-14.6.4-26.9,12.2-28.1,26.6-.3,3.3.5,4.4,3.9,4.4,7.8-.2,15.6,0,23.4,0Z"/>
  <path class="st4" d="M1823.4,913.3c0,5.8-.6,10.9.1,15.8,1.2,7.9-1.7,11.4-9.6,12.2-7.8.8-15.6,1.4-23.3-.1-18.8-3.7-29-16.3-29.7-38-.6-18.8-.4-37.7-.2-56.6,0-5.5-.8-7.9-7.2-7.8-17.1.4-16.8,0-17.3-16.8-.2-6.4,1.7-7.9,7.9-7.7,16.5.4,17,.1,16.3-16.1-.3-7.2,2-10.3,8.7-11.8,6.1-1.4,12.1-3.4,17.9-5.7,4.1-1.5,5.4-.6,5.2,3.7-.2,8.3,0,16.6-.1,24.9-.1,3.8.9,5.4,5,5.2,6.5-.3,13.1,0,19.6-.1,3.6-.1,4.6,1,4.8,4.6.9,20,1.1,20-18.7,20q-10.6,0-10.6,10.8c0,12.8,0,25.7,0,38.5,0,3,0,6,.4,9,1.3,12.3,7.7,17.8,20.1,17.3,3.2-.1,6.4-.8,10.7-1.3Z"/>
  <path class="st4" d="M1582.4,842.6c-10.3-4-20.3-5.4-30.7-2.4-6.5,1.8-11.8,5.4-16.1,10.6-10.4,12.7-10.8,38-.9,51.7,9,12.4,27.8,17.3,44.4,10.5,6.6-2.7,7.6-.5,7.7,5,0,2.8.3,5.5.5,8.3.6,12.3.7,12.6-11.7,14.6-23.7,3.9-46,1.9-64.5-16.1-24.1-23.4-26.7-82.8,11.1-103.6,18.6-10.2,38.3-10.8,58.5-5.9,3.1.8,4,2.3,3.7,5.2-.7,7.2-1.3,14.4-1.9,22Z"/>
  <path class="st12" d="M810,995.7c-15.4,6.1-31.2,11.5-43,24-14,14.8-27.5,30.2-31.7,51-2.2,10.9-.5,22-.6,33.1,0,4.8-.8,9-4.7,12.2-9.8,8-15.8,18-16.2,30.9-21.1,14.3-36,6.1-49.8-3.5-2.4-1.7-4.7-3.8-6-8.2,18.5,4.1,36.4,6.1,47.7-14.2-6.4,0-12.6.7-18.6-1.2-2.6-.8-5.2-1.7-7.7-2.9-2.2-1.1-5.2-2.5-4.8-5.2.3-2.3,3.5-2.2,5.6-2.9,6.7-2.4,12.7-5.7,17.1-11.6,5.1-6.8,12.1-11.1,21.1-13.5-4.2-3.1-7.9-5.4-11.1-8.4-7.6-6.9-10.4-15.6-9.5-25.8.3-3.7,1.9-5,5.6-5.4,10.7-1.4,21.3-1.7,33.5-1.2-9.5-12.8-8.2-26.4-8-40.2,6.5.5,12.4,2.4,18,5.1,3.5,1.7,5.6,2,7.3-2.3,2.9-7.3,7.4-13.6,13.2-19,2.6-2.4,4.6-5.4,5.1-9,1.6-.9,1.5-2.4,1.6-3.9.9-2.5,2.1-5,2.7-7.6.5-2,1.3-2.5,3-1.7,2.4,7.4,6.8,14,8.2,21.8.7,4,3,4.2,5.7,1.4,1.2-1.2,2.5-2.5,3.7-3.7,3.2-.8,5.2-3.1,6.8-5.7,2.1-1.3,3.5-3.3,4.8-5.5,1.2-2,2.2-1.4,2.8.6-.7,7.5-1.3,15-2,22.5Z"/>
  <path class="st4" d="M1999.6,839c7.8-16.3,18.8-26.8,37.9-26.2,4.5.1,7,1.1,6.6,6.4-.5,6.8-.2,13.6,0,20.4,0,3.3-.9,4.4-4.4,3.8-23.9-3.8-36.7,13.2-37,34.6-.2,18.6-.4,37.2-.3,55.9,0,4.8-1.1,6.7-6.2,6.4-7.3-.5-14.6-.2-21.9,0-3.2,0-5-.3-5-4.3,0-39.3-.1-78.5-.4-117.8,0-3.3,1.2-3.8,3.9-3.7,7.6,0,15.1.2,22.7,0,3.4-.1,4.3,1.1,4.2,4.4-.2,6.8,0,13.6,0,20.4Z"/>
  <path class="st7" d="M780.1,964.2c-1.8-.8-2.5-.4-3,1.7-.6,2.6-1.8,5.1-2.7,7.6-3.8-9.5-5-19.7-7.8-29.5-.4-1.4-.8-2.8-1.2-4.3,2.2-2.2.7-4.9,1.2-7.4,1.2-.3,2.8-.1,3.5-.9,6.1-7.1,12.6-13.6,21.3-17.6,6.5,3.2,7.9,2.2,8.3-5.4,1-7.6,8.8-9.2,13.3-13.3,3-2.7,5.2-4.3,4.9-8.3.5-.5,1-.9,1.5-1.4,3.3,0,7,.9,8.4-3.9.6-2.2,3.1-2.2,5.1-2.1.2,3.6,3,3.4,5.4,3.4,1.9,0,3.2-1.5,3.6-3.2.9-3.5-2-4.6-4.3-6,.2-5.4,6.9-1.8,8.2-6.1,1.9-6.1,8.4-8.5,12.6-11.5,5.3-3.9,8.7-9.8,14.9-13.1,3.2-1.7,7.5-3.4,10.3-6.3,6.4-6.5,12.5-13.2,18.9-19.6,1.7-1.7,3.4-2.9,3-5.5,10.6,1.6,19.9,6.4,29,11.7-6.2,5.4-12.2,11-18.5,16.3-17.2,14.5-34.7,28.7-51.7,43.3-7.5,6.5-16.1,11.8-22.4,19.8-5.8,1.4-7.5,4.1-2.8,8.8-4.4,5.8-9.8,10.7-15.9,14.6-6.2-2.1-7.3,1.2-6.9,6.3-1.7,0-3.8-.2-4.8,1.5-4,6.9-11.4,10.4-16.4,16-4.7,5.2-13.5,6.1-15,14.4ZM882.8,858.4c0-2.8-1.7-4.2-4.1-4.5-2.8-.4-4.3,1.5-4.7,3.8-.5,3.1,1.7,4.7,4.4,4.9,2.7.2,3.8-1.9,4.4-4.2ZM912.5,826.8c-3,.6-3.9,2.7-4,5.4,0,3.2,1.9,3.6,4.4,3.5,3.1-.1,4.5-2.4,4.3-4.9-.1-2.5-2.5-3.5-4.8-4ZM789.3,940.5c0-2.8-1.9-4.1-4.2-4.2-3-.2-4.5,2.2-4.5,4.8,0,2.5,2.2,3.7,4.7,3.7,2.7,0,3.9-1.6,4-4.2Z"/>
  <path class="st12" d="M669.5,740.4c-6.7,6.4-13.3,13-20.2,19.3-3,2.7-3.2,6-3.2,9.6,0,18.9,0,37.8,0,56.6,0,140.9,0,281.9,0,422.8,0,3.2,2.3,8.2-4.4,8.2-3.2,0-5.5-.5-5.1-4.4.2-1.5,0-3,0-4.5,0-160.6,0-321.2-.1-481.7,0-5.7,1.5-9.9,5.7-13.8,7.9-7.3,15.4-15.2,23-22.8,2.8.8,2.4,4.1,4.2,5.6,0,.4,0,.6.4.8-.1,1.5-.3,2.9-.4,4.4Z"/>
  <path class="st12" d="M863.3,796.2c6.2,1.7,7.9,0,5.5-6.4-2.1-5.5-3.1-11.5-2.6-17.5,6.9,4.8,12.8,11,21.9,12.4,9,1.4,24.9-1.6,31.5-7.1,5.9,9.6,13.3,18.4,12.8,31.8,4.7-3.3,7.9-5.5,11.2-7.8.4-.3.9-.6,1.3-.9,2.7-1.3,5.4-2.5,8.1-3.9,8.6-4.3,8.7-4.1,13.3,4.8,4.9,9.5,2.4,18.4-2.3,28.2,9.1-3,17.1-1.6,25.1,1,4.3,1.4,9,.5,13.4-.7,1.8-.5,4.2-1.8,5.5.3,1.1,1.7,0,3.8-.9,5.7-2.2,4.1-5.5,7.1-9.3,9.7-2.2,1.5-4.4,2.9-7.1,4.7,17.4,9.1,28.5-1,39.5-11.7,2,14.8-11.9,32.2-25.5,33.2-2.7.2-5.6-.3-8.1,1.1-1-1-2.1-2-3.1-3,0,0-.1.2-.1.2-3-6.3-8.9-9.6-14.9-10.1-11.1-.9-16.9-7.4-21.7-16.2-2.2-4.2-4.9-8.2-7.8-12-1.3-1.7-2.2-4.9-5.6-4h0c.4-1.4-.1-1.9-1.5-1.5,0,0,0,0,0,0,.9-2.3-1-3.2-2.4-4-9.5-5.4-19.4-10-29.9-13.2-2.1-.7-3.9-.3-5.6.7-2.7-2.2-6-1.4-9-1.6-1.1-3.8-4.3-2.7-6.8-2.9-10.1-.6-19.7,3.1-29.6,4.1-3.6-5.6-9-10.1-11.9-17.3,6,1.9,11,4.3,16.6,3.6Z"/>
  <path class="st3" d="M1952,1090c-9.9-.2-19.1,3.3-24.6-7-2.4-4.4-4.8-1.5-7.2.3-11.6,8.4-24.4,10.2-37.9,6.1-13.6-4.1-21.9-13.7-22.6-27-.6-12.8,5.6-22.4,16.8-28.1,5.9-3,6.9-4.7,2.6-10.4-9.4-12.5-8.4-26,1.6-34.5,10.1-8.7,29.4-8.4,39.1.5,7.8,7.1,8.8,19.5,2.4,28.9-3,4.5-6.9,8.2-11.6,10.6-6.1,3.1-5,5.9-1.2,10,4.3,4.6,8.3,9.5,12.2,14.4,2.7,3.4,4.1,2.6,5.5-.9,2.2-5.1,3.8-10.5,4.2-16,.6-7.7,6.2-3.7,9.7-4.4,4.8-.9,4.5,2.7,4.2,5.7-.7,8.9-3.5,17.3-8.1,24.9-2.5,4.2-2,7,1.2,10.5,4.5,4.9,8.5,10.2,13.7,16.5ZM1899.6,1078.8c3.3-.2,8.4-2.6,13.1-6.3,2.6-2.1,3.3-3.8.8-6.7-6.6-7.6-12.8-15.5-19.2-23.3-1.2-1.5-2.1-2.9-4.9-1.7-8.8,3.9-14.9,14-13,22.5,2,9.2,10.6,15.7,23.2,15.5ZM1887.6,1007.1c0,5.4,6.9,16.9,9.8,16.7,5.1-.4,14.7-12.1,14.6-17.7-.2-6.2-5.3-10.6-12.2-10.6-6.9,0-12.2,5.1-12.2,11.7Z"/>
  <path class="st3" d="M1632.2,1080.5c-12,11.2-24.6,14.1-38.2,9-13.7-5.2-19.2-16.8-20.9-30.7-.8-6.8-.6-13.6,1-20.2,6.4-27,38-37.3,58.4-16.9-.8-8.7,3.8-10.2,10.6-9.4,3.4.4,4.2,1.7,4.2,4.8-.5,25.6,1.2,51.3-1,76.9-1.4,16.7-9.9,26.5-26.1,29.7-12.5,2.5-25,1.4-37.2-2.6-3.6-1.2-5.6-11.5-2.8-13.9,1.8-1.5,3.3.3,4.8.9,6.8,2.9,13.9,4.3,21.3,4.5,16.7.5,24.7-6.7,25.9-23.3.2-2.4,0-4.9,0-8.6ZM1588.3,1053.2c0,.4,0,2.7.3,4.9,1.3,11.2,7.9,18.7,17.9,20.5,9.3,1.7,18.9-3.9,23.4-14,4.8-10.9,3.9-21.7-2.3-31.6-7.7-12.3-22.8-13.3-32.6-2.6-5.5,6-6.8,13.2-6.7,22.8Z"/>
  <path class="st1" d="M764,897c-.6-3.1-2.1-3.9-5.4-3.1-7.5,2.1-15.1,3.6-22.3,6.7-.5-.5-1-1-1.5-1.5,0,0,0,0,0,0-.5-.5-1-1-1.5-1.5,0,0,0,0,0,0,0-1.7.2-3.4-1.5-4.5,0,0,0,0,0,0,0-3.7-1-7-4.5-9,0,0,0,0,0,0,0-1.2-.3-2.3-1.5-3,0,0,0,0,0,0,0-1.2-.3-2.3-1.5-3,0,0,0,0,0,0,0-1.2-.3-2.3-1.5-3,0,0,0,0,0,0-1-6.2,2.2-9.3,7.5-12.2,14.3-7.8,28.1-16.3,42.2-24.4,3.8-2.2,5.9-4.9,4.2-9.1-2.3-5.9-4.9-11.7-10.4-15.3-8.4-5.5-16.9-10.6-25.4-15.9-1-1-2-2-3-3,.2-3.6,2.7-4.1,5.6-4.8,12.6-2.8,25.3-5.6,37.8-8.8,7.8-2.1,13.7-1.4,16.3,7.4.5,1.7,1.7,3.1,3.8,3.1h0c0,1.3.3,2.4,1.5,3h0c.2,6.2,1.7,11.7,7.5,15.1h0c0,1.3.3,2.4,1.5,3.1,0,.8.2,1.6.3,2.4-15.9,8.2-27.1,21.2-35.5,36.6-6.4,11.8-10.5,24.5-11.4,38.1-.4,2.3-.9,4.5-1.3,6.8Z"/>
  <path class="st4" d="M1440.3,877.3c0-18.9.1-37.7,0-56.6,0-4.6.6-6.8,6-6.5,7.3.5,14.6.3,21.9,0,3.6,0,5.4.5,5.4,4.8-.2,38.7-.2,77.4,0,116.2,0,4.3-1.7,5-5.4,4.9-7.5-.2-15.1-.3-22.6,0-4.6.2-5.3-1.6-5.3-5.6.2-19.1,0-38.2,0-57.3Z"/>
  <path class="st6" d="M706.1,607.6c15.9,8.2,32.1,16,47.7,24.9,7.6,4.4,12.2,12.4,17,19.7,1.7,2.6,2.6,6.1,6.4,6.8.6,3.8-2,8.9,2.1,11.2,7.2,4,8.6,11.1,11.8,17.5,1.9,3.8,2.1,9,7.3,10.6h0c0,.5,0,1,0,1.5-.3,6,2.6,10.7,6,15.1,0,0,0,0,0,0,.2,3.3.3,6.7,4.5,7.6,0,.5,0,1,0,1.5,0,1.7-.2,3.5,1.5,4.6,0,0,0,0,0,0-.2,2.6.3,4.9,3,6,0,0,0,0,0,0,0,1.7-.2,3.4,1.5,4.5,0,0,0,0,0,0-.2,2.6.3,4.9,3,6,0,0,0,0,0,0,0,1.7-.2,3.4,1.5,4.5,0,0,0,0,0,0,.5,2.5,1,5,1.5,7.6-2.2,0-3.6,1.4-5.1,2.8-4,3.7-7.1,3.5-9.9-1.7-2.7-5.1-5.8-10-9.2-14.5-6.6-8.8-10.1-19.5-18.1-27.3-4.1-8-5.4-16.5-4.5-25.3.3-3,1.2-5.9,1.3-8.8,0-3.6,2.1-8.2-1.5-10.4-3.8-2.4-6.8,1.9-9.6,4-5,3.7-9.6,7.9-14.4,11.9-5.1-3.2-4.8-9.9-9.1-13.6-2.3-1-3-3.2-4.1-5.2-9.7-18.9-19.4-37.8-29.2-56.7-.5-1.5-1-3-1.5-4.5Z"/>
  <path class="st3" d="M1471.7,1229.3c-9.2,9.8-19.2,13.6-31,12.1-32.3-4.1-36.4-44.1-24.1-64.2,8.2-13.5,24.9-19.8,40-15.2,5.1,1.6,9.1,4.9,14.2,9,0-13.3.4-25.6-.2-37.7-.3-6.4,2.2-7.2,7.7-7.4,6.3-.2,7.5,2.2,7.4,7.8-.5,33.2-1,66.4.2,99.6.1,3.8.4,7.1-5.1,6.6-4.3-.4-9.7,1.4-8.7-6.2.1-.9-.2-1.9-.4-4.3ZM1471,1200.9c.1-5.6-.9-11-3.7-16-8-14.5-26.7-15.9-36.1-2.6-3.7,5.3-5.4,11.3-5.6,17.7-.5,17.1,8.9,29.3,22.5,29.2,13.2,0,22.9-12.1,22.9-28.4Z"/>
  <path class="st3" d="M1516.7,1230.5c-3.2,2.6,1.4,8.2-4.6,9.3-7.7,1.4-9.8-.1-9.8-8,0-33,.2-66-.1-98.9,0-6,2-7,7.4-7,5.3,0,7.7,1.1,7.5,7-.4,12.5-.1,25-.1,39.1,10.6-9.5,21.5-13.1,34.2-10.3,6.7,1.5,12.1,4.8,16.3,10.1,10.7,13.4,12.2,39.1,3.1,53.6-11.1,17.6-35.5,21.2-51.3,7.5-.9-.8-1.8-1.6-2.6-2.3ZM1561.6,1202.7c0-7.1-1-12-3.1-16.6-7.1-15.6-25.6-17.9-35.9-4.2-6.6,8.8-7.5,19-4.7,29.4,2.7,10,11.8,17.1,21.3,17.3,9.1.2,16.8-5.9,20.3-16.1,1.3-3.8,2-7.7,2-9.8Z"/>
  <path class="st3" d="M1375.2,1024.8c6.9-7.5,13.6-12,22.2-13.4,14.1-2.4,26.3,3.1,33.4,15.3,9.4,16.1,7.4,41.3-4.3,53.8-12.8,13.8-33.4,14.7-47.4,2-.7-.6-1.4-1.2-3.3-2.8,0,12.8-.4,24.2.2,35.6.3,6.3-2.5,6.7-7.6,6.8-5.6.2-6.5-2-6.5-7-.1-32.5.9-64.9-.7-97.4-.2-4.3,1.2-6.3,5.5-5.5,3.3.6,8.9-2.7,8.6,4.6,0,2,0,4,0,7.9ZM1421.2,1051.4c0-6-.7-10.9-2.7-15.6-6.8-15.4-26.2-17.8-35.9-4-7.3,10.3-8.5,21.8-3.2,33.5,4.2,9.3,12.5,14.4,21.3,13.8,8.9-.6,15.7-6.7,19-16.8,1.3-3.9,1.4-7.9,1.5-10.9Z"/>
  <path class="st3" d="M1291.2,1186.1c0-15.3.1-30.7,0-46,0-4.6.8-6.8,6.1-6.7,15.6.3,31.2.4,46.8,0,6.2-.2,5.9,3.1,6.2,7.4.3,5.3-1.9,6.2-6.5,6.1-10.3-.3-20.6.1-30.9-.2-4.7-.1-6.2,1.4-6,6,.3,6.8.3,13.6,0,20.4-.2,4.4,1.6,5.6,5.7,5.5,9.8-.2,19.6.2,29.4-.2,5.8-.2,4.9,3.3,5,6.8,0,3.6.5,7-5.1,6.8-9.5-.4-19.1.1-28.7-.2-5-.2-6.6,1.7-6.3,6.5.3,7.3.3,14.6,0,21.9-.2,4.7,1.7,6.1,6.2,6,11.1-.2,22.1.2,33.2-.2,6.3-.2,5.1,3.7,5.3,7.4.2,3.9,0,6.6-5.3,6.5-16.3-.3-32.7-.2-49.1,0-4.7,0-5.9-1.8-5.9-6.2.2-15.8,0-31.7,0-47.5Z"/>
  <path class="st6" d="M804.3,598.6c9.3,3.1,16.3,9.8,24.2,15.1,12.4,5.6,15,17.3,18.1,28.7-19.1,11.1-39.4,20.3-57.4,33.2-8.4-14.4-13.6-30.1-20.1-45.3-1.5-3.6.2-7.4,4.1-9.4,6.6-3.5,13.4-6.9,19.8-10.8,4.7-2.8,11.4-4,11.4-11.5Z"/>
  <path class="st3" d="M1813.5,1171.9c6.8-6.7,13.5-9.7,21.1-10.8,15.9-2.3,28.5,6.7,30.8,22.6,2.4,17.2.7,34.6,1,52,.1,6.6-5.3,3.6-8.4,4.1-3.6.6-6.2-.2-6.1-5.1.2-13.6,0-27.1-.2-40.7,0-2.2-.2-4.5-.7-6.7-3.3-14.4-17-18.8-28.3-9.3-6.2,5.2-8.6,12.2-8.6,20.1,0,12.1-.4,24.1.1,36.2.3,6.8-3.9,5.6-7.8,5.6-4,0-7.7,1-7.7-5.7.3-34.2.3-68.4,0-102.6,0-6,3.2-5.7,7.1-5.5,3.8.2,8.2-1.4,8,5.5-.4,12.8-.1,25.6-.1,40.4Z"/>
  <path class="st6" d="M663.8,600.1c10.8,5.5,20.7,12.3,30.2,19.6,2.9,6.4,7.1,12.3,7.6,19.6-14.7,8.4-29.1,17.1-44,25.1-7.4,3.9-12,8.3-8.8,17.2h0c-5.9-10.7-9.2-22.4-13.9-33.6-3.1-7.4-5.9-14.8-8.8-22.2,1.2-.9,2.2-2.3,3.5-2.7,11.2-3.4,20.3-10.7,30.4-16.3,2.7-1.5,4.2-3.4,3.9-6.6Z"/>
  <path class="st3" d="M1309.3,1091.3c-5.2,0-11.9-.8-18.5-2.7-8.5-2.5-4.2-8.5-3.2-12.9,1.2-5.5,4.6-.8,6.7-.3,7.8,2,15.4,4.6,23.6,2.2,6.9-2,11.5-6.1,12.6-13.4,1.2-7.5-1.7-13.4-8.2-17.2-6.5-3.8-13.4-7-19.8-10.9-13.4-8.4-18.4-19.9-14.9-33,3.3-12.1,14.3-19.9,29.3-20.6,7.6-.3,15.1.6,22.4,2.7,8.2,2.3,3.4,8.2,2.8,12.4-.8,5.6-4.4,1.1-6.1.6-6.4-1.9-12.7-3.3-19.3-2.2-6.3,1-11.8,3.6-13.6,10.3-1.7,6.4,1.5,11.5,6.5,14.9,7.2,4.9,15,9.1,22.5,13.6,15,9.2,19.5,26.2,10.9,41.3-7.2,12.5-19,15.5-33.9,15.2Z"/>
  <path class="st3" d="M1878.5,1201.1c.2-25,16.5-40.7,41.6-40.4,22.5.3,37.4,16.9,37.2,41.3-.2,23.8-16.2,39.5-40.1,39.3-24.3-.2-39-15.5-38.7-40.2ZM1942.2,1197.9c-.6-8.9-3.4-18.8-14.1-23.6-9-4.1-17.8-2.3-25.3,4.3-11.5,10.1-12,32.5-1.1,43.9,6.1,6.3,13.4,8.6,22,6.2,11.5-3.2,18.6-14.2,18.5-30.7Z"/>
  <path class="st3" d="M1726.6,1223c1.8,13.3,1.3,14.7-11.3,16.7-17.1,2.8-33.9,1.7-44.8-14-10.5-15.1-10.5-31.7-1.7-47.7,7.5-13.5,22.8-19.5,38.9-16.3,14.3,2.9,22.2,12,24.6,28.5q2.1,14.8-12.9,14.8c-11.8,0-23.6.3-35.4-.1-6.3-.2-6.5,2.2-4.8,7.1,4.7,13.5,19.7,20.2,35.5,15.6,4-1.2,7.9-3.1,11.8-4.6ZM1698.1,1193.7c5.3,0,10.5-.2,15.8,0,4.4.2,4.9-1.5,4-5.3-2.2-9.3-7.8-15.3-15.5-16.1-10.1-1.1-18.4,4.1-22.5,13.9-2,4.8-2.8,8.5,4.7,7.6,4.4-.5,9,0,13.5,0Z"/>
  <path class="st3" d="M1648.6,1222.5c1.7,13.9,1.4,15-11.3,17.2-15.7,2.7-31.1,1.9-42.5-11.2-11.5-13.2-12.3-28.8-6.7-44.7,5.6-15.8,21-24.8,37.6-22.9,16.6,1.8,25.7,11,28.8,28.9.4,2.2.3,4.5.7,6.7,1.1,6.3-.6,9-7.7,8.6-13.6-.6-27.2,0-40.8-.3-6.7-.2-7,2.6-5.1,7.8,3.9,10.7,15.1,17.4,27.8,16.3,6.8-.6,13.1-2.9,19.2-6.5ZM1620,1193.7c5,0,10-.3,15,0,5.5.5,5.6-2.3,4.7-6.3-2.3-10.1-9.2-15.6-19.2-15.2-9.1.4-18.6,9-19.8,17.6-.5,3.2.8,3.9,3.6,3.8,5.3-.1,10.5,0,15.8,0Z"/>
  <path class="st3" d="M1452.9,1029.3c-1-13-.3-13.9,10.7-16.9,6.7-1.8,13.5-2.1,20.2-1.3,15.7,1.9,23.7,11.4,24,28.4.2,14.6-.1,29.1.1,43.7,0,4.9-.9,7.2-6.5,7.2-5.5,0-7.2-1.8-6.5-6.9.2-1.1-.1-2.3-.3-4.8-10.1,11.6-21.9,14.5-35.3,11-10-2.6-15.4-9.2-16.7-19.9-1.1-9.1,3-16.9,11.6-21.8,10.1-5.8,21.2-5.5,32.3-5.4,7.7,0,8.8-1.4,6.1-8.7-2.6-7.2-8.2-10.5-15.5-11.2-8.6-.8-16.2,2.6-24.1,6.6ZM1484.1,1052.3c-7.4.9-14.8.8-21,5.5-3.9,3-5.9,6.8-5.2,11.7.7,4.7,3.7,7.5,7.9,9.3,11.2,4.6,24.6-2.6,27.5-14.9,2.4-10.1,1.1-11.7-9.2-11.6Z"/>
  <path class="st6" d="M740.9,798c8.5,5.3,17.1,10.5,25.4,15.9,5.5,3.6,8.1,9.5,10.4,15.3,1.6,4.2-.5,7-4.2,9.1-14.1,8.1-28,16.6-42.2,24.4-5.3,2.9-8.5,6-7.5,12.2-6.7-11.3-10.6-23.9-14.9-36.2-1.1-3-2.1-6.1-3.2-9.1,2.1-4,4.4-7.5,8.7-9.7,7.5-3.9,14.6-8.5,22.1-12.4,4.1-2.1,6-5.1,5.4-9.6Z"/>
  <path class="st3" d="M1723.5,1073.4c2,12.8,1.3,13.8-10.5,16.4-24.4,5.4-44.6-4.4-51-24.5-8-25.3,4.9-49.6,28.5-53.8,24-4.2,44,16.1,39.9,40.3-.7,4-3.3,3.1-5.5,3.1-14.6,0-29.2.4-43.8-.1-6.9-.2-6.8,2.4-5,7.5,4.7,13.2,18.7,20,34.1,16,4.5-1.2,8.9-3.2,13.3-4.8ZM1695,1044c5.3,0,10.5-.2,15.8,0,4.3.2,5-1.5,4.1-5.4-2.2-9.3-8.1-15.4-16.3-16.4-8.7-1.1-17.2,4.2-21.4,13.4-3.5,7.6-3.1,8.3,5.1,8.4,4.3,0,8.5,0,12.8,0Z"/>
  <path class="st6" d="M943.6,801.7c-3.2,2.2-6.5,4.5-11.2,7.8.5-13.4-6.9-22.2-12.8-31.8-6.7,5.5-22.5,8.4-31.5,7.1-9.1-1.4-15-7.6-21.9-12.4-3.7-10.4,1.5-19.4,4.6-28.7,4.2,0,8.3-.5,12.5-1.1,10.9-1.8,21.6-5.3,32.8-3.4,0,0,0,0,0,0,.5.5,1,1,1.5,1.5.5,1.5,1,3,1.5,4.5-1.7,4.9,1.3,7.8,4.5,10.6,0,0,0,0,0,0,.5.5,1,1,1.5,1.5,0,.5,0,1,0,1.4.5.5,1,1.1,1.5,1.6,0,.5,0,1,0,1.4.5.5,1,1.1,1.5,1.6.5,1.5,1,3,1.5,4.5,0,1.7-.2,3.5,1.5,4.6,0,0,0,0,0,0,0,1.2.3,2.4,1.5,3,0,0,0,0,0,0,0,1.2.3,2.4,1.5,3,0,0,0,0,0,0,0,1.2.3,2.4,1.5,3,0,0,0,0,0,0,0,2.2,0,4.3,3,4.5,0,.5,0,1,0,1.5,0,1.7-.2,3.5,1.5,4.6,0,0,0,0,0,0-.4,3.8,2.1,6.6,3.3,9.8Z"/>
  <path class="st6" d="M724.2,524.6c-11.6.7-21.3,6.8-31.6,11-8.5,3.5-15.8,5.5-22.8-2-1.7-7.8-6.3-15.1-4.5-23.6,1.5-7.2.4-14.7,3-21.7,3-.2,6.3.3,8.9-.9,11.3-5,23.7-7.6,33.5-15.7,1,1,2,2,3,3-.2.1-.6.4-.5.4.1.4.4.7.6,1.1,0,0,0,0,0,0,1.8,5.1,1,10.4,1.6,15.6,1.1,9.2.5,19.1,7.5,26.7,0,0,0,0,0,0,0,.5,0,1.1,0,1.6,0,1.2.3,2.3,1.5,2.9,0,.5,0,1,0,1.5Z"/>
  <path class="st1" d="M789.2,675.6c18.1-13,38.3-22.1,57.4-33.2,6.6,13.8,8.9,29,14.5,43.1,1.1,2.6-.8,3.4-3.1,3.7-19.9,3-39.8,6-59.7,9,0,0,0,0,0,0-3-7.6-6.1-15.1-9.1-22.7Z"/>
  <path class="st12" d="M1980,1206.3c0-8.6-.4-17.1.1-25.7.4-6.5-2-8.6-8.1-7.7-1.5.2-3-.2-4.5,0-4.9.7-5.7-1.7-5.8-6.1-.1-4.9,2.3-5,6-5.1,11.4,0,11.4-.2,12.4-11.4,1.7-19,10.9-26.4,30.2-25.1,5,.3,5,2.8,4.6,6.4-.3,3.1.8,6.3-4.9,6.1-11.7-.6-18.7,9.4-16,21.4.5,2.3,1.7,2.8,3.7,2.8,3.5,0,7.1,0,10.6,0,3.7-.1,6.6-.4,6.7,5.2,0,5.5-2.4,6-6.8,6-14.1,0-14.1.2-14.1,14.5,0,15.4-.3,30.7.1,46.1.2,6.4-3.5,5.7-7.7,5.9-4.5.2-6.9-.7-6.6-6.1.5-9,.1-18.1.1-27.2Z"/>
  <path class="st12" d="M1757.9,1034c0,16.8-.3,33.7.2,50.5.2,6.4-2.6,7.1-7.5,6.5-4.1-.5-9.5,2.5-9.4-6.1.4-34.2.4-68.4,0-102.5-.1-8.6,5.3-5.6,9.4-6.1,4.9-.6,7.7,0,7.6,6.5-.5,17.1-.2,34.2-.2,51.3Z"/>
  <path class="st2" d="M740.9,798c.5,4.5-1.4,7.4-5.4,9.6-7.5,3.9-14.6,8.5-22.1,12.4-4.3,2.2-6.6,5.8-8.7,9.7-5.5-15-11-30.1-16.6-45.1-1.3-3.5-3-6.9-3.1-10.8h0c5.2-2,1.1-4,0-6.1,0,0,0,0,0,0,.3-1.6-.7-3.4,1.2-5.2,1.1.9,2.1,1.9,3.2,2.8,14.1,11,29.6,19.7,45.4,28,.7,1.2,1.8,1.5,3,1.5l3,3Z"/>
  <path class="st3" d="M1539.4,1021.6c6.1-7.8,14.4-10.7,24.4-10.4,8.7.3,5.7,6.5,5.9,10.9.2,6.2-4.3,2.4-6.4,2.2-12.1-1.1-20.6,5.2-23.1,17.7-2.6,13.2-1,26.6-1.1,39.9,0,5.5-.3,8.5-7.4,8.6-7.5,0-7.9-3.1-7.9-9,0-21.1,1.1-42.2-.2-63.4-.2-3.6,0-6.8,4.9-5.9,3.5.6,9.4-2.8,8.9,5.1,0,1.5,0,3.1,1.9,4.3Z"/>
  <path class="st3" d="M1759.9,1173.2c7.2-10,16.2-12.9,26.9-11.7,8,.9,3.6,6.8,4.2,10.5.9,5.5-3.2,2.6-5.3,2.3-13.8-1.7-23.7,6.6-24.6,21.9-.7,12.3-.7,24.6-.3,36.9.2,6.2-2.5,6.9-7.6,6.9-4.9,0-7.7-.3-7.6-6.7.3-22.3,0-44.7-.4-67,0-3.5,1.2-4.9,4.2-4.2,3.3.8,8.4-3,9.7,3.4.4,2.1.5,4.3.8,7.8Z"/>
  <path class="st3" d="M1379,1173.5c6.6-9.2,14.2-12.3,23.7-12.4,6.1,0,8.8,1.9,7.7,8.2-.3,1.7,0,3.5,0,5.9-5.2-.8-10.1-2-14.9-.6-8.6,2.4-14.6,10.8-15.1,22.1-.5,12-.8,24.1-.3,36.1.3,7-3.2,6.8-8.2,7.1-5.9.4-7-1.9-7-7.3.3-21.1,0-42.2,0-63.3,0-3.3-1.9-7.9,4.8-7.5,4.8.3,10-.8,9,6.9-.1.9.1,1.9.4,4.8Z"/>
  <path class="st2" d="M710.7,471.7c-9.8,8.1-22.2,10.8-33.5,15.7-2.6,1.1-5.9.6-8.9.9,0-17.4,3.8-34.5,5.6-51.8.7-7.1.3-13.9-1-20.7,7.6,6.1,11.3,15.1,16.9,22.7,7.7,10.5,14,22.1,20.9,33.2Z"/>
  <path class="st2" d="M663.8,600.1c.3,3.2-1.2,5.1-3.9,6.6-10.1,5.6-19.1,12.9-30.4,16.3-1.3.4-2.3,1.8-3.5,2.7-6.3-19.3-12.7-38.5-19-57.8-.9-2.8-1.4-5.8-2.2-8.7,12.6,15.8,31.6,22.5,47.5,33.5,3.7,2.6,7.6,4.9,11.4,7.3Z"/>
  <path class="st2" d="M916.2,739c-11.3-1.9-22,1.6-32.8,3.4-4.2.7-8.3,1.1-12.5,1.1,2.2-12.9,7-25,10.9-37.4,4-12.3,7.8-24.2,1.2-36.6,0,0,0,0,0,0,12.5,22.5,23.4,45.8,33.2,69.5Z"/>
  <path class="st4" d="M1456.7,761.1q16.7,0,16.7,16.8c0,13.7,0,13.8-13.8,13.6-6.2,0-14.3,2.8-18.1-1.2-3.8-3.9-.8-12-1.2-18.2,0-1.3.2-2.5,0-3.8-1.1-6.1,1.6-8,7.4-7.3,3,.4,6,0,9,0Z"/>
  <path class="st2" d="M821,757.2c-.5-2.5-1-5-1.5-7.6,5.3,5.1,6,12.4,8.8,18.6,1.6,3.6,3.7,6.2,6.8,8.5,9.1,6.9,20.1,11.1,28.2,19.4-5.6.6-10.6-1.7-16.6-3.6,2.9,7.1,8.3,11.6,11.9,17.3-8.4,3.5-17,2-25.6,1.4-.8-3.1-1-6.4-1.6-9.5-1.7-7.4.5-14.9-1-21.9-1.7-7.9-6.1-15.1-9.4-22.7Z"/>
  <path class="st6" d="M647.2,361.5c-4.2,1.1-5.3,5.7-8.6,7.8-2.8,1.8-6,4.1-8.2,0-6.2-11.5-11.9-23.3-17.9-34.9,6.8.7,11.6,5.2,16.6,9.2,6.7,5.4,14.7,9.5,18.2,18.1Z"/>
  <path class="st6" d="M579.2,468.7c1.1-.2,1.9-3.6,3.4.2,3.6,9.1,7.5,18,11.7,26.8,2.7,5.7,1.1,8.4-4.9,9.3-5.1.8-10.2,1.7-8.7,9-4.1-5.9-4.2-12.9-4.3-19.4-.1-9.1-2-18.4,1.3-27.4.5.5,1,1,1.5,1.5Z"/>
  <path class="st12" d="M1792.6,1044.2c4.3,0,8.5.3,12.8,0,4.8-.4,7.1.4,7.1,6.3,0,6.3-3.1,6-7.4,5.9-9.3-.2-18.6-.3-27.8,0-4.7.2-5.9-1.4-5.9-5.9,0-4.8,1.1-6.8,6.2-6.4,5,.4,10,0,15,0Z"/>
  <path class="st6" d="M771.2,456.6c-.6,1.4-1.3,2.7-1.7,4.2-1.4,5.2-4.5,5.8-8.3,2.8-8.1-6.4-17.2-10.9-26.6-15.2,1.5-1.5,3.8-.4,4.7-2.4,1.5,0,3.1,0,4.6,0,10.2.6,19.4,3.7,27.2,10.6Z"/>
  <path class="st2" d="M624.5,462.6c-1.1.5-3,.7-3.2,1.4-2.7,8.4-6.9,5.2-11.4,1.8-5.6-4.2-12-6.8-18.7-9.4.7-2.7,4-.2,4.5-2.6-4.9-1.3-9.3.2-13.5,2.6.4-4,3.1-4.4,6.4-4.6,7.5-.4,14.8.5,21.9,3.2,3.3,1.2,5.3,1.1,5-3.1,2.4,2,3.1,4.6,3,7.6-1,.1-1.9.2-2.9.4.1.3.3.6.4.9.8-.4,1.6-.9,2.5-1.3,2,1,4,2,6.1,3h0Z"/>
  <path class="st2" d="M722.7,518.5c-7-7.6-6.4-17.5-7.5-26.7-.6-5.2.2-10.5-1.6-15.6,3.6-4.9,2.3-11.1,4.2-16.4.8-2.3.6-5.1,3.4-6.2,0,.5,0,1,0,1.5.4,1.8-2.3,3.8-.3,5.2,1.4,1,2-1.7,3.3-2.1.5,7,4.3,13,6.1,19.6-4.4.4-9.4,3-12.3-4-1.6,8.5-2,16.1.2,23.6-1,7.6,4.2,13.8,4.5,21.1ZM719.6,468.4c.6-.8,1.3-1.4,1.3-1.9,0-.5-.6-1.1-1-1.6-.5.5-1.2.9-1.3,1.4,0,.5.5,1.2,1,2.1Z"/>
  <path class="st2" d="M598.8,335.7c.7,9.8-3.6,18.9-3.9,28.6,0,1.7-1.2,4.2-3.8,3.9-2.6-.3-2.7-2.6-2.8-4.6,0-2.3,0-4.5,0-6.8h0c1.5-1,1.5-2,0-3h0c0-8.1,4.6-13.5,10.6-18.1Z"/>
  <path class="st5" d="M764,897c.4-2.3.9-4.5,1.3-6.8,2.2,2.2.8,5,1.3,7.5,0,11.6,0,23.1-.1,34.7-.6,2.4,1,5.2-1.2,7.4-3.1-5.3-1.9-11.1-2-16.7-.1-8.7.4-17.4.7-26.1Z"/>
  <path class="st2" d="M601.8,430.9c3.2-.4,3.1-2.8,2.9-5.1-1.8-19.3-3.7-38.6-4.7-58,3.4,22.4,5.9,45,6.3,67.7-2-1.1-3.6-2.6-4.5-4.6Z"/>
  <path class="st5" d="M766.5,944c2.9,9.8,4.1,20,7.8,29.5-.1,1.5,0,3-1.6,3.9-4-10.8-7.4-21.6-7.4-33.3,0-.1.3-.4.6-.4.2,0,.4.2.7.3Z"/>
  <path class="st2" d="M879.9,663.6c-6.6-7-9.2-16-11.9-25,4.3,8.2,10.3,15.5,11.9,24.9,0,0,0,0,0,0Z"/>
  <path class="st5" d="M993.5,870.2c1,1,2.1,2,3.1,3,2.9,5.3,6.2,10.5,7.8,16.5-.6.8-1.3,1.7-1.9,2.5-1.8-7.8-8.1-13.8-9-22Z"/>
  <path class="st2" d="M586.7,358.3c-2.4,9.6-.8,19.2,0,28.8-3.7-9.6-5.5-19.2,0-28.8Z"/>
  <path class="st6" d="M665.3,403.7c-2-8-4-16.1-6-24.1,6.2,7,6.1,15.6,6,24.1Z"/>
  <path class="st2" d="M813.4,527.6c-5.9-6.1-3.4-14-4.5-21.1,5.5,6.2,1.6,14.4,4.5,21.1Z"/>
  <path class="st2" d="M833.1,563.8c1.8,2.9,1.6,7.3,6.1,8.3,0,2.3,0,4.5,0,6.8-4.6-4-6.8-9.2-7.6-15.1.5,0,1,0,1.6,0Z"/>
  <path class="st2" d="M804.3,498.9c-5.1-3.1-8.3-7.6-9.1-13.6,4.1,3.8,7.2,8.3,9.1,13.6Z"/>
  <path class="st2" d="M804.3,714.9c-3.5-4.5-6.3-9.2-6-15.1,3.4,4.5,6.3,9.2,6,15.1Z"/>
  <path class="st2" d="M589.7,396.2c2.8,4.7,4.5,9.6,4.5,15.1-3.8-4.3-4.7-9.6-4.5-15.1Z"/>
  <path class="st2" d="M861.7,625.8c-3.9-3.1-5.7-7.2-6-12.1h0c3.9,3,5.7,7.2,6,12h0Z"/>
  <path class="st2" d="M923.7,755.7c-3.2-2.8-6.2-5.7-4.5-10.6,2.7,3,4.5,6.4,4.5,10.6Z"/>
  <path class="st2" d="M612.4,334.2c-4,0-8.1,0-12.1,0,4-5.3,8.1-3.3,12.1,0Z"/>
  <path class="st6" d="M669.5,735.2c-1.8-1.6-1.4-4.8-4.2-5.6,0-1.9,0-3.7,0-5.6,0,0,0,0,0,0,5,2.4,4.9,6.7,4.2,11.2Z"/>
  <path class="st2" d="M743.9,446c-1.5,0-3.1,0-4.6,0-4,0-8.1,0-12.1,0,5.5-2.6,11.1-2.5,16.7,0Z"/>
  <path class="st2" d="M848.2,601.6c-1-3-2-6-3-9.1,4,3,5.7,7.2,6.1,12.1,0,0,0,0,0,0-1-1-2-2-3-3Z"/>
  <path class="st6" d="M727.3,884.1c3.5,2,4.5,5.3,4.5,9-3.5-2-4.5-5.3-4.5-9Z"/>
  <path class="st2" d="M943.6,801.7c-1.2-3.2-3.7-6-3.3-9.8,3.4,2,4.4,5.3,4.6,8.9-.4.3-.9.6-1.3.9Z"/>
  <path class="st2" d="M808.9,722.4c-4.2-.9-4.4-4.2-4.5-7.6,3,1.6,4,4.5,4.5,7.6Z"/>
  <path class="st6" d="M684.9,773.8c-2.9-2.4-3.1-5.7-3-9,0,0,0,0,0,0,1,1,2,2,3,3,0,0,0,0,0,0,0,2,0,4,0,6h0Z"/>
  <path class="st6" d="M657.7,702.8c-3.4-1.6-3-4.6-3-7.6,0,0,0,0,0,0,1.9,1.6,2.7,3.7,3,6.1,0,.5,0,1,0,1.5h0Z"/>
  <path class="st6" d="M665.3,724c-2.3-2-3.1-4.6-3-7.6,0,0,0,0,0,0,3.4,1.5,3,4.6,3,7.6h0Z"/>
  <path class="st6" d="M662.3,716.4c-2.3-2-3.1-4.6-3-7.6h0c3.4,1.5,3,4.6,3,7.5h0Z"/>
  <path class="st6" d="M678.9,758.7c-2.3-2-3.1-4.6-3-7.6,0,0,0,0,0,0,3.4,1.5,3,4.6,3,7.5h0Z"/>
  <path class="st6" d="M651.7,689.2c-2.3-2-3.1-4.6-3-7.6,0,0,0,0,0,0,3.4,1.6,3,4.6,3,7.6h0Z"/>
  <path class="st6" d="M675.9,751.1c-2.3-2-3.1-4.6-3-7.6,0,0,0,0,0,0,3.4,1.5,3,4.6,3,7.6h0Z"/>
  <path class="st6" d="M669.5,740.4c.1-1.5.3-2.9.4-4.4,3.4,1.6,3,4.6,3,7.6,0,0,0,0,0,0-1.1-1.1-2.2-2.1-3.4-3.2Z"/>
  <path class="st2" d="M816.4,533.6c-2.7-1.2-3.2-3.4-3-6,2.7,1.2,3.2,3.4,3,6Z"/>
  <path class="st2" d="M813.4,734.5c-2.7-1.2-3.2-3.4-3-6,2.7,1.2,3.1,3.5,3,6Z"/>
  <path class="st6" d="M681.9,764.7c-2.7-1.2-3.1-3.5-3-6,0,0,0,0,0,0,2.7,1.2,3.1,3.5,3,6h0Z"/>
  <path class="st2" d="M807.4,504.9c-2.7-1.2-3.2-3.5-3-6,2.7,1.2,3.2,3.4,3,6Z"/>
  <path class="st6" d="M654.7,695.3c-2.7-1.2-3.1-3.5-3-6,0,0,0,0,0,0,2.7,1.2,3.1,3.5,3,6h0Z"/>
  <path class="st2" d="M817.9,745.1c-2.7-1.2-3.2-3.5-3-6,2.7,1.2,3.1,3.5,3,6Z"/>
  <path class="st6" d="M783.2,470.2c-2.7-1.2-3.2-3.5-3-6.1,2.6,1.2,3.2,3.5,3,6.1Z"/>
  <path class="st2" d="M579.2,468.7c-.5-.5-1-1-1.5-1.5.2-2.1-.6-4.4,1.5-6,0,2.5,0,5,0,7.6Z"/>
  <path class="st6" d="M786.2,474.7c-1-1.5-2-3-3-4.5,2.2,0,3.6,1,4.5,3-.5.5-1,1-1.5,1.5Z"/>
  <path class="st2" d="M795.3,485.3c-3-.2-3.1-2.3-3-4.5,2,.9,3,2.4,3,4.5Z"/>
  <path class="st2" d="M594.3,411.3c2.1,1.6,1.4,4,1.5,6.1-2.1-1.6-1.4-4-1.5-6.1Z"/>
  <path class="st2" d="M603.3,553.3c2.1,1.6,1.4,3.9,1.5,6.1-2.1-1.6-1.4-4-1.5-6.1Z"/>
  <path class="st2" d="M938.8,785.9c-3-.2-3.1-2.3-3-4.5,1,1.5,2,3,3,4.5Z"/>
  <path class="st6" d="M580.7,514c2.1,1.6,1.3,3.9,1.5,6-2.1-1.6-1.3-3.9-1.5-6Z"/>
  <path class="st6" d="M659.2,708.8c-2.1-1.6-1.3-3.9-1.5-6,0,0,0,0,0,0,2.1,1.6,1.3,3.9,1.5,6h0Z"/>
  <path class="st2" d="M814.9,739c-1.7-1.1-1.5-2.9-1.5-4.5,1.7,1.1,1.5,2.9,1.5,4.5Z"/>
  <path class="st2" d="M583.7,523c1.7,1.1,1.5,2.9,1.5,4.5-1.7-1.1-1.5-2.9-1.5-4.5Z"/>
  <path class="st2" d="M810.4,728.5c-1.7-1.1-1.5-2.9-1.5-4.6,1.7,1.1,1.5,2.9,1.5,4.6Z"/>
  <path class="st2" d="M588.2,391.6c1.7,1.1,1.5,2.9,1.5,4.6-1.7-1.1-1.5-2.9-1.5-4.6Z"/>
  <path class="st2" d="M786.2,474.7c.5-.5,1-1,1.5-1.5.5,1,1,2,1.5,3-1.3,0-2.4-.3-3-1.5Z"/>
  <path class="st2" d="M600.3,545.7c1.7,1.1,1.5,2.9,1.5,4.5-1.7-1.1-1.5-2.9-1.5-4.5Z"/>
  <path class="st2" d="M940.4,791.9c-1.7-1.1-1.5-2.9-1.5-4.6,1.7,1.1,1.5,2.9,1.5,4.6Z"/>
  <path class="st2" d="M586.7,387.1c1.7,1.1,1.5,2.9,1.5,4.6-1.7-1.1-1.5-2.9-1.5-4.6Z"/>
  <path class="st6" d="M731.8,893.1c1.7,1.1,1.5,2.8,1.5,4.5-1.7-1.1-1.5-2.8-1.5-4.5Z"/>
  <path class="st2" d="M931.3,772.3c-1.7-1.1-1.5-2.9-1.5-4.6,1.7,1.1,1.5,2.9,1.5,4.6Z"/>
  <path class="st2" d="M845.1,592.5c-1.7-1.1-1.5-2.9-1.5-4.5,1.7,1.1,1.5,2.9,1.5,4.5Z"/>
  <path class="st2" d="M610.9,441.5c1.7,1.1,1.5,2.9,1.5,4.5-1.7-1.1-1.5-2.9-1.5-4.5Z"/>
  <path class="st2" d="M819.5,749.6c-1.7-1.1-1.5-2.9-1.5-4.5,1.7,1.1,1.5,2.9,1.5,4.5Z"/>
  <path class="st2" d="M597.3,420.3c1.7,1.1,1.5,2.9,1.5,4.5-1.7-1.1-1.5-2.9-1.5-4.5Z"/>
  <path class="st2" d="M864.8,631.8c.4.8.9,1.7,1.3,2.5-.3.2-.6.3-.9.5-.1-1-.3-1.9-.4-2.9,0,0,0,0,0,0Z"/>
  <path class="st2" d="M588.2,356.9c-.5,0-1,0-1.5,0,0-1.3.3-2.4,1.5-3.1,0,0,0,0,0,0,0,1,0,2,0,3,0,0,0,0,0,0Z"/>
  <path class="st6" d="M653.2,369c-1.2-.7-1.5-1.8-1.5-3,1.1.7,1.5,1.8,1.5,3Z"/>
  <path class="st6" d="M656.2,373.5c-1.2-.7-1.5-1.8-1.5-3,1.2.7,1.5,1.8,1.5,3Z"/>
  <path class="st6" d="M657.7,376.5c-1.2-.7-1.5-1.8-1.5-3,1.2.7,1.5,1.8,1.5,3Z"/>
  <path class="st6" d="M659.3,379.6c-1.2-.7-1.5-1.8-1.5-3,1.2.7,1.5,1.8,1.5,3Z"/>
  <path class="st2" d="M932.8,775.3c-1.2-.7-1.5-1.8-1.5-3,1.2.7,1.5,1.8,1.5,3Z"/>
  <path class="st2" d="M934.3,778.3c-1.2-.7-1.5-1.8-1.5-3,1.2.7,1.5,1.8,1.5,3Z"/>
  <path class="st2" d="M935.8,781.3c-1.2-.7-1.5-1.8-1.5-3,1.2.7,1.5,1.8,1.5,3Z"/>
  <path class="st2" d="M881.4,666.5c1.2.7,1.5,1.8,1.5,3,0,0,0,0,0,0-1.2-.7-1.5-1.8-1.5-3h0Z"/>
  <path class="st2" d="M881.4,666.6c-1.2-.7-1.5-1.8-1.5-3,0,0,0,0,0,0,1.2.7,1.5,1.8,1.5,3,0,0,0,0,0,0Z"/>
  <path class="st2" d="M863.3,628.8c1.2.7,1.5,1.8,1.5,3,0,0,0,0,0,0-1.2-.7-1.5-1.8-1.5-3,0,0,0,0,0,0Z"/>
  <path class="st2" d="M861.8,625.7c1.2.7,1.5,1.8,1.5,3,0,0,0,0,0,0-1.2-.7-1.5-1.8-1.5-3,0,0,0,0,0,0Z"/>
  <path class="st2" d="M855.7,613.7c-1.2-.7-1.5-1.8-1.5-3h0c1.2.6,1.5,1.7,1.5,3,0,0,0,0,0,0Z"/>
  <path class="st2" d="M854.2,610.7c-1.2-.7-1.5-1.8-1.5-3h0c1.2.6,1.5,1.7,1.5,3,0,0,0,0,0,0Z"/>
  <path class="st2" d="M852.7,607.7c-1.2-.7-1.5-1.8-1.5-3,0,0,0,0,0,0,1.2.7,1.5,1.8,1.5,3,0,0,0,0,0,0Z"/>
  <path class="st6" d="M722.7,875c1.2.7,1.5,1.8,1.5,3-1.2-.7-1.5-1.8-1.5-3Z"/>
  <path class="st6" d="M724.3,878c1.2.7,1.5,1.8,1.5,3-1.2-.7-1.5-1.8-1.5-3Z"/>
  <path class="st6" d="M668.3,408.2c-1.2-.7-1.5-1.7-1.5-3,1.2.7,1.5,1.8,1.5,3Z"/>
  <path class="st6" d="M725.8,881c1.2.7,1.5,1.8,1.5,3-1.2-.7-1.5-1.8-1.5-3Z"/>
  <path class="st2" d="M582.2,520c1.2.7,1.5,1.8,1.5,3-1.2-.7-1.5-1.8-1.5-3Z"/>
  <path class="st2" d="M790.7,479.3c-1.2-.7-1.5-1.8-1.5-3,1.2.7,1.5,1.8,1.5,3Z"/>
  <path class="st2" d="M585.2,527.6c1.2.7,1.5,1.8,1.5,3-1.2-.7-1.5-1.8-1.5-3Z"/>
  <path class="st6" d="M671.3,412.8c-1.2-.7-1.5-1.8-1.5-3,1.2.7,1.5,1.8,1.5,3Z"/>
  <path class="st2" d="M672.9,415.8c-1.2-.7-1.5-1.8-1.5-3,1.2.7,1.5,1.8,1.5,3Z"/>
  <path class="st2" d="M588.2,532.1c1.2.7,1.5,1.8,1.5,3-1.2-.7-1.5-1.8-1.5-3Z"/>
  <path class="st2" d="M595.8,417.3c1.2.7,1.5,1.8,1.5,3-1.2-.7-1.5-1.8-1.5-3Z"/>
  <path class="st2" d="M817.9,536.6c-1.2-.7-1.5-1.8-1.5-3,1.2.7,1.5,1.8,1.5,3Z"/>
  <path class="st6" d="M734.8,899.2c.5.5,1,1,1.5,1.5,0,.5,0,1,0,1.5h0c-1.2-.6-1.5-1.8-1.5-3Z"/>
  <path class="st2" d="M591.3,536.6c1.2.7,1.5,1.8,1.5,3.1-1.2-.7-1.5-1.8-1.5-3.1Z"/>
  <path class="st2" d="M598.8,424.9c1.2.7,1.5,1.8,1.5,3-1.2-.7-1.5-1.8-1.5-3Z"/>
  <path class="st2" d="M819.4,539.7c-1.2-.7-1.5-1.8-1.5-3,1.2.7,1.5,1.8,1.5,3Z"/>
  <path class="st2" d="M821,542.7c-1.2-.7-1.5-1.8-1.5-3,1.2.7,1.5,1.8,1.5,3Z"/>
  <path class="st6" d="M736.4,902.2c.4.5.7,1,1.1,1.6-.2.1-.4.2-.5.4-.2-.6-.4-1.2-.6-1.9,0,0,0,0,0,0Z"/>
  <path class="st2" d="M843.6,588c-1.2-.7-1.5-1.8-1.5-3,1.2.7,1.5,1.8,1.5,3Z"/>
  <path class="st2" d="M600.3,427.9c1.2.7,1.5,1.8,1.5,3-1.2-.7-1.5-1.8-1.5-3Z"/>
  <path class="st2" d="M822.5,545.7c-1.2-.7-1.5-1.8-1.5-3,1.2.7,1.5,1.8,1.5,3Z"/>
  <path class="st2" d="M842.1,585c-1.2-.7-1.5-1.8-1.5-3,1.2.7,1.5,1.8,1.5,3Z"/>
  <path class="st2" d="M580.7,458.1c0,1.2-.3,2.4-1.5,3,0-1.2.3-2.4,1.5-3Z"/>
  <path class="st2" d="M840.6,582c-1.2-.7-1.5-1.8-1.5-3,1.2.7,1.5,1.8,1.5,3Z"/>
  <path class="st2" d="M609.4,438.5c1.2.7,1.5,1.8,1.5,3-1.2-.7-1.5-1.8-1.5-3Z"/>
  <path class="st2" d="M824,548.7c-1.2-.7-1.5-1.8-1.5-3,1.2.7,1.5,1.8,1.5,3Z"/>
  <path class="st2" d="M825.5,551.7c-1.2-.7-1.5-1.8-1.5-3,1.2.7,1.5,1.8,1.5,3Z"/>
  <path class="st2" d="M601.8,550.2c1.2.7,1.5,1.8,1.5,3-1.2-.7-1.5-1.8-1.5-3Z"/>
  <path class="st2" d="M827,554.8c-1.2-.7-1.5-1.8-1.5-3,1.2.7,1.5,1.8,1.5,3Z"/>
  <path class="st2" d="M828.5,557.8c-1.2-.7-1.5-1.8-1.5-3,1.2.7,1.5,1.8,1.5,3Z"/>
  <path class="st2" d="M830,560.8c-1.2-.7-1.5-1.8-1.5-3,1.2.7,1.5,1.8,1.5,3Z"/>
  <path class="st2" d="M831.5,563.8c-1.2-.7-1.5-1.8-1.5-3,1.2.7,1.5,1.8,1.5,3Z"/>
  <path class="st6" d="M743.9,918.8c.4.5.7,1,1.1,1.6-.2.1-.4.2-.5.4-.2-.6-.4-1.3-.6-1.9,0,0,0,0,0,0Z"/>
  <path class="st6" d="M742.4,915.7c1.2.7,1.5,1.8,1.5,3,0,0,0,0,0,0-1.2-.7-1.5-1.8-1.5-3h0Z"/>
  <path class="st2" d="M722.7,450.5c0,1.2-.3,2.4-1.5,3,0-1.3.3-2.4,1.5-3Z"/>
  <path class="st2" d="M613.9,449c1.2.7,1.5,1.8,1.5,3-1.2-.7-1.5-1.8-1.5-3Z"/>
  <path class="st2" d="M612.4,446c1.2.7,1.5,1.8,1.5,3-1.2-.7-1.5-1.8-1.5-3Z"/>
  <path class="st6" d="M742.4,915.8c-1.2-.7-1.5-1.8-1.5-3h0c1.2.6,1.5,1.7,1.5,3,0,0,0,0,0,0Z"/>
  <path class="st6" d="M740.8,912.8c-.4-.5-.7-1-1.1-1.6.2-.1.4-.2.5-.4.2.6.4,1.2.6,1.9,0,0,0,0,0,0Z"/>
  <path class="st2" d="M724.3,449c-.5.5-1.1,1-1.6,1.5.5-.5,1.1-1,1.6-1.5Z"/>
  <path class="st2" d="M582.2,456.6c-.5.5-1,1-1.5,1.5.5-.5,1-1,1.5-1.5Z"/>
  <path class="st2" d="M598.7,544.2c.5.5,1.1,1,1.6,1.5-.5-.5-1.1-1-1.6-1.5Z"/>
  <path class="st2" d="M607.8,436.9c.5.5,1.1,1,1.6,1.5-.5-.5-1.1-1-1.6-1.5Z"/>
  <path class="st2" d="M589.7,535.1c.5.5,1,1,1.5,1.5-.5-.5-1-1-1.5-1.5Z"/>
  <path class="st2" d="M713.7,476.2c-.2-.4-.4-.7-.6-1.1,0,0,.3-.3.5-.4,0,.5,0,1,0,1.5Z"/>
  <path class="st2" d="M586.7,530.6c.5.5,1,1,1.5,1.5-.5-.5-1-1-1.5-1.5Z"/>
  <path class="st6" d="M669.8,409.8c-.5-.5-1-1-1.5-1.5.5.5,1,1,1.5,1.5Z"/>
  <path class="st6" d="M733.3,897.7c.5.5,1,1,1.5,1.5-.5-.5-1-1-1.5-1.5Z"/>
  <path class="st6" d="M666.8,405.2c-.5-.5-1-1-1.5-1.5.5.5,1,1,1.5,1.5Z"/>
  <path class="st2" d="M808.9,506.4c-.5-.5-1-1-1.5-1.5.5.5,1,1,1.5,1.5Z"/>
  <path class="st2" d="M792.2,480.8c-.5-.5-1-1-1.5-1.5.5.5,1,1,1.5,1.5Z"/>
  <path class="st2" d="M928.2,763.2c-.5-.5-1-1.1-1.5-1.6.5.5,1,1.1,1.5,1.6Z"/>
  <path class="st2" d="M917.7,740.6c-.5-.5-1-1-1.5-1.5.5.5,1,1,1.5,1.5Z"/>
  <path class="st2" d="M926.7,760.2c-.5-.5-1-1.1-1.5-1.6.5.5,1,1.1,1.5,1.6Z"/>
  <path class="st6" d="M654.7,370.5c-.5-.5-1-1-1.5-1.5.5.5,1,1,1.5,1.5Z"/>
  <path class="st6" d="M650.2,364.4c-.5-.5-1.1-1-1.6-1.5.5.5,1.1,1,1.6,1.5Z"/>
  <path class="st2" d="M925.2,757.2c-.5-.5-1-1-1.5-1.5.5.5,1,1,1.5,1.5Z"/>
  <path class="st2" d="M600.3,334.2c-.5.5-1,1-1.5,1.5.5-.5,1-1,1.5-1.5Z"/>
  <path class="st10" d="M944.8,1003.3c11.2,1.4,22.4,1.4,34.3-3.3-2.2,9.1-3.9,17.3-6.2,25.3-1.8,6.1,0,7.3,5.7,5.5,3.1-1,6.3-1.5,9.5-2.2.2.2.5.5.7.7-1.5,2.4-2.7,5-.7,7.6,1.5,1.8,3.6,3,5.9,2,2.1-.9,3.8-2.6,3.6-5.2-.3-4.2-3.1-5.3-6.8-5.2-.3-.4-.6-.7-.9-1.1,14.5-10.1,21.5-26.1,31.4-40.9,7.9,11.6,19.4,17.3,31.1,22.5,2.2,1,5,3.8,6.3-1.1.3-.5.6-1,.9-1.5,0,0,0,0,0,0,5.3-.3,9,4.2,14,4.7-.4,2.9-1.1,5.8,2.2,7.8,3.4,2.1,5.5-.1,7.7-2,2.1.4,4.3-.4,6.1,1.8,5,5.7,11.2,9.1,19.1,9.2,2,0,2.2,1.6,2.4,3.1-3.7,1.1-5.4,3.5-4.2,7.3.7,2.4,2.7,3.7,5.2,3.6,4.2-.2,5.3-3.1,5.3-6.8,11.5,3.1,23.3,6.4,32.6,13.4,9,6.8,18.2,10.2,29,10.7-1.2,32.2-3.7,64.2-13.5,95.2-2.6-3.2-6.3-4.7-9.8-6.4.7-7.7-1.6-9.5-8.8-6.8-4.2-4.1-10.3-2.3-15.1-5.1-9.3-5.3-18.9-10.1-28.4-15.1,1.7-2.3,4.4-4.3,2.1-7.7-1.2-1.7-2.6-2.9-4.8-2.7-3.8.2-4.7,2.9-5.1,6-8.6-7.4-19.6-8.8-29.8-12.2.7-3.8,1.5-8-3.7-8.7-5.2-.7-5.9,3.3-5.7,7.3-.8-3.9-3.4-5.7-6.8-7.8-8.1-4.9-18.6-5.8-24.5-14.7-1-1.6-4.1-2.9-5.9-2.7-6.9,1-12-2.9-17.4-5.8-3.6-1.9-7.1-3.6-11.1-4.1-7-15.2-15.9-29.3-26.6-42.2-1.9-2.3-4-4.5-3.5-7.9,1.7.5,3.4,1.6,5,1.4,3.1-.4,5-2.6,4.6-5.8-.3-2.8-2.1-4.5-5.1-4.5-3,0-4.8,1.4-5,4.4,0,1.5.3,3,.5,4.5-6.8-3.3-10.6-9.6-15.5-14.9ZM1145.2,1105.3c-1.4,1.4-5.4,0-4.9,4.5.4,3.4,1.6,5.9,5.3,6,3.2,0,5.1-1.7,5.2-5.1.1-3.5-1.9-4.9-5.6-5.4ZM1132.4,1059.3c-.4-2.5-1.7-4.5-5.1-4.6-3.3,0-5.3,1.5-5.5,4.7-.2,3.5,2,5.7,5.4,5.7,3.1,0,4.9-2.1,5.2-5.8ZM1014.5,1056.4c-.2-5.2-2.3-6.9-5.2-7.1-3.3-.2-4.9,2.5-4.9,5.3,0,3.1,1.9,5,5.2,5,3.3,0,5-1.7,4.9-3.2ZM1037.2,1035.1c-2.5.7-4.7,2.3-4.5,5.4.2,3.4,2.4,5.4,5.9,5.1,3.2-.3,4.6-2.5,4.4-5.7-.2-3.4-2.3-4.6-5.9-4.9ZM1072.5,1044.1c-2.6.1-5.1.2-4.9,3.9.2,3.6,1.5,6.5,5.5,6.6,3.3.1,4.8-1.8,4.8-5.2,0-3.8-1.8-5.4-5.5-5.3ZM1023.1,1015.3c2.8-.7,5-2,5.1-5.3,0-3.3-1.5-5.2-4.8-5.3-3.6-.1-5.7,1.9-5.7,5.3,0,3.1,2.3,4.7,5.4,5.3ZM1094.7,1080.2c3.2-.5,5.4-2.2,5.5-5.3,0-3-1.8-5.2-5.2-5.3-3.3,0-5.2,1.6-5.2,5,0,3.3,2,4.9,4.9,5.5ZM1168.4,1077.8c-.5-3-2-5-5.3-5.1-3.3,0-5.2,1.5-5.3,4.8-.2,3.7,2.1,5.7,5.4,5.7,3.1,0,4.7-2.3,5.2-5.4ZM1040.2,1076.1c3.4,0,5.2-2,5.2-5.1,0-3.6-2.5-5.3-6-5.4-3.5-.1-3.9,2.7-4.1,5.2-.3,3.3,1.3,5.2,4.8,5.4Z"/>
  <path class="st10" d="M1003.7,1124.2c4.2,12.1,3.7,24.9,6,37.3,1,5.1,1,10.3,1.5,15.5-.2,0-.5,0-.7,0-4.2-1-5.8,3.3-8.8,4.3-3.8,1.4-.8-6.9-5.9-4.6,1.8-2.8,3.3-5.6.1-8.6-1.6-1.5-3.4-2.1-5.4-1.1-3.6,1.8-3.8,4.8-2.7,8.2-3.1.5-6.4-.2-9.1,2.5-1.1,1.1-3.5,1.8-4.9-.4-2.3-3.7-2.4-4-5.9-1.8-2.1,1.3-4.4,2.5-6.1.9-4.1-3.6-4-3.9-8.2-1.8-1.4.7-2.9,1.5-4.1.3-3.5-3.5-3.4-3.6-7.4-1.9-1.8.8-3.2,1.6-5.2-.2-5.2-4.6-12.3-2.8-18.2-3.4-5.7-.5-12.3-5.2-18.2,0,0,0-.5-.1-.7-.3q-4.6-3.8-9-2c-.6,0-1.2,0-1.7,0-1-5-4.2-4.3-7.2-2.4-2.1,1.3-5.5,2.7-5.9,1.3-2.4-8.2-6.2-2.7-9.7-1.5-1,.4-2.1,1-3.1-.5-2-3.2-15.5-4.7-18-2.1-2,0-4.1,0-6.1-.1-.3-5.9-3.7-5-7.2-3-1.8,1-4.3,2.8-5,.7-2.2-6.7-5.1-3.1-8.3-1.3-1.6.9-4.6,1.8-4.9-.4-.8-5.9-3.8-3.3-6.1-1.9-2.1,1.4-4.3,2.4-6.2,1-3.5-2.9-3.3-3.1-7.2-1.5-1.6.7-3.6,1.3-4.9,0-3.6-3.5-3.5-3.7-7.5-1.9-1.6.7-4.5,1.6-4.5.3,0-7.1-3.9-3.6-6.4-2.6-6,2.4-11.8-5.6-17.7-.1-.2-.4-.6-.8-.7-1.2-1.2-5.1-4.3-3-6.8-1.6-2.6,1.5-4.8,3.5-5.6-1.5-.3-1.5-2-1.4-3.2-1.3-3.7.3-7.6,7-11.1-1.3-.9-2.3-4.8,2.4-7.7,2.8-1-8.8,1.3-16.7,8.2-22.3,8.9-7.3,13-16.3,11.7-27.7.2-.1.5-.3.5-.3-.1-.3-.3-.6-.5-.9,0-.6,0-1.1,0-1.7,3.1.6,8.8-1.1,9,1.2.6,6.5,2.8,2.7,4.9,1.5,2.6-1.4,6.7-2.1,7.1.7.8,4.7,1.6,3.4,3.9,1.2,1.5-1.4,21.3-.9,21.5.5,1,6.8,3.7,3.1,6.5,1.5,1.4-.8,4.4-1.1,4.8.5,1.5,5.9,3.9,3,6.8,1.3,2.1-1.2,4.8-1.6,6.9.4,1,.9-2.5,2.8.6,3.3,1.7.3,2.6-1.2,3.9-1.8,6.5-3.1,12.7,1.2,19.1.9.4,7.8,3.7,2.2,6.2,1.5,1.9-.6,4.8-1.6,5.2,2,.3,2.3,1.7,2.1,3.2,1.8q13.4-2.9,23.4,3c.6.3,1.5.2,2.2,0,5-1.2,4.8-.9,10,1.4,3.3,1.5,5.5-2.4,8.8-3,4.7-.8,1.2,6.3,5.5,4.6,3.6-1.4,7.6-7.5,10.3,1.5.6,1.8,4.9-2.1,7.7-3,5.3-1.6,2.2,5.4,5.5,4.6,3.8-.9,8.2-7.3,10.5,1.6,0,.2,1.8.2,2.1-.1,2.9-4.2,8.2-2.6,11.9-4.9,1.2,0,2.3,0,3.5-.1.7,1.8,2.3,1,3.5,1.5,6.4,2.4,14.2-.3,19.7,5.4-1,4.3,0,7.8,5,7.8,5.2,0,5.7-3.8,5-7.9,7.3-2.8,14.1,1.5,21.2,1.5ZM783.8,1139.1c-.2-3.4-2-5.4-5.2-5.4-3.2,0-5.1,2.3-5.2,5.4,0,3.2,1.8,5,5.2,5,3.6,0,4.8-2,5.1-5ZM812.5,1127.2c-2,.5-5,1.8-4.9,5.3,0,3.3,3.1,5.1,6.3,5.1,3.2,0,5.3-2.4,5.2-5.3,0-2.9-1.9-5.1-6.6-5.1ZM913.2,1146.8c3.3-.5,5.2-2.3,5.1-5.4,0-3.5-2.1-5.5-5.7-5.2-3.4.3-4.8,2.6-4.7,5.6.1,3.2,2.3,4.7,5.2,5.1ZM871,1132.1c-2.9.9-5.1,2.4-4.9,5.7.2,3.9,2.7,5.1,6.2,4.7,2.6-.3,4.8-1.4,4.5-4.7-.4-3.5-2.5-5.2-5.8-5.7ZM765.1,1117.2c-.2-3.2-2-5-5.2-5-3.2,0-5.3,1.9-5.4,5-.1,3.5,2.1,5.6,5.6,5.5,3.2,0,4.8-2.2,5-5.4ZM958.2,1155.9c-.8-2.9-2.5-4.8-5.8-4.7-3.5,0-4.9,2.1-4.7,5.4.2,3.4,2.4,5.1,5.4,5,3-.2,4.8-2.4,5.1-5.6ZM777.2,1104.9c1.6,1.2,3.1,2,4.2,0h-4.2ZM752.7,1102.3c.8.3,1.5.8,2,.7.9-.2,2.9.9,2.3-1-.3-.8-2.6-.8-4.2.4ZM930.3,1123.1c-2.1-.3-3.6-1-5.7.7,2,.3,3.6,1,5.7-.7ZM838.6,1113c2.2.6,3.7,1.4,4.7-.5-1.4-.5-2.8-.7-4.7.5ZM868.1,1115.9c-.8-.3-1.5-.8-2-.7-.8.2-2.9-.9-2.3,1,.3.8,2.7.8,4.2-.4ZM742.3,1101.6c.5-.2,1.1-.4,1.7-.7-.3-.3-.7-.7-1-.7-.7,0-1.7,0-1.9.3-.5.9.5.8,1.2,1.1ZM774.6,1100.6c-1.2-.2-1.8-.4-2.5-.4-.4,0-.8.4-1.2.6.6,1.1,1.5.8,2.4.7.3,0,.6-.4,1.3-.9ZM766.3,1104.1c.8.2,1.5.4,2.1.4.4,0,1.2-.5,1.2-.5-.4-1.1-1.4-.9-2.3-.8-.3,0-.6.5-1,.9ZM794.1,1106.6c-.8-.2-1.5-.4-2.2-.4-.4,0-1.2.4-1.2.5.3,1.2,1.3.9,2.2.8.3,0,.6-.5,1.2-.9ZM824.3,1106.6c-.8-.2-1.5-.4-2.2-.4-.4,0-1.2.4-1.2.5.3,1.2,1.4.9,2.2.8.3,0,.6-.5,1.2-.9ZM942,1124.6c-.8-.1-1.5-.4-2.1-.3-.5,0-1.8,0-.7,1.1.4.4,1.3.2,2,.2.3,0,.5-.5.8-.9ZM914.8,1121c-.7.4-1.2.7-1.7,1,.4.2.8.6,1.2.6.6,0,1.3-.3,1.9-.5-.4-.3-.9-.7-1.4-1.1ZM902.6,1119.5c-.6.4-1.1.7-1.6,1,.4.2.8.6,1.2.6.7,0,1.3-.3,1.9-.5-.5-.3-.9-.7-1.5-1.1ZM892.1,1118.6c-.8-.1-1.5-.4-2.1-.3-.5,0-1.8,0-.7,1.1.4.4,1.3.2,2,.2.3,0,.5-.5.8-.9ZM878.5,1116.5c-.7.4-1.2.7-1.7,1,.4.2.8.6,1.2.6.7,0,1.3-.3,1.9-.5-.4-.3-.9-.7-1.4-1.1ZM806.7,1108.2c-1.4-.3-2-.6-2.7-.6-.4,0-.8.3-1.2.5.5.3.9.8,1.4.8.6,0,1.2-.3,2.5-.8ZM854.1,1115.2c.5-.2,1.1-.5,1.7-.7-.3-.3-.7-.7-1-.7-.7,0-1.7,0-1.9.3-.5.9.5.8,1.2,1.1ZM857,1111.7c.8.2,1.5.4,2.1.4.4,0,1.2-.5,1.2-.5-.4-1.2-1.4-.9-2.3-.8-.3,0-.6.5-1,.9ZM828.5,1110.4c-.6.4-1.1.7-1.6,1,.4.2.8.6,1.2.6.7,0,1.3-.3,1.9-.5-.5-.3-.9-.7-1.5-1.1ZM818.8,1109.8c-1.4-.3-2-.6-2.7-.6-.4,0-.8.3-1.2.5.5.3.9.8,1.4.8.6,0,1.2-.3,2.5-.8ZM943.9,1122c-.4,0-.7,0-1.1,0,.2.1.3.4.5.4.2,0,.4-.2.6-.3Z"/>
  <path class="st9" d="M972.4,1122.8c-5.5-5.6-13.3-3-19.7-5.4-1.2-.4-2.8.3-3.5-1.5,3-1.7,4.2-4.2,2.9-7.5-.8-2.1-2.7-3-4.8-3-2.1,0-3.8,1.1-4.7,3.1-1.7,3.6.8,5.5,3.1,7.5-3.6,2.3-8.9.7-11.9,4.9-.3.4-2,.3-2.1.1-2.3-8.9-6.7-2.5-10.5-1.6-3.4.8-.2-6.2-5.5-4.6-2.8.8-7.2,4.7-7.7,3-2.8-8.9-6.7-2.9-10.3-1.5-4.3,1.7-.8-5.3-5.5-4.6-3.3.6-5.5,4.5-8.8,3-5.2-2.4-5-2.6-10-1.4-.7.2-1.6.3-2.2,0q-10-5.9-23.4-3c-1.5.3-2.9.5-3.2-1.8-.5-3.6-3.3-2.5-5.2-2-2.5.7-5.8,6.3-6.2-1.5-6.4.4-12.6-3.9-19.1-.9-1.3.6-2.3,2.1-3.9,1.8-3.1-.5.3-2.4-.6-3.3-2.2-2-4.8-1.6-6.9-.4-2.9,1.7-5.3,4.5-6.8-1.3-.4-1.6-3.3-1.3-4.8-.5-2.8,1.6-5.5,5.3-6.5-1.5-.2-1.4-20-1.9-21.5-.5-2.3,2.1-3.1,3.5-3.9-1.2-.5-2.8-4.5-2.1-7.1-.7-2.1,1.2-4.3,5-4.9-1.5-.2-2.3-5.9-.6-9-1.2-.4-14.8-1.7-29.8,8.8-42.4,2.5,1.3,1.6,7.2,3.4,5.8,4.8-3.8,9.7-2,14.6-2.6.7.9,1.6,1.6,1,3-1.7.3-3.6-.6-5.3.8,2.2,1.4,3.7.2,5.3-.8,1.4-2.1,3.5-.1,5.1-.8.8,4.4,2.7,3.9,6.3,2.4,6.3-2.5,12.4,3.9,19,1.2,0,0,.2.4.3.6,1.8,3.6,4.1,2.9,6.6.7,1.5-1.2,3.8-1.9,4.7-.2,4.3,7.8,6.9.7,10.1-1,2.5.4,5,.5,7.3-.6.8,1.5,2.1,2,3.7,2.1,8.8.4,17.4,2.5,25.9,4,5.3.9,14.1-2.7,17.3,6,.1.4,2.3.7,2.7.2,6.2-5.7,8.2.4,11.2,3.8-1.5,2.7-2.8,5.4-.1,8,1.6,1.6,3.6,2.6,6,1.5,3.7-1.7,3.3-5,2.9-8.2,4-1.6,7.1-5.2,12.1-4.5,8.4,1.2,17,1.2,25.2,3,9.6,2.1,19.6-.3,29,2.8,2,5.8,5.8,5.2,10,2.5,6.9.1,13.8.2,20.7.4,6.1,13.5,10,27.6,11.6,42.3-7.1,0-13.9-4.3-21.2-1.5-3.4-3.1-6.7-3.2-10,.1ZM793.3,1084.7c-2.6.3-5.3,2.1-5.4,5.2-.1,4,3.9,4.9,6.8,5.1,2.4,0,5.3-1.1,4.9-4.9-.4-3.5-2-5.4-6.4-5.4ZM830.8,1101.6c3.2.5,5-1.8,4.7-4.6-.4-3.1-1.8-6.1-6.2-6-3.7.1-4.7,2.5-4.7,5.2,0,3.4,2.3,5.3,6.2,5.3ZM925.6,1084.7c-4.2,0-5.9,2.4-5.9,5.3,0,3.1,2.3,5.2,5.5,5,3.1-.1,5.1-2.1,5-5.4-.1-3.3-2-4.9-4.6-4.9ZM750.9,1075.6c-2.8.3-4.4,2-4.3,5.4.1,3.4,2.4,5.1,5.1,6.5,1-2.6,5.5-2.2,5.1-6.3-.3-3.6-1.8-5.5-5.9-5.6ZM861.4,1089.5c-3.2.5-5.2,2.4-5.1,5.5,0,3.1,2,5.1,5.4,5,3.5,0,4.9-2,4.8-5.3,0-3.4-1.9-5-5.1-5.2ZM804.1,1067.9c.8.2,1.5.4,2.1.4.4,0,1.2-.5,1.2-.5-.4-1.1-1.4-.9-2.3-.7-.3,0-.6.5-1,.9ZM819.7,1068.8c-.8-.2-1.5-.4-2.1-.4-.4,0-1.2.5-1.2.5.4,1.1,1.4.9,2.3.7.3,0,.6-.5,1-.9ZM904.2,1078.7c-.7.4-1.2.7-1.7,1,.4.2.8.6,1.2.6.6,0,1.3-.3,1.9-.5-.4-.3-.9-.7-1.4-1.1Z"/>
  <path class="st0" d="M1103.3,1121.1c9.5,5,19.1,9.8,28.4,15.1,4.8,2.7,10.9,1,15.1,5.1-1.7,3.5-1.7,6.7,2.1,9,.9,1.3,1.9,1.4,3,.2,1.3-.8,2.5-1.6,3.8-2.3,3.6,1.7,7.2,3.2,9.8,6.4-2.5,11.5-7.3,21.7-15.8,30.1-1.2,1.2-2.7,2.3-3.7,3.7-8.3,11.2-17.9,15.4-30.4,6.3-1.3-.9-3.4-.6-5.1-.9-1.8-2.3-4.1-3.3-7-3.2-6.2-5-10.8-13.4-18.4-14.7-17.4-2.8-31.3-12.7-46.8-19.4-3.1-1.4-6-2.8-7.8-6.5-1.8-3.5-6.8-6.3-10.1-5.3-8.1,2.5-9.6-2.6-10.2-7.8-2.4-19.2-7.6-37.7-13.8-56-1.5-4.5-3.8-8.6-5.9-12.8,4.1.4,7.5,2.2,11.1,4.1,5.4,2.9,10.5,6.8,17.4,5.8,1.9-.3,4.9,1.1,5.9,2.7,5.9,8.9,16.4,9.8,24.5,14.7,3.4,2.1,6,3.9,6.8,7.8,2.4,5.3,6,3.1,9.5,1.4,10.2,3.3,21.2,4.8,29.8,12.2,1,4.3,4,5,7.8,4.4ZM1137.5,1177.3c-.2-3-1.7-5-5-5.2-3.3-.2-5.1,1.7-5.3,4.9-.2,3.3,1.8,5.2,4.9,5.4,3.2.2,4.9-1.8,5.4-5.1ZM1075.1,1151.3c2.6-.8,4.7-2.1,4.5-5.6-.2-3.4-1.9-5.1-5.2-5-3.4,0-5,2.5-5,5.4,0,3.3,2.5,4.6,5.7,5.2ZM1112.9,1156.1c3.5,0,5.1-2.2,5.1-5.2,0-3.1-2.1-5.2-5.3-5.2-3.2,0-4.9,2-4.9,5.4,0,3.4,1.7,5.1,5.1,5.1ZM1018.9,1092.5c-2.7-.3-4.7.1-4.8,3.7,0,3.6,1.4,5.9,4.9,6.2,3.1.3,5.5-1.6,5.5-4.8,0-3.1-1.6-5.7-5.7-5.1ZM1037.3,1137.6c4.5.4,5.3-2.4,5.7-5,.4-3.2-1.3-5.1-4.6-5.3-3.3-.2-5.3,1.7-5.6,4.6-.3,3.5,2,5.3,4.5,5.7Z"/>
  <path class="st7" d="M961.3,1078.9c-9.4-3.1-19.4-.7-29-2.8-8.2-1.8-16.8-1.8-25.2-3-5.1-.7-8.2,2.9-12.1,4.5-2.7-2.2-5.6-2.2-8.8-1.3-3-3.4-5-9.6-11.2-3.8-.5.4-2.6.2-2.7-.2-3.2-8.8-12-5.1-17.3-6-8.5-1.5-17.1-3.5-25.9-4-1.6,0-2.9-.6-3.7-2.1,1.3-3.1,2.3-6.1-1.3-8.5-2.2-1.4-4.3-1.2-6.1.5-2.9,2.8-1.8,5.8,0,8.7-3.2,1.7-5.7,8.8-10.1,1-.9-1.6-3.2-1-4.7.2-2.5,2.1-4.8,2.9-6.6-.7-.1-.2-.3-.6-.3-.6-6.6,2.7-12.7-3.7-19-1.2-3.6,1.4-5.6,2-6.3-2.4,3.2-1.8,5.1-4.2,3.2-7.9-1.3-2.5-3.6-3.4-6.3-2.4-3.9,1.5-3.8,4.7-3,8.1-4.9.6-9.8-1.2-14.6,2.6-1.8,1.4-1-4.5-3.4-5.8,7.8-14.5,17.8-27.1,31.4-36.5,8.2,4.7,17.1,3.1,25.9,3.5,2.1,6.6,5.9,7.2,10.9,3,8.7-2.4,17,1.3,25.5,1.5,1.8.9,3.7,1.5,5.8,1.2,9.6,2.1,19.5,2,29.3,3.8,3.9.7,8.1,1.9,12.1,1.8,11.7-.3,23,2.1,34.4,3.4,15.3,1.7,30.5,4.9,46,4.8,10.8,13.1,17.9,28.2,24,43.8-6.9-.1-13.8-.2-20.7-.4,1.1-3.5,2-7.2-2.7-8.4-4.6-1.2-6.9,1.4-7.3,5.9ZM880.1,1050.4c0-3.6-1.9-5.5-4.9-5.7-3.4-.2-5.7,2.1-5.6,5.5,0,3.2,2.3,5,5.4,5.1,3.2,0,5-1.8,5.2-4.9ZM937,1050.2c-2.9.3-4.5,2.3-4.4,5.4,0,3.2,2,5.2,5.2,5,3.5-.1,5.6-2.3,5.2-5.8-.3-3-2.4-4.8-6-4.6ZM899.5,1045c2.8-.6,4.7-2.2,4.6-5.5-.1-3.4-2.2-5.1-5.2-5-3.4,0-5.6,2.2-5.3,5.8.2,3.3,2.7,4.4,5.9,4.8Z"/>
  <path class="st0" d="M890.8,1167.2q4.4-1.9,9,2c.2.2.6.4.7.3,5.9-5.3,12.5-.6,18.2,0,5.9.6,13-1.2,18.2,3.4,2,1.8,3.4,1,5.2.2,3.9-1.7,3.9-1.6,7.4,1.9,1.2,1.2,2.7.4,4.1-.3,4.2-2.1,4.1-1.8,8.2,1.8,1.8,1.5,4,.4,6.1-.9,3.5-2.2,3.6-1.9,5.9,1.8,1.4,2.2,3.8,1.5,4.9.4,2.7-2.7,6-2,9.1-2.5.4.4.8.8,1.2,1.2-1.1,1-2.2,2-4,3.7,3.3-.4,6.1.8,6.8-2.9l4-.6c5.1-2.3,2.1,5.9,5.9,4.6,3.1-1.1,4.7-5.3,8.8-4.3.2,0,.5,0,.7,0,0,2.6,0,5.2,0,7.7-1.9.2-4-.7-7,1.4h7c0,2.5.3,5,.1,7.5-.2,2.6,3.7,6.1-1.1,7.6-3.7,1.1-7.9,7.3-11.7-.1-.7-1.3-2.1-1-3.3-.2-.8.6-2,1.8-2.3,1.6-5.7-3.6-13.4.8-18.4-3.9-4-3.7-5.6,1.3-8.4,1.3-.9-3.7-2.5-6.7-6.9-6-4.5.7-3.9,4.3-4,7.5-16.3-.2-32.3-3.7-48.5-5.1-17.9-1.6-35.6-4.7-53.5-7-16.8-2.2-33.7-4.1-50.6-6.2,1.1-4,3.2-8.7-2.8-10.2-4.9-1.2-6.4,2.3-6.4,6.7-12.7,2.4-24.9-1.8-37.3-2.9-8.9-.8-17.8-2.3-26.6-2.2-7.1.1-8.9-3.2-10.5-8.8-1-3.8-.7-7.5-.9-11.2.6-.3,1.3-.5,1.9-.8-.6-.2-1.3-.5-1.9-.7,0-2,0-4,0-6,2.9-.3,6.8-5,7.7-2.8,3.4,8.3,7.4,1.6,11.1,1.3,1.2,0,2.9-.3,3.2,1.3.9,5,3,3,5.6,1.5,2.4-1.4,5.6-3.5,6.8,1.6,0,.4.5.8.7,1.2,5.9-5.5,11.7,2.5,17.7.1,2.5-1,6.5-4.5,6.4,2.6,0,1.4,2.9.4,4.5-.3,4-1.8,3.9-1.6,7.5,1.9,1.3,1.3,3.3.7,4.9,0,3.9-1.6,3.7-1.4,7.2,1.5,1.8,1.5,4.1.4,6.2-1,2.2-1.5,5.3-4,6.1,1.9.3,2.2,3.3,1.3,4.9.4,3.2-1.8,6.1-5.4,8.3,1.3.7,2.1,3.2.4,5-.7,3.4-2,6.9-2.9,7.2,3-.5.6-1.1,1.1-1.6,1.7-1.4.4-3.2-.8-4.5,1.4,1.5.1,2.6.2,3.8.3,0,3.1.5,6,4.3,6.8,2.1.4,4.1-.4,5.2-2,2-2.9,1.1-5.6-1.1-8,2.6-2.6,16.1-1.1,18,2.1,1,1.6,2.1.9,3.1.5,3.5-1.3,7.3-6.7,9.7,1.5.4,1.4,3.9,0,5.9-1.3,3-2,6.2-2.6,7.2,2.4-2.9,1.3-5.2,3.1-4.3,6.7.6,2.4,2.3,4,4.7,4.1,3.5.1,5.3-2.1,6-5.3.9-.2,1.8-.4,2.7-.6-.5-1.6-1.9-.7-2.8-1-.9-1.9-2.5-3.1-4.5-3.8ZM759,1156c1-.1,2-.3,2.9-.4-.2-.3-.3-.6-.5-.9-.8.4-1.7.9-2.5,1.3-1.6,0-3.2-.3-4.5,1.1-3.4,1.8-6.8,3.6-3.4,8.2,2,2.7,4.6,3.5,7.6,1.5,4.3-2.9,3-6.1.3-9.3,0-.5,0-1,0-1.4ZM931.5,1186.1c0-3.9-2.3-5.3-5.3-5.1-2.4.2-5.8,0-5.1,4.5.6,3.3,1.8,5.8,5.5,5.7,3.2-.1,5-1.9,4.8-5.1ZM942,1180.9c-1.6-1.2-3.2-1.1-4.9-.1,1.6,1.2,3.2,1.1,4.9.1ZM775.8,1156.8c-1.6-1.2-3.2-1.1-4.9-.1,1.6,1.2,3.2,1.1,4.9.1ZM764.8,1159.7c.8.3,1.4.8,2,.6.8-.2,2.8.9,2.2-1-.2-.8-2.6-.8-4.2.4ZM869.2,1168.9c1.7.9,3.2,1.1,4.8-.2-1.7-.9-3.2-1.1-4.8.2ZM850.6,1170.2c2.2.9,3.7,1.3,5.2,0-1.5-.9-2.9-.7-5.2,0ZM794,1162.5c-.8-.2-1.5-.4-2.1-.4-.4,0-1.2.4-1.2.5.3,1.2,1.3.8,2.1.8.3,0,.6-.5,1.1-.9ZM866.2,1172.6c.5-.2,1.1-.4,1.7-.7-.3-.3-.7-.7-1-.7-.7,0-1.7,0-1.9.3-.5.9.5.8,1.2,1.1ZM858.5,1167.5c.8.2,1.5.4,2.1.4.4,0,1.2-.5,1.2-.5-.4-1.1-1.4-.8-2.3-.7-.3,0-.6.5-1,.9ZM828.5,1166.4c-.6.4-1.1.7-1.6,1,.4.2.8.6,1.2.5.6,0,1.3-.3,1.9-.5-.5-.3-.9-.7-1.5-1.1ZM818.2,1165.5c-.8-.2-1.5-.4-2.1-.4-.4,0-1.2.5-1.2.5.4,1.1,1.4.8,2.2.7.3,0,.6-.5,1-.9ZM880.2,1173.1c-.8-.2-1.5-.4-2.1-.4-.4,0-1.2.4-1.2.5.3,1.2,1.3.8,2.1.8.3,0,.6-.5,1.1-.9ZM802.6,1164.5c.8.2,1.5.4,2.1.4.4,0,1.2-.5,1.2-.5-.4-1.1-1.4-.8-2.2-.7-.3,0-.6.5-1,.9ZM824.2,1162.5c-.8-.2-1.5-.4-2.1-.4-.4,0-1.2.5-1.2.5.4,1.1,1.4.8,2.3.7.3,0,.6-.5,1-.9ZM910.6,1173.1c-1.1-.2-1.7-.4-2.4-.4-.4,0-.8.4-1.2.6.8.2,1.6.6,2.4.7.2,0,.6-.4,1.2-.8ZM812.8,1161.1c-1.4-.3-2-.5-2.7-.6-.4,0-.8.3-1.2.5.5.3.9.8,1.4.8.6,0,1.2-.3,2.5-.8ZM781.8,1160.9c-.8-.1-1.5-.4-2.1-.3-.5,0-1.8,0-.7,1.1.4.4,1.3.2,2,.2.2,0,.5-.5.8-.9ZM800.3,1159.5c-1.1-.2-1.7-.4-2.4-.4-.4,0-.8.4-1.2.6.8.2,1.6.6,2.4.7.2,0,.6-.4,1.2-.8ZM920.6,1175.6c.5-.2,1.1-.4,1.7-.7-.3-.3-.7-.7-1-.7-.7,0-1.7,0-1.9.3-.5.9.5.8,1.2,1.1ZM786.1,1159c.5-.2,1.1-.4,1.7-.7-.3-.3-.7-.7-1-.7-.7,0-1.7,0-1.9.3-.5.9.5.8,1.2,1.1ZM902.6,1175.4c-.6.4-1.1.7-1.6,1,.4.2.8.6,1.2.5.6,0,1.3-.3,1.9-.5-.5-.3-.9-.7-1.5-1ZM932.9,1175.4c-.6.4-1.2.7-1.7,1,.4.2.8.6,1.2.6.6,0,1.3-.3,1.9-.5-.4-.3-.9-.7-1.4-1.1ZM914.3,1178.7c.7-.3,1.4-.6,2-.8-.4-.2-.7-.7-1.1-.7-.7,0-1.3.2-2,.3.3.4.7.8,1.1,1.2ZM742.3,1157.5c.5-.2,1.1-.4,1.7-.7-.3-.3-.7-.7-1-.7-.7,0-1.7,0-1.9.3-.5.9.5.8,1.2,1.1ZM999,1188.7c.8.2,1.5.4,2.1.4.4,0,1.2-.5,1.2-.5-.4-1.1-1.4-.8-2.2-.7-.3,0-.6.5-1,.9ZM732.1,1154.9c-.8-.2-1.5-.4-2.1-.4-.4,0-1.2.4-1.2.5.3,1.2,1.3.8,2.1.8.3,0,.6-.5,1.1-.9ZM948.3,1177.6c-1.1-.2-1.7-.4-2.4-.4-.4,0-.8.4-1.2.6.8.2,1.6.6,2.4.7.2,0,.6-.4,1.2-.8ZM748.3,1154.5c.5-.2,1.1-.4,1.7-.7-.3-.3-.7-.7-1-.7-.7,0-1.7,0-1.9.3-.5.9.5.8,1.2,1.1ZM736.2,1153c.5-.2,1.1-.4,1.7-.7-.3-.3-.7-.7-1-.7-.7,0-1.7,0-1.9.3-.5.9.5.8,1.2,1.1ZM724.1,1151.4c.5-.2,1.1-.4,1.7-.7-.3-.3-.7-.7-1-.7-.7,0-1.7,0-1.9.3-.5.9.5.8,1.2,1.1ZM958.4,1180.1c.5-.2,1.1-.4,1.7-.7-.3-.3-.7-.7-1-.7-.7,0-1.7,0-1.9.3-.5.9.5.8,1.2,1.1ZM970.6,1179.9c-.6.4-1.1.7-1.6,1,.4.2.8.6,1.2.6.6,0,1.3-.3,1.9-.5-.5-.3-.9-.7-1.5-1.1ZM954.8,1182.3c-1.4-.3-2-.5-2.7-.6-.4,0-.8.3-1.2.5.5.3.9.8,1.4.8.6,0,1.2-.3,2.5-.8ZM984.6,1182.1c-1.1-.2-1.7-.4-2.4-.4-.4,0-.8.4-1.2.6.5,1.1,1.5.8,2.4.7.3,0,.6-.4,1.2-.9ZM966.5,1183.6c-1.1-.2-1.7-.4-2.4-.4-.4,0-.8.4-1.2.6.8.2,1.6.6,2.4.7.2,0,.6-.4,1.2-.8ZM996.5,1183.6c-.8-.2-1.5-.4-2.1-.4-.4,0-1.2.4-1.2.5.3,1.2,1.3.8,2.1.8.3,0,.6-.5,1.1-.9ZM976.6,1184.5c-.6.4-1.1.7-1.6,1,.4.2.8.6,1.2.5.6,0,1.3-.3,1.9-.5-.5-.3-.9-.7-1.5-1.1ZM988.7,1186c-.6.4-1.1.7-1.6,1,.4.2.8.6,1.2.5.6,0,1.3-.3,1.9-.5-.5-.3-.9-.7-1.5-1.1Z"/>
  <path class="st9" d="M1073.6,1011c-5-.5-8.7-5-14-4.7-.7-11.9-2.4-23.5-10.9-32.8-3.4-3.7-1-4.4,2.2-5.2,10.5-2.7,20.5-6.6,29.6-12.6.3,2,1.3,2.3,3.4,2.7,8.2,1.5,15,5.8,19.6,13.1-4.8,1.2-3.4,4.9-2.7,7.7.5,2.3,2.9,3.5,5.3,2.9,3.7-.9,5.2-3.5,4.5-7.3,6.7-2.8,12.5-.2,16.6,4.6,3.2,3.8,6.6,5.6,11.3,5.8,2.4,4.7,5.8,5.8,10.3,2.8,7.2,4.7,14.3,9.5,22.5,12.3,6,19.2,8.7,38.8,7.7,58.9-10.8-.5-20-3.9-29-10.7-9.3-7-21.1-10.3-32.6-13.4-1.1-2.8-3.6-3.6-6.2-4.2-.2-1.5-.5-3.1-2.4-3.1-7.8,0-14.1-3.5-19.1-9.2-1.8-2.1-4-1.3-6.1-1.8-.4-7.9-2.4-9.1-10-5.8ZM1068.9,979.9c3.4-.5,5.2-2.4,5-5.6-.2-3.2-2.5-5.1-5.6-4.9-3.1.2-5.1,2.4-4.9,5.6.2,3.1,2.4,4.8,5.5,4.9ZM1160,1031.4c-2.9.3-5,1.6-5.1,5-.1,3.4,1.9,5.2,5,5.3,3.1.1,5.3-1.6,5.4-5,.1-3.3-2-4.9-5.3-5.4ZM1117.1,1010.1c.2-4.3-1.8-6.2-4.8-6.4-3.2-.3-5.2,1.9-5.5,5-.3,3.2,1.6,5.2,4.9,5.4,3.3.2,5.2-1.5,5.4-4Z"/>
  <path class="st8" d="M840.5,1023.1c-8.5-.3-16.8-3.9-25.5-1.5,0-3.1.7-6.7-3.8-7.6-3.8-.8-6.1,1.1-7.2,4.6-8.7-.3-17.7,1.2-25.9-3.5,8.9-8.3,20.5-11.1,31.4-15.4,4.6-1.8,9.4-3.5,13.8-5.7,2.2-1.1,5.4-1.9,5.2-5.6,0,0,0,0,0,0,2,.8,3.4-.4,4.8-1.5,18.9-15,39.4-14.7,61.4-8.2,29.2,8.6,50.2,27.5,67.7,51.2,1.9,2.6,3.7,5.4,5.5,8.1-15.5.1-30.7-3.1-46-4.8-11.5-1.3-22.8-3.7-34.4-3.4-4,.1-8.2-1.1-12.1-1.8-9.7-1.8-19.6-1.7-29.3-3.8,2.1-2.2,4.4-4.3,2.9-7.8-1.1-2.4-3.3-3.2-5.7-2.7-6,1.3-4.8,5.2-3.1,9.2ZM923,1013.8c-.2-3.1-1.7-5.3-4.8-5.7-3.7-.5-5.7,2-5.8,5.2-.2,3,1.8,5,5.1,5.2,3.3.2,4.9-1.8,5.6-4.8ZM897.8,988.6c-.8-2.8-2.2-5-5.5-5-3.8,0-5.3,2.3-5,5.8.2,3.3,2.2,5,5.4,4.7,3.1-.3,4.7-2.4,5.1-5.5ZM851.1,995.6c.6,2.3,2.1,4.7,5.3,4.5,3.5-.2,5.5-2.4,5.2-5.9-.3-3.2-2.4-4.7-5.6-4.5-3.3.2-4.8,2.1-4.9,5.9ZM899.9,1026.5c-1-.2-1.7-.4-2.3-.4-.4,0-.8.4-1.2.5.8.2,1.6.5,2.4.7.2,0,.6-.4,1.1-.8ZM886,1024.4c-.6.4-1.2.7-1.7,1,.4.2.8.6,1.2.6.6,0,1.3-.3,1.9-.5-.4-.3-.8-.7-1.4-1.1ZM860,1022.5c.8.2,1.5.4,2.1.4.4,0,1.2-.5,1.1-.5-.4-1.1-1.4-.8-2.2-.7-.3,0-.6.5-1,.9ZM875.6,1023.5c-.8-.2-1.5-.4-2.1-.4-.4,0-1.2.4-1.1.5.3,1.2,1.3.8,2.1.8.3,0,.6-.4,1.1-.8Z"/>
  <path class="st10" d="M810,995.7c.7-7.5,1.3-15,2-22.5,2.9-.3,5.1-1.8,7.3-3.6,26.5-22.5,52.8-45.1,79.6-67.1,6-5,11.1-11.7,19.2-13.8-1.4,5-2.6,10.1-.1,15.2-2.2,1.7-5.6,2.9-3.4,6.7,1.2,2.2,3.4,3.3,5.8,2.3,3.6-1.5,3.6-4.3,1.8-7.4,5.1-.3,10.3-.5,15.2,1.5-1.3,6.4-7.1,8.6-11.4,12.1-14.4,11.7-29.5,22.6-43,35.3-4.7,4.4-9.4,9-14.3,13.2-.6.5-.6,1.8-.9,2.8-12.3,1.1-23.8,4.9-33.9,12.1-2.2,1.6-4.3,3.5-5.3,6.1,0,0,0,0,0,0-6.2,2.4-12.3,4.8-18.5,7.3ZM880.2,934.5c-2.9.4-4.2,2.5-4.1,4.7,0,3,2.3,4.1,5.1,3.9,2.8-.3,3.6-2.3,3.4-4.8-.2-2.8-2.6-3.1-4.4-3.8ZM851.5,956.4c-2.1.8-3.6,2.3-3.4,4.9.2,2.7,2.2,4,4.5,4,2.6,0,4.3-2.1,4.1-4.3-.2-2.5-2.3-4.2-5.3-4.6Z"/>
  <path class="st0" d="M867.8,970.1c.3-.9.3-2.2.9-2.8,4.9-4.3,9.6-8.8,14.3-13.2,13.4-12.7,28.5-23.6,43-35.3,4.3-3.5,10.1-5.7,11.4-12.1,19.5,2.3,34.3,12.5,45.1,28.2,2,2.9,5.1,8.1-1.3,11,0,0,0,0,0,0-1.1-1.5-2.8-1.5-4.5-1.7,0,0,0,0,0,0-1.2-1.6-2.9-1.4-4.6-1.6,0,0,0,0,0,0-1.2-1.6-3-1.4-4.6-1.6,0,0,0,0,0,0-1.7-1.9-4.1-1.4-6.3-1.7l-.4-.2s-.3.2-.3.2c-1.8-1.7-4.2-1.3-6.4-1.6,0-.4-.2-.8-.4-1.1,2.2-3.9.5-6.8-3.2-7.1-4.5-.4-4.6,3.4-4.2,6.8q-15.3.3-11.1,15.4c-2.8-.4-4.5,1.3-6.5,3-7.1,6.2-14.3,12.3-21.5,18.4-6.6,5.6-13.3,1-19.9-.3l-.2-.2c-.2-.9-.4-1.9-.6-2.8-6.4,5.6-12.6-1.2-18.9-.2ZM914.3,941.5c-3.3-.2-3.8,2.4-4.1,4.4-.5,3.1,1.7,4.5,4.5,4.6,2.8.1,4.1-2,4.2-4.2.2-3.1-2.4-3.9-4.6-4.8Z"/>
  <path class="st7" d="M1171.3,1000.3c-8.2-2.8-15.3-7.6-22.5-12.3.6-3.5,1.7-7.4-3.2-8.6-4.6-1.1-6.2,2-7.1,5.8-4.6-.2-8-2-11.3-5.8-4.1-4.8-9.8-7.4-16.6-4.6-1.9-2.2-4.2-3.5-7.2-3.3-4.6-7.2-11.4-11.5-19.6-13.1-2.2-.4-3.1-.7-3.4-2.7,8.5-8.8,18.5-15.8,29.1-21.8,3.2,2.9,7.2,4.6,11.1,6,28.6,10.4,43.9,31.7,50.6,60.3ZM1121.7,951c-.3-2.1-1.9-4.1-5.3-3.9-3.2.1-5.2,1.9-5.1,5.2,0,3.2,2.2,5.2,5.3,5.2,3,0,5-2,5.1-6.4Z"/>
  <path class="st13" d="M752.5,1192.2c-.6,3-2.1,5.4-5.4,5-2.9-.3-6.2-.8-6.2-5,0-3.8,2.2-5.5,5.7-5.5,3.3,0,5.4,2,6,5.4Z"/>
  <path class="st13" d="M1030.6,1162c3.6-.7,5.7,1.4,6,4.6.3,3.1-1.9,5.3-5,5.3-2.9,0-6.5-.7-6.5-4.6,0-2.9,1.2-5.9,5.5-5.4Z"/>
  <path class="st13" d="M1069.6,1186.2c-4.1,0-6.2-3-6.3-5.5,0-2.2,1.7-5.7,5.8-5.2,3.5.5,5.7,2.2,5.5,5.7-.1,3.1-2.2,4.8-5.1,5Z"/>
  <path class="st13" d="M1103.5,1190.5c2.9-.1,5.2.9,7,3.2,1.1,3.9-.8,6.4-4.3,7.4-3.1.8-5.7-1.3-6.8-3.7-1.8-3.6,2-5,4.1-6.9Z"/>
  <path class="st13" d="M793.4,1179.5c0-4.3,1.5-7.9,6.4-6.7,6,1.5,3.9,6.2,2.8,10.2-3.6.2-7.4.9-9.2-3.5Z"/>
  <path class="st13" d="M873.4,1232.6c4.1,0,6.1,1.8,6.2,4.9,0,3.2-2,5.3-5.1,5.3-3,0-5.2-1.6-5.3-5.1,0-3.4,1.6-5.1,4.2-5.2Z"/>
  <path class="st13" d="M957.2,1239.8c.2,2.6-1.9,4.5-4.9,4.6-3,.1-5.5-1.6-5.5-4.9,0-3.1,1.6-5.2,5-5.3,3.3,0,5.3,1.2,5.4,5.6Z"/>
  <path class="st13" d="M852.7,1213.5c-.2,3.2-1.8,5.4-4.9,5.6-3.4.2-5.6-1.6-5.7-5.3,0-3.4,2-5,5.1-5.1,3.1,0,5.1,1.5,5.5,4.8Z"/>
  <path class="st13" d="M994.6,1207.4c.4,4,.2,7.7-5.2,7.7-5.3,0-5.6-3.6-5.2-7.6,1.1-1,2.2-2,3.4-3,1.9.4,3.7.9,5.6,1.3.5.5.9,1.1,1.4,1.6Z"/>
  <path class="st13" d="M955.2,1201.3c0-3.2-.5-6.9,4-7.5,4.4-.7,6.1,2.3,6.9,6-3.1,4.6-6.5,6.7-10.9,1.5Z"/>
  <path class="st13" d="M781.4,1211.7c3.3,0,5,1.6,5,5,0,3.3-1.6,5.3-4.9,5.4-3.3,0-5.3-2.1-5.3-5.1,0-3,1.7-5.2,5.1-5.3Z"/>
  <path class="st13" d="M915,1227.1c-3.1-.3-5-2.1-4.9-5.2,0-3.2,2.3-5.2,5.2-5.2,3.3,0,5.5,2.3,5.4,5.7-.2,3.2-2.3,4.7-5.6,4.7Z"/>
  <path class="st13" d="M822.3,1232.5c-.5,3.1-2.9,4.7-5.7,4.5-3-.2-5-2.2-4.9-5.5.1-3,1.6-4.6,4.7-4.8,4-.2,5,2.6,5.9,5.8Z"/>
  <path class="st0" d="M970.8,1203.9c1.2-1.5,2.6-1.3,4.1-.7-1,2.6-2.8.1-4.1.7Z"/>
  <path class="st0" d="M987.6,1204.4c-1.1,1-2.2,2-3.4,3-.5-1-1-2-1.6-2.9,1.6,0,3.3,0,4.9,0Z"/>
  <path class="st0" d="M994.6,1207.4c-.5-.5-.9-1.1-1.4-1.6,2,.2,4.2-.7,6.2.7-1.4,1.5-3.2.6-4.8.9Z"/>
  <path class="st10" d="M1011.2,1186.1h-7c3-2,5.1-1.2,7-1.4,0,.5,0,.9,0,1.4Z"/>
  <path class="st0" d="M1010.3,1208.1c-.4.2-.8.6-1.2.6-.4,0-.7-.4-1.1-.7.4-.2.8-.6,1.1-.6.4,0,.7.4,1.1.7Z"/>
  <path class="st10" d="M718.2,1152.9c.6.2,1.3.5,1.9.7-.6.3-1.3.5-1.9.8,0-.5,0-1,0-1.5Z"/>
  <path class="st0" d="M887.5,973.3l-.4.5c0-.2.2-.5.2-.7,0,0,.2.2.2.2Z"/>
  <path class="st9" d="M738,1095.7c.2.3.3.6.5.9,0,0-.3.2-.5.3,0-.4,0-.8,0-1.2Z"/>
  <path class="st6" d="M603.9,475c6.4,6.7,12.1,12.9,17.9,18.9,6.3,6.5,12.6,12.9,19.2,19.1,4.4,4.2,3.5,7.2-1.3,10-4.4,2.5-8.7,5-13.1,7.3-8.1,4.2-10.5,2.8-12.5-6.4-2.8-12.7-5.9-25.3-8.7-37.9-.7-3.3-2.5-6.5-1.5-11Z"/>
  <path class="st6" d="M608.3,362c10.9,13.6,21.8,27.3,32.7,40.9,2.7,3.3,2.1,6.1-1.9,7.8-6,2.6-12,5.1-18.1,7.5-3.2,1.2-6.3.8-6.9-3.3-2.5-17.5-4.1-35.1-7.7-52.4l1.8-.5Z"/>
  <path class="st6" d="M688,571.4c5.5,6.1,9,13.1,10.6,21.1-5.5-6.1-9-13.1-10.6-21.1Z"/>
  <path class="st2" d="M657.8,515.5c2.4-.4,4.7-1.2,4.7,2.9,0,3.1.9,6.1,1.4,9.2,0,0,0,0,0,0-3.5-3.3-3.1-8.5-6-12.1,0,0,0,0,0,0Z"/>
  <path class="st6" d="M675.9,548.7c3.5,2,4.5,5.3,4.5,9-3.5-2-4.5-5.3-4.5-9Z"/>
  <path class="st2" d="M615.4,476.2c-1.7-.2-3.4-.6-3.8-2.6-.2-.9.4-1.4,1.3-1.3,2,.4,2.4,2.1,2.6,3.8h0Z"/>
  <path class="st2" d="M621.5,482.3c-2.8-.2-4.4-1.7-4.5-4.5,0,0,0,0,0,0,2.8.2,4.4,1.7,4.5,4.5,0,0,0,0,0,0Z"/>
  <path class="st2" d="M669.8,533.6c0,1.5,0,3,0,4.5-1.9-1.5-2.8-3.6-3-6,0,0,0,0,0,0,1,.5,2,1,3,1.5Z"/>
  <path class="st2" d="M644.1,503.4c-1.9,0-2.9-1.1-3-3h0c1.9,0,2.9,1.1,3,3h0Z"/>
  <path class="st2" d="M641.1,482.3c-2-.9-3-2.4-3-4.5,0,0,0,0,0,0,2,.9,3,2.4,3,4.5,0,0,0,0,0,0Z"/>
  <path class="st2" d="M654.7,501.9c-1.2-.7-1.5-1.8-1.5-3,0,0,0,0,0,0,1.2.7,1.5,1.8,1.5,3h0Z"/>
  <path class="st2" d="M651.7,497.4c-1.2-.7-1.5-1.8-1.5-3,0,0,0,0,0,0,1.2.7,1.5,1.8,1.5,3h0Z"/>
  <path class="st2" d="M648.7,492.9c-1.2-.7-1.5-1.8-1.5-3,0,0,0,0,0,0,1.2.7,1.5,1.8,1.5,3h0Z"/>
  <path class="st2" d="M642.6,483.8c1.2.7,1.5,1.8,1.5,3,0,0,0,0,0,0-1.2-.7-1.5-1.8-1.5-3h0Z"/>
  <path class="st2" d="M656.2,503.4c1.2.7,1.5,1.8,1.5,3,0,0,0,0,0,0-1.2-.7-1.5-1.8-1.5-3,0,0,0,0,0,0Z"/>
  <path class="st2" d="M659.3,509.5c-1.2-.7-1.5-1.8-1.5-3,0,0,0,0,0,0,1.2.7,1.5,1.8,1.5,3h0Z"/>
  <path class="st6" d="M704.6,604.6c1.2.7,1.5,1.8,1.5,3-1.2-.7-1.5-1.8-1.5-3Z"/>
  <path class="st6" d="M703.1,601.6c1.2.7,1.5,1.8,1.5,3-1.2-.7-1.5-1.8-1.5-3Z"/>
  <path class="st6" d="M701.6,598.6c1.2.7,1.5,1.8,1.5,3-1.2-.7-1.5-1.8-1.5-3Z"/>
  <path class="st6" d="M700.1,595.6c1.2.7,1.5,1.8,1.5,3-1.2-.7-1.5-1.8-1.5-3Z"/>
  <path class="st2" d="M665.3,529.1c1.2.7,1.5,1.8,1.5,3,0,0,0,0,0,0-1.2-.7-1.5-1.8-1.5-3h0Z"/>
  <path class="st6" d="M698.6,592.5c1.2.7,1.5,1.8,1.5,3-1.2-.7-1.5-1.8-1.5-3Z"/>
  <path class="st2" d="M635.1,474.7c-1.2-.7-1.5-1.8-1.5-3,0,0,0,0,0,0,1.2.7,1.5,1.8,1.5,3h0Z"/>
  <path class="st2" d="M669.8,538.1c1.2.7,1.5,1.8,1.5,3-1.2-.7-1.5-1.8-1.5-3Z"/>
  <path class="st2" d="M672.9,542.7c1.2.7,1.5,1.8,1.5,3-1.2-.7-1.5-1.8-1.5-3Z"/>
  <path class="st2" d="M674.4,545.7c1.2.7,1.5,1.8,1.5,3-1.2-.7-1.5-1.8-1.5-3Z"/>
  <path class="st6" d="M680.4,557.8c1.2.7,1.5,1.8,1.5,3-1.2-.7-1.5-1.8-1.5-3Z"/>
  <path class="st6" d="M681.9,560.8c1.2.7,1.5,1.8,1.5,3-1.2-.7-1.5-1.8-1.5-3Z"/>
  <path class="st6" d="M683.5,563.8c1.2.7,1.5,1.8,1.5,3-1.2-.7-1.5-1.8-1.5-3Z"/>
  <path class="st6" d="M685,566.9c1.2.7,1.5,1.8,1.5,3-1.2-.7-1.5-1.8-1.5-3Z"/>
  <path class="st6" d="M686.5,569.9c.5.5,1,1,1.5,1.5-.5-.5-1-1-1.5-1.5Z"/>
  <path class="st2" d="M624.5,462.6c.2.1.4.2.6.3-.2-.1-.4-.2-.6-.3,0,0,0,0,0,0Z"/>
  <path class="st2" d="M671.3,541.2c.5.5,1,1,1.5,1.5-.5-.5-1-1-1.5-1.5Z"/>
  <path class="st2" d="M632.1,470.2c-.2-.1-.4-.2-.6-.3.2.1.4.2.6.3h0Z"/>
  <path class="st2" d="M632.1,470.2c.5.5,1,1,1.5,1.5,0,0,0,0,0,0-.5-.5-1-1-1.5-1.5,0,0,0,0,0,0Z"/>
  <path class="st2" d="M635.1,474.7c.5.5,1,1,1.5,1.5h0c-.5-.5-1-1-1.5-1.5,0,0,0,0,0,0Z"/>
  <path class="st2" d="M615.5,476.2c.5.5,1,1,1.5,1.5,0,0,0,0,0,0-.5-.5-1-1-1.5-1.5,0,0,0,0,0,0Z"/>
  <path class="st2" d="M665.3,529.1c-.5-.5-1-1-1.5-1.5,0,0,0,0,0,0,.5.5,1,1,1.5,1.5,0,0,0,0,0,0Z"/>
  <path class="st2" d="M636.6,476.2c.5.5,1,1,1.5,1.5,0,0,0,0,0,0-.5-.5-1-1-1.5-1.5,0,0,0,0,0,0Z"/>
  <path class="st2" d="M656.2,514c.5.5,1,1,1.5,1.5,0,0,0,0,0,0-.5-.5-1-1-1.5-1.5h0Z"/>
  <path class="st2" d="M656.2,514c-.2-.1-.4-.2-.6-.3.2.1.4.2.6.3,0,0,0,0,0,0Z"/>
  <path class="st2" d="M659.3,509.5c.2.1.4.2.6.3-.2-.1-.4-.2-.6-.3,0,0,0,0,0,0Z"/>
  <path class="st2" d="M645.7,504.9c.2.1.4.2.6.3-.2-.1-.4-.2-.6-.3,0,0,0,0,0,0Z"/>
  <path class="st2" d="M644.2,503.4c.5.5,1,1,1.5,1.5,0,0,0,0,0,0-.5-.5-1-1-1.5-1.5,0,0,0,0,0,0Z"/>
  <path class="st2" d="M654.7,501.9c.5.5,1,1,1.5,1.5,0,0,0,0,0,0-.5-.5-1-1-1.5-1.5,0,0,0,0,0,0Z"/>
  <path class="st2" d="M623,483.8c-.5-.5-1-1-1.5-1.5,0,0,0,0,0,0,.5.5,1,1,1.5,1.5h0Z"/>
  <path class="st2" d="M642.6,483.8c-.5-.5-1-1-1.5-1.5,0,0,0,0,0,0,.5.5,1,1,1.5,1.5,0,0,0,0,0,0Z"/>
  <path class="st2" d="M623,483.8c.5.5,1,1,1.5,1.5,0,0,0,0,0,0-.5-.5-1-1-1.5-1.5,0,0,0,0,0,0Z"/>
  <path class="st2" d="M624.5,485.3c.5.5,1,1,1.5,1.5h0c-.5-.5-1-1-1.5-1.5,0,0,0,0,0,0Z"/>
  <path class="st2" d="M638.1,497.4l-.6-.3c.2.1.4.2.6.3h0Z"/>
  <path class="st2" d="M641.1,500.4c-.5-.5-1-1-1.5-1.5,0,0,0,0,0,0,.5.5,1,1,1.5,1.5,0,0,0,0,0,0Z"/>
  <path class="st2" d="M626,486.8c.2.1.4.2.6.3-.2-.1-.4-.2-.6-.3,0,0,0,0,0,0Z"/>
  <path class="st2" d="M645.7,488.3c-.5-.5-1-1-1.5-1.5,0,0,0,0,0,0,.5.5,1,1,1.5,1.5h0Z"/>
  <path class="st2" d="M645.7,488.3c.5.5,1,1,1.5,1.5,0,0,0,0,0,0-.5-.5-1-1-1.5-1.5,0,0,0,0,0,0Z"/>
  <path class="st2" d="M648.7,492.8c.5.5,1,1,1.5,1.5,0,0,0,0,0,0-.5-.5-1-1-1.5-1.5,0,0,0,0,0,0Z"/>
  <path class="st2" d="M651.7,497.4c.5.5,1,1,1.5,1.5,0,0,0,0,0,0-.5-.5-1-1-1.5-1.5,0,0,0,0,0,0Z"/>
  <path class="st2" d="M638.1,497.4c.5.5,1,1,1.5,1.5,0,0,0,0,0,0-.5-.5-1-1-1.5-1.5,0,0,0,0,0,0Z"/>
  <path class="st2" d="M789.2,675.6c3,7.6,6.1,15.1,9.1,22.7-5.2-1.6-5.4-6.8-7.3-10.6-3.2-6.3-4.6-13.5-11.8-17.5-4.1-2.2-1.5-7.4-2.1-11.2-.6-7.1-4.3-13-7.3-19.2-14.3-29.8-21.2-62-30.4-93.5-.7-2.4-1.3-4.7-2-7.3,4.5.3,4.2,4.3,4.5,6.5,1.6,11.5,9,17.8,18.1,23.5,15.1,9.4,30.1,18.9,44.3,29.6,0,7.6-6.7,8.7-11.4,11.5-6.4,3.9-13.2,7.2-19.8,10.8-3.9,2.1-5.7,5.9-4.1,9.4,6.6,15.2,11.8,30.9,20.1,45.3Z"/>
  <path class="st6" d="M747.1,465.9c13.4,16.4,26.9,31.1,41.3,45,2.7,2.6,2.5,5.5-.2,7-7.8,4.4-15.9,8.5-24.1,12.2-2.7,1.2-5.8-.3-6.4-3.5-3.6-19.8-7-39.6-10.6-60.6Z"/>
  <path class="st6" d="M718.2,497.4c-2.2-7.6-1.8-15.1-.2-23.6,2.9,7,7.9,4.4,12.3,4,3.7,3.9,4.2,9.4,6.8,13.9,1.6,2.7.2,5.2-2.9,5.4-5.3.4-10.6,3-16,.3Z"/>
  <path class="st6" d="M724.2,458.1c-1.3.5-1.9,3.1-3.3,2.1-2-1.4.7-3.4.3-5.2,1.9.1,2.9,1.1,3,3.1Z"/>
  <path class="st2" d="M727.3,526.1c1.2.7,2.7,1.4,2.3,3.2,0,.3-.8.7-1,.6-1.8-.7-1.1-2.4-1.3-3.7,0,0,0,0,0,0Z"/>
  <path class="st2" d="M724.2,524.6c0-.5,0-1,0-1.5,1.9,0,3,1.1,3.1,3,0,0,0,0,0,0-1.2,0-2.3-.4-3-1.5Z"/>
  <path class="st2" d="M722.8,520.1c0-.5,0-1.1,0-1.6.2.4.4.7.5,1.1,0,0-.3.3-.5.5Z"/>
  <path class="st11" d="M981.1,946c6.5-2.9,3.3-8.2,1.3-11-10.9-15.8-25.7-25.9-45.1-28.2-4.9-2-10-1.8-15.2-1.5-1.4-.5-2.8-1-4.2-1.6-2.5-5.1-1.2-10.1.1-15.2,4.9-7.9,12-9.9,20.7-7.9,8.2,2.3,15.5,6.3,22.7,10.6,7.9,6.3,16.7,11.6,23.8,19,1.9,2,3.8,3.4,6.2.8-.5,4.5,2,7.4,5,10.3,8,7.7,14.7,16.5,18.3,27.1,2.6,7.6.4,9.7-11.1,14-6.5,2.5-7.8-1.2-9.2-6-.6-1.9-1.5-3.7-2.5-5.4-1.3-2.3-1.7-6.4-6.1-2.7-1.8,1.5-3.7-.5-4.7-2.4Z"/>
  <path class="st0" d="M991.5,911.1c-2.4,2.6-4.3,1.2-6.2-.8-7.1-7.4-15.8-12.7-23.8-19,.5-3.6,3.6-5.1,5.9-7.3,6.1-5.9,14.9-9.3,18.2-18,2.9.9,4.1,4.8,7.8,4.3,0,0,.1-.2.1-.2.9,8.2,7.2,14.2,9,22-.6,1.7-1.3,3.4-1.9,5.1-1.1.8-1.7,1.9-1.6,3.3,0,0,.1,0,.1,0-.5.5-1,1.1-1.5,1.6,0,0,0,0,0,0-.5.6-.9,1.1-1.4,1.7,0,0,0,0,0,0-.6,1-1.1,1.9-1.7,2.9,0,0,0,0,0,0-.5.5-1,1.1-1.5,1.6,0,0,0,0,0,0-1.2.6-1.6,1.7-1.7,3h0Z"/>
  <path class="st13" d="M946.4,936.7c-.4-3.4-.3-7.3,4.2-6.8,3.7.4,5.4,3.3,3.2,7.1-2.5-.1-5-.2-7.5-.3Z"/>
  <path class="st11" d="M954.3,938.2c2.2.3,4.6,0,6.4,1.6-2.1-.7-5,2-6.4-1.6Z"/>
  <path class="st11" d="M961.3,939.7c2.2.3,4.6-.2,6.3,1.7-2.2,0-4.7.7-6.3-1.7Z"/>
  <path class="st11" d="M976.6,944.3c1.6.2,3.3.1,4.5,1.7-1.7,0-3.4.2-4.5-1.7Z"/>
  <path class="st11" d="M972.1,942.8c1.7.1,3.4,0,4.6,1.6-1.7,0-3.5.3-4.6-1.6Z"/>
  <path class="st11" d="M967.6,941.3c1.7.1,3.4,0,4.6,1.6-1.7,0-3.5.3-4.6-1.6Z"/>
  <path class="st11" d="M999.1,900.6c0-1.4.5-2.5,1.6-3.3,0,1.4,0,2.7-1.6,3.3Z"/>
  <path class="st11" d="M994.6,906.7c.6-1,1.1-1.9,1.7-2.9-.1,1.2-.4,2.3-1.7,2.9Z"/>
  <path class="st11" d="M991.6,911.2c.1-1.2.4-2.4,1.7-3,0,1.3-.4,2.4-1.7,3Z"/>
  <path class="st11" d="M993.2,908.2c.5-.5,1-1.1,1.5-1.6-.5.5-1,1.1-1.5,1.6Z"/>
  <path class="st11" d="M996.3,903.7c.5-.6.9-1.1,1.4-1.7-.5.6-.9,1.1-1.4,1.7Z"/>
  <path class="st11" d="M997.6,902.1c.5-.5,1-1.1,1.5-1.6-.5.5-1,1.1-1.5,1.6Z"/>
  <path class="st9" d="M1059.7,1006.3c-.3.5-.6,1-.9,1.5.3-.5.6-1,.9-1.5Z"/>
  <path class="st10" d="M988.1,1028.5c.6-.4,1.2-.8,1.8-1.2.3.4.6.7.9,1.1-.7.3-1.4.5-2.1.8-.2-.2-.5-.5-.7-.7Z"/>
  <path class="st9" d="M938.8,880.7c-8.7-2-15.8,0-20.7,7.9-8.2,2.1-13.2,8.9-19.2,13.8-26.8,22.1-53.1,44.7-79.6,67.1-2.2,1.8-4.4,3.3-7.3,3.6-.5-2-1.6-2.6-2.8-.6-1.3,2.1-2.6,4.1-4.8,5.5-2.2-1.8-4.2-5-7.5-1.9-2.9,2.7-1.7,5.3.7,7.7-1.2,1.2-2.5,2.5-3.7,3.7-2.7,2.7-5,2.5-5.7-1.4-1.4-7.8-5.8-14.4-8.2-21.8,1.5-8.3,10.3-9.2,15-14.4,5.1-5.6,12.4-9,16.4-16,1-1.7,3-1.4,4.8-1.5,2.3,1.8,4.9,2.8,7.2.2,1.8-2,1.8-4.5-.3-6.5,6.2-4,11.5-8.8,15.9-14.6,2.7.4,4.9-.2,5.9-3,1-2.9-.9-4.5-3.1-5.8,6.3-7.9,14.9-13.3,22.4-19.8,17-14.7,34.5-28.9,51.7-43.3,6.3-5.3,12.3-10.9,18.5-16.3,2.5,1.1,5,2.2,7.4,3.3,0,0,0,0,0,0,.5.5,1,1,1.5,1.5,0,0,0,0,0,0,6,9.6,12.1,19.2,18.1,28.8-4.7,3.3-4.7,9.3-7.7,13.6-4.2-2.9-6.8-.9-8.7,3-3.9.9-5.2,4-6.3,7.3ZM917.5,870c.1-2.9-1.9-3.8-4.5-4.5-2.4-.6-3.9,0-4.3,2.5-.6,3.2.5,5.5,3.8,6,2.7.4,4-1.4,5-4ZM939,839.1c-2.8.6-4.2,2.4-4.5,5.1-.3,3.2,1.9,3.6,4.3,3.7,3.1.1,4.5-1.6,4.6-4.5,0-2.9-2.4-3.3-4.4-4.3ZM895,891.3c0-3-1.6-4.3-4.1-4.6-2.7-.3-4.3,1.3-4.7,3.7-.5,3.2,1.8,4.6,4.4,4.8,2.6.2,3.8-1.8,4.3-3.9ZM872.2,904.2c-.4-3.8-3.7-4.3-6-4.5-2.9-.3-2.7,2.7-2.9,4.9-.3,3.1,1.5,3.8,4.1,3.8,3,0,4.5-1.5,4.9-4.2ZM814.5,959.5c2.6-.6,3.7-2.4,3.6-4.9,0-2.7-1.9-4-4.4-4-3.1,0-4.3,2.4-4.1,5,.3,2.5,2.3,3.6,4.8,3.8Z"/>
  <path class="st13" d="M797.6,983.7c-2.4-2.4-3.6-5-.7-7.7,3.3-3,5.3,0,7.5,1.9-1.7,2.6-3.6,4.9-6.8,5.7Z"/>
  <path class="st8" d="M766.5,932.4c0-11.6,0-23.1.1-34.7,1.4-1.7,1.1-3.8,1.3-5.8,1.9-18.2,7.5-34.9,18.7-49.9,14.5-19.3,31.9-30.9,57-27.4,6.3.9,12.5-.6,18.6-2.3,10.7-3,21.6-4.4,32.7-3.8,3.1.2,6.3-.6,9,1.6.5.5,1,1,1.5,1.5.4,2.6-1.3,3.9-3,5.5-6.5,6.4-12.6,13.1-18.9,19.6-2.9,2.9-7.1,4.6-10.3,6.3-6.2,3.3-9.6,9.2-14.9,13.1-4.2,3.1-10.8,5.5-12.6,11.5-1.3,4.3-8,.7-8.2,6.1-2.6,1.1-4.3,2.9-4.7,5.7-2,0-4.4,0-5.1,2.1-1.4,4.7-5,3.8-8.4,3.9.7-2.4,1.6-4.7-1.2-6.6-1.6-1.1-3.2-1.3-4.8-.2-1.5,1-2.4,2.7-1.9,4.5.8,3.2,3.4,3.8,6.4,3.7.3,4.1-2,5.6-4.9,8.3-4.5,4.2-12.3,5.7-13.3,13.3-6-3.2-8.9-1.5-8.3,5.4-8.7,3.9-15.2,10.5-21.3,17.6-.6.7-2.3.6-3.5.9ZM825.1,835.6c3,0,4.5-2.1,4.7-4.7.3-2.7-1.7-4-4.1-4.3-3.1-.3-4.5,1.6-4.7,4.5-.1,2.7,1.7,3.9,4.1,4.5ZM869.5,822.2c-2.9-.1-4.4,1.5-4.6,4-.3,2.4.6,4.5,3.5,4.8,3.1.3,4.7-1.7,5.1-4.4.4-2.8-1.7-3.9-4-4.5ZM790.6,867.7c-2.7.1-4.1,1.7-4.4,4.2-.3,2.7,1.2,4.2,3.8,4.6,2.7.4,4.5-1.1,4.9-3.5.5-3.1-1.9-4.3-4.3-5.3ZM801.5,843.2c0-2.7-1.6-4.3-4.5-4.5-2.8-.2-4.1,2-4.4,4.1-.4,2.9,1.9,4.5,4.5,4.8,2.7.3,3.9-1.6,4.3-4.5ZM844.5,838.3c-2.5.3-4.1,1.6-4,4.3.1,2.7,1.9,3.9,4.5,3.9,2.7,0,4.2-1.9,4.2-4.3,0-2.6-2.2-3.7-4.7-3.9Z"/>
  <path class="st5" d="M905.6,811.6c-.5-.5-1-1-1.5-1.5,1.8-1,3.5-1.4,5.6-.7,10.5,3.2,20.4,7.8,29.9,13.2,1.4.8,3.3,1.6,2.4,4-2.5-1.1-5-2.2-7.4-3.3-9.1-5.3-18.4-10.1-28.9-11.7Z"/>
  <path class="st13" d="M823.2,926.1c2.1,2.1,2.1,4.5.3,6.5-2.3,2.5-4.8,1.5-7.2-.2-.4-5.1.7-8.4,6.9-6.3Z"/>
  <path class="st13" d="M882.8,858.4c-.6,2.3-1.7,4.4-4.4,4.2-2.7-.2-4.9-1.8-4.4-4.9.4-2.3,1.8-4.2,4.7-3.8,2.5.4,4.1,1.7,4.1,4.5Z"/>
  <path class="st13" d="M912.5,826.8c2.3.5,4.6,1.5,4.8,4,.1,2.6-1.2,4.8-4.3,4.9-2.4.1-4.5-.3-4.4-3.5,0-2.8,1-4.8,4-5.4Z"/>
  <path class="st13" d="M832.8,879.6c.4-2.8,2.1-4.7,4.7-5.7,2.3,1.3,5.2,2.4,4.3,6-.4,1.7-1.7,3.3-3.6,3.2-2.4,0-5.2.2-5.4-3.4Z"/>
  <path class="st13" d="M791.3,914c-.6-6.9,2.3-8.6,8.3-5.4-.4,7.6-1.8,8.6-8.3,5.4Z"/>
  <path class="st13" d="M817.9,886.9c-2.9.1-5.5-.5-6.4-3.7-.5-1.8.4-3.4,1.9-4.5,1.6-1.1,3.2-.8,4.8.2,2.7,1.8,1.9,4.2,1.2,6.6-.5.5-1,.9-1.5,1.4Z"/>
  <path class="st13" d="M789.3,940.5c0,2.6-1.3,4.2-4,4.2-2.5,0-4.7-1.2-4.7-3.7,0-2.5,1.5-5,4.5-4.8,2.3.2,4.2,1.5,4.2,4.2Z"/>
  <path class="st13" d="M841.9,902.7c2.2,1.3,4.1,2.8,3.1,5.8-1,2.8-3.2,3.4-5.9,3-4.7-4.7-3-7.4,2.8-8.8Z"/>
  <path class="st0" d="M895,808.5c-11.1-.5-22,.8-32.7,3.8-6,1.7-12.2,3.2-18.6,2.3-25.1-3.4-42.6,8.2-57,27.4-11.3,15-16.8,31.6-18.7,49.9-.2,2,0,4-1.3,5.8-.5-2.5.8-5.3-1.3-7.5.9-13.6,5-26.3,11.4-38.1,8.4-15.4,19.5-28.4,35.5-36.6,6.7-2.5,13.7-3.8,20.8-4.3,8.6.6,17.2,2.1,25.6-1.4,9.9-1,19.4-4.8,29.6-4.1,2.6.2,5.8-.9,6.8,2.9Z"/>
  <path class="st5" d="M961.5,856.9c-6-9.6-12.1-19.2-18.1-28.8,3.4-.8,4.2,2.3,5.6,4,2.9,3.8,5.6,7.8,7.8,12,4.7,8.9,10.5,15.3,21.7,16.2,6,.5,12,3.7,14.9,10.1-3.6.5-4.9-3.4-7.8-4.3-7.1-5.4-17.3-2.9-24.1-9.1Z"/>
  <path class="st5" d="M943.4,828.1c-.5-.5-1-1-1.5-1.5,1.4-.4,1.9.1,1.5,1.5Z"/>
  <path class="st6" d="M734.8,793.4c-.2-5.3-2.5-10.1-4.3-14.9-5.3-13.7-2.6-27.3-.2-41,3.3,1.2,6.5,1,10.1.2,10.1-2.2,20.1-5.7,30.7-4.7h0c.5.5,1,1,1.5,1.5,10.4,18.7,20.3,37.7,28.7,57.4-2.1,0-3.3-1.4-3.8-3.1-2.6-8.8-8.5-9.5-16.3-7.4-12.5,3.3-25.2,6.1-37.8,8.8-2.9.6-5.4,1.2-5.6,4.8-1.2,0-2.3-.4-3-1.5Z"/>
  <path class="st6" d="M802.8,795c3.5,4.5,6,9.6,7.5,15.1-5.8-3.4-7.3-8.9-7.5-15.1Z"/>
  <path class="st6" d="M801.3,791.9c1.2.7,1.5,1.8,1.5,3-1.2-.7-1.5-1.8-1.5-3Z"/>
  <path class="st6" d="M810.4,810.1c1.2.7,1.5,1.8,1.5,3-1.1-.7-1.5-1.8-1.5-3Z"/>
  <path class="st2" d="M769.5,725.5c.5,2.5,1,5,1.6,7.5-10.6-1-20.6,2.5-30.7,4.7-3.5.8-6.7,1-10.1-.2,3.5-21.1,9.4-41.9,10.5-63.4,4.3,3.7,4,10.4,9.1,13.6,5.8,13,11,26.3,19.6,37.8Z"/>
  <path class="st1" d="M769.5,725.5c-8.6-11.5-13.8-24.8-19.6-37.8,4.8-4,9.4-8.2,14.4-11.9,2.8-2.1,5.8-6.3,9.6-4,3.6,2.2,1.5,6.9,1.5,10.4,0,2.9-1,5.9-1.3,8.8-.9,8.8.4,17.3,4.5,25.3-3.6,2.4-6.7,5.5-9.1,9.1Z"/>
  <path class="st1" d="M701.6,639.4c7.4,13.1,11.1,27.7,16.1,41.8,1.7,4.7-3.4,6.3-6.3,6.7-17.7,2.4-34,9.8-51.3,13.3-.7.1-1.5,0-2.2.1-.3-2.4-1.1-4.5-3-6.1.1-2.6-.3-4.9-3-6,0-2.9.4-6-3-7.6-3.2-8.9,1.4-13.3,8.8-17.2,14.9-7.9,29.4-16.7,44-25.1Z"/>
  <path class="st1" d="M618.5,459.6c-.8.4-1.6.9-2.5,1.3-.1-.3-.3-.6-.4-.9,1-.1,1.9-.2,2.9-.4,0,0,0,0,0,0Z"/>
  <path class="st6" d="M719.6,468.4c-.5-1-1.1-1.6-1-2.1,0-.5.8-.9,1.3-1.4.4.5,1,1.1,1,1.6,0,.5-.7,1-1.3,1.9Z"/>
  <path class="st1" d="M588.2,356.9c0-1,0-2,0-3,1.5,1,1.5,2,0,3Z"/>
  <path class="st13" d="M1145.2,1105.3c3.7.5,5.7,1.9,5.6,5.4-.1,3.4-2,5.1-5.2,5.1-3.7,0-5-2.6-5.3-6-.5-4.5,3.5-3.1,4.9-4.5Z"/>
  <path class="st13" d="M1111.2,1030.9c2.6.6,5.1,1.4,6.2,4.2,0,3.7-1,6.6-5.3,6.8-2.5,0-4.4-1.2-5.2-3.6-1.2-3.8.5-6.2,4.2-7.3Z"/>
  <path class="st13" d="M988.8,1029.2c.7-.3,1.4-.5,2.1-.8,3.7-.1,6.5,1,6.8,5.2.2,2.6-1.5,4.3-3.6,5.2-2.4,1-4.5-.1-5.9-2-2.1-2.6-.8-5.2.7-7.6Z"/>
  <path class="st13" d="M1103.3,1121.1c-3.8.6-6.8,0-7.8-4.4.4-3.1,1.3-5.8,5.1-6,2.2-.1,3.6,1,4.8,2.7,2.3,3.4-.4,5.4-2.1,7.7Z"/>
  <path class="st13" d="M1132.4,1059.3c-.3,3.8-2.1,5.8-5.2,5.8-3.5,0-5.6-2.1-5.4-5.7.1-3.2,2.2-4.8,5.5-4.7,3.4,0,4.7,2.1,5.1,4.6Z"/>
  <path class="st13" d="M1014.5,1056.4c0,1.5-1.6,3.2-4.9,3.2-3.3,0-5.3-1.9-5.2-5,0-2.8,1.6-5.5,4.9-5.3,2.9.2,5,1.9,5.2,7.1Z"/>
  <path class="st13" d="M1037.2,1035.1c3.6.2,5.7,1.5,5.9,4.9.2,3.2-1.2,5.3-4.4,5.7-3.6.4-5.7-1.7-5.9-5.1-.2-3.1,2-4.8,4.5-5.4Z"/>
  <path class="st13" d="M1072.5,1044.1c3.6-.1,5.5,1.5,5.5,5.3,0,3.4-1.5,5.3-4.8,5.2-4-.1-5.3-3-5.5-6.6-.3-3.7,2.3-3.8,4.9-3.9Z"/>
  <path class="st13" d="M1023.1,1015.3c-3.1-.6-5.3-2.2-5.4-5.3,0-3.4,2-5.4,5.7-5.3,3.3.1,4.9,2,4.8,5.3,0,3.3-2.3,4.7-5.1,5.3Z"/>
  <path class="st13" d="M1094.7,1080.2c-3-.6-4.9-2.2-4.9-5.5,0-3.4,1.9-5,5.2-5,3.3,0,5.2,2.2,5.2,5.3,0,3.1-2.3,4.8-5.5,5.3Z"/>
  <path class="st13" d="M1148.9,1150.2c-3.8-2.3-3.8-5.4-2.1-9,7.2-2.7,9.5-.9,8.8,6.8-1.3.8-2.5,1.6-3.8,2.3-1,0-2-.1-3-.2Z"/>
  <path class="st13" d="M1168.4,1077.8c-.5,3.1-2.2,5.4-5.2,5.4-3.3,0-5.6-2-5.4-5.7.2-3.3,2.1-4.9,5.3-4.8,3.3,0,4.8,2.1,5.3,5.1Z"/>
  <path class="st13" d="M1073.6,1011c7.6-3.2,9.6-2,10,5.8-2.3,1.8-4.3,4.1-7.7,2-3.3-2-2.6-4.9-2.2-7.8Z"/>
  <path class="st13" d="M1040.2,1076.1c-3.5-.1-5.1-2.1-4.8-5.4.2-2.5.5-5.3,4.1-5.2,3.5.1,6,1.8,6,5.4,0,3.1-1.9,5.1-5.2,5.1Z"/>
  <path class="st13" d="M960.3,1018.1c-.2-1.5-.6-3-.5-4.5.1-3.1,2-4.4,5-4.4,3,0,4.8,1.7,5.1,4.5.4,3.2-1.6,5.4-4.6,5.8-1.6.2-3.3-.9-5-1.4,0,0-.4.3-.4.3l.4-.4Z"/>
  <path class="st13" d="M1065.7,1104.6c-3.5,1.6-7,3.8-9.5-1.4-.1-4,.5-8,5.7-7.3,5.2.7,4.5,5,3.7,8.7Z"/>
  <path class="st13" d="M895.4,1172.6c-.7,3.3-2.5,5.5-6,5.3-2.4,0-4.1-1.6-4.7-4.1-.9-3.7,1.5-5.4,4.3-6.7.6,0,1.2,0,1.7,0,1.9.8,3.5,1.9,4.5,3.8,0,.5,0,1.1.1,1.6Z"/>
  <path class="st13" d="M945.8,1116c-2.3-2-4.8-3.9-3.1-7.5.9-2,2.6-3.1,4.7-3.1,2.1,0,4,.9,4.8,3,1.3,3.3,0,5.8-2.9,7.5-1.2,0-2.3,0-3.5.1Z"/>
  <path class="st13" d="M783.8,1139.1c-.3,2.9-1.6,5-5.1,5-3.4,0-5.3-1.8-5.2-5,0-3.1,2-5.3,5.2-5.4,3.1,0,5,2,5.2,5.4Z"/>
  <path class="st13" d="M812.5,1127.2c4.6,0,6.5,2.2,6.6,5.1,0,2.9-2,5.3-5.2,5.3-3.2,0-6.2-1.8-6.3-5.1,0-3.4,2.9-4.8,4.9-5.3Z"/>
  <path class="st13" d="M837.4,1163.5c.5-.6,1.1-1.1,1.6-1.7,2,0,4.1,0,6.1.1,2.2,2.4,3.2,5.2,1.1,8-1.1,1.6-3.1,2.4-5.2,2-3.7-.8-4.2-3.6-4.3-6.8.2-.6.4-1.1.6-1.7Z"/>
  <path class="st13" d="M913.2,1146.8c-3-.3-5.1-1.9-5.2-5.1-.1-3,1.3-5.3,4.7-5.6,3.7-.3,5.7,1.7,5.7,5.2,0,3.1-1.9,4.9-5.1,5.4Z"/>
  <path class="st13" d="M871,1132.1c3.3.5,5.4,2.2,5.8,5.7.3,3.3-1.9,4.4-4.5,4.7-3.4.4-5.9-.8-6.2-4.7-.2-3.4,2-4.9,4.9-5.7Z"/>
  <path class="st13" d="M972.4,1122.8c3.3-3.3,6.7-3.2,10-.1.6,4.1.2,8-5,7.9-5,0-6-3.5-5-7.8Z"/>
  <path class="st13" d="M995.7,1176.8c-1.3.2-2.6.4-4,.6-.9-.3-1.8-.5-2.8-.8-.4-.4-.8-.8-1.2-1.2-1.1-3.4-.9-6.4,2.7-8.2,2-1,3.7-.4,5.4,1.1,3.2,3,1.6,5.7-.1,8.6Z"/>
  <path class="st13" d="M765.1,1117.2c-.2,3.2-1.7,5.3-5,5.4-3.5,0-5.7-2-5.6-5.5.1-3.1,2.2-5,5.4-5,3.2,0,5,1.8,5.2,5Z"/>
  <path class="st13" d="M958.2,1155.9c-.3,3.2-2.1,5.5-5.1,5.6-3,.2-5.2-1.5-5.4-5-.1-3.3,1.2-5.3,4.7-5.4,3.3,0,5,1.8,5.8,4.7Z"/>
  <path class="st9" d="M777.2,1104.9h4.2c-1.1,2-2.6,1.2-4.2,0Z"/>
  <path class="st9" d="M752.7,1102.3c1.6-1.2,4-1.2,4.2-.4.6,1.9-1.4.9-2.3,1-.5.1-1.2-.4-2-.7Z"/>
  <path class="st9" d="M930.3,1123.1c-2.1,1.7-3.6,1-5.7.7,2.1-1.7,3.6-.9,5.7-.7Z"/>
  <path class="st9" d="M838.6,1113c1.9-1.2,3.3-1,4.7-.5-1.1,1.9-2.6,1.1-4.7.5Z"/>
  <path class="st9" d="M868.1,1115.9c-1.6,1.2-4,1.2-4.2.4-.6-1.9,1.4-.9,2.3-1,.5-.1,1.2.4,2,.7Z"/>
  <path class="st9" d="M742.3,1101.6c-.7-.3-1.7-.2-1.2-1.1.2-.4,1.3-.4,1.9-.3.3,0,.7.5,1,.7-.6.3-1.2.5-1.7.7Z"/>
  <path class="st9" d="M774.6,1100.6c-.7.5-.9.8-1.3.9-.9.1-1.9.4-2.4-.7.4-.2.8-.6,1.2-.6.7,0,1.3.2,2.5.4Z"/>
  <path class="st9" d="M766.3,1104.1c.5-.4.7-.9,1-.9.8-.1,1.8-.4,2.3.8,0,0-.8.5-1.2.5-.7,0-1.3-.2-2.1-.4Z"/>
  <path class="st9" d="M794.1,1106.6c-.5.4-.8.8-1.2.9-.8,0-1.8.4-2.2-.8,0,0,.8-.5,1.2-.5.7,0,1.3.2,2.2.4Z"/>
  <path class="st9" d="M824.3,1106.6c-.5.4-.8.9-1.2.9-.8,0-1.8.4-2.2-.8,0,0,.8-.5,1.2-.5.7,0,1.3.2,2.2.4Z"/>
  <path class="st9" d="M942,1124.6c-.4.4-.6.9-.8.9-.7,0-1.6.2-2-.2-1.1-1,.2-1,.7-1.1.6,0,1.3.2,2.1.3Z"/>
  <path class="st9" d="M914.8,1121c.5.4,1,.8,1.4,1.1-.6.2-1.3.5-1.9.5-.4,0-.8-.4-1.2-.6.5-.3,1.1-.6,1.7-1Z"/>
  <path class="st9" d="M902.6,1119.5c.6.4,1,.7,1.5,1.1-.6.2-1.3.5-1.9.5-.4,0-.8-.4-1.2-.6.5-.3,1-.7,1.6-1Z"/>
  <path class="st9" d="M892.1,1118.6c-.4.4-.6.9-.8.9-.7,0-1.6.2-2-.2-1.1-1,.2-1.1.7-1.1.6,0,1.3.2,2.1.3Z"/>
  <path class="st9" d="M878.5,1116.5c.5.4,1,.8,1.4,1.1-.6.2-1.3.5-1.9.5-.4,0-.8-.4-1.2-.6.5-.3,1.1-.6,1.7-1Z"/>
  <path class="st9" d="M806.7,1108.2c-1.3.4-1.9.8-2.5.8-.5,0-.9-.5-1.4-.8.4-.2.8-.5,1.2-.5.6,0,1.3.3,2.7.6Z"/>
  <path class="st9" d="M854.1,1115.2c-.7-.3-1.8-.2-1.2-1.1.2-.4,1.3-.4,1.9-.3.3,0,.7.5,1,.7-.6.3-1.2.5-1.7.7Z"/>
  <path class="st9" d="M857,1111.7c.5-.4.7-.9,1-.9.9-.1,1.9-.4,2.3.8,0,0-.8.5-1.2.5-.7,0-1.3-.2-2.1-.4Z"/>
  <path class="st9" d="M828.5,1110.4c.6.4,1,.7,1.5,1.1-.6.2-1.3.5-1.9.5-.4,0-.8-.4-1.2-.6.5-.3,1-.7,1.6-1Z"/>
  <path class="st9" d="M818.8,1109.8c-1.3.4-1.9.8-2.5.8-.5,0-.9-.5-1.4-.8.4-.2.8-.5,1.2-.5.7,0,1.3.3,2.7.6Z"/>
  <path class="st9" d="M943.9,1122c-.2.1-.4.3-.6.3-.2,0-.3-.3-.5-.4.4,0,.7,0,1.1,0Z"/>
  <path class="st13" d="M764.9,1054.8c-.8-3.4-.9-6.6,3-8.1,2.7-1,5-.1,6.3,2.4,1.9,3.7,0,6.1-3.2,7.9-1.6.6-3.7-1.3-5.1.8h0c.7-1.3-.2-2.1-1-3Z"/>
  <path class="st13" d="M793.3,1084.7c4.3,0,6,1.9,6.4,5.4.4,3.8-2.5,5-4.9,4.9-3-.1-6.9-1-6.8-5.1,0-3.1,2.8-4.9,5.4-5.2Z"/>
  <path class="st13" d="M830.8,1101.6c-3.9,0-6.1-1.9-6.2-5.3,0-2.8,1-5.1,4.7-5.2,4.4-.1,5.8,2.9,6.2,6,.3,2.8-1.5,5.1-4.7,4.6Z"/>
  <path class="st13" d="M961.3,1078.9c.4-4.5,2.6-7.1,7.3-5.9,4.7,1.3,3.8,5,2.7,8.4-4.2,2.6-7.9,3.3-10-2.5Z"/>
  <path class="st13" d="M925.6,1084.7c2.5,0,4.5,1.6,4.6,4.9.1,3.3-1.9,5.3-5,5.4-3.1.1-5.4-2-5.5-5,0-2.9,1.6-5.2,5.9-5.3Z"/>
  <path class="st13" d="M886.1,1076.3c3.1-1,6.1-.9,8.8,1.3.4,3.2.8,6.5-2.9,8.2-2.4,1.1-4.4.1-6-1.5-2.7-2.6-1.4-5.4.1-8Z"/>
  <path class="st13" d="M750.9,1075.6c4.1.1,5.6,2,5.9,5.6.4,4.1-4.1,3.7-5.1,6.3-2.7-1.4-4.9-3.1-5.1-6.5-.1-3.3,1.5-5.1,4.3-5.4Z"/>
  <path class="st13" d="M861.4,1089.5c3.2.3,5.1,1.9,5.1,5.2,0,3.3-1.4,5.3-4.8,5.3-3.3,0-5.3-2-5.4-5,0-3.1,1.9-5.1,5.1-5.5Z"/>
  <path class="st13" d="M817.9,1060.8c-1.9-2.9-3-5.8,0-8.7,1.8-1.7,3.9-1.9,6.1-.5,3.6,2.4,2.6,5.4,1.3,8.5-2.3,1.2-4.8,1-7.3.6Z"/>
  <path class="st7" d="M804.1,1067.9c.5-.4.7-.9,1-.9.8-.1,1.8-.4,2.3.7,0,0-.8.5-1.2.5-.6,0-1.3-.2-2.1-.4Z"/>
  <path class="st7" d="M819.7,1068.8c-.5.4-.7.9-1,.9-.8.1-1.8.4-2.3-.7,0,0,.8-.5,1.2-.5.6,0,1.3.2,2.1.4Z"/>
  <path class="st7" d="M904.2,1078.7c.5.4,1,.8,1.4,1.1-.6.2-1.3.5-1.9.5-.4,0-.8-.4-1.2-.6.5-.3,1.1-.6,1.7-1Z"/>
  <path class="st7" d="M765.8,1057.7c-1.6,1-3.1,2.2-5.3.8,1.7-1.5,3.6-.5,5.3-.8,0,0,0,0,0,0Z"/>
  <path class="st13" d="M1137.5,1177.3c-.5,3.2-2.2,5.3-5.4,5.1-3-.2-5.1-2.1-4.9-5.4.2-3.1,2-5,5.3-4.9,3.3.2,4.7,2.2,5,5.2Z"/>
  <path class="st13" d="M1075.1,1151.3c-3.2-.6-5.8-1.9-5.7-5.2,0-2.9,1.6-5.3,5-5.4,3.3,0,5,1.6,5.2,5,.2,3.5-1.9,4.8-4.5,5.6Z"/>
  <path class="st13" d="M1112.9,1156.1c-3.4,0-5.1-1.7-5.1-5.1,0-3.3,1.7-5.4,4.9-5.4,3.1,0,5.3,2.1,5.3,5.2,0,3-1.6,5.2-5.1,5.2Z"/>
  <path class="st13" d="M1018.9,1092.5c4-.6,5.6,2,5.7,5.1,0,3.1-2.5,5-5.5,4.8-3.5-.3-5-2.6-4.9-6.2,0-3.6,2.1-4,4.8-3.7Z"/>
  <path class="st13" d="M1037.3,1137.6c-2.5-.4-4.9-2.2-4.5-5.7.3-3,2.3-4.8,5.6-4.6,3.3.2,5.1,2.2,4.6,5.3-.4,2.6-1.2,5.4-5.7,5Z"/>
  <path class="st10" d="M1148.9,1150.2c1,0,2,.1,3,.2-1.1,1.2-2,1.1-3-.2Z"/>
  <path class="st13" d="M880.1,1050.4c-.2,3-2,4.9-5.2,4.9-3.1,0-5.3-1.9-5.4-5.1,0-3.4,2.2-5.7,5.6-5.5,3,.2,4.9,2.1,4.9,5.7Z"/>
  <path class="st13" d="M937,1050.2c3.7-.2,5.7,1.7,6,4.6.4,3.5-1.8,5.7-5.2,5.8-3.2.1-5.1-1.8-5.2-5,0-3.1,1.5-5.1,4.4-5.4Z"/>
  <path class="st13" d="M899.5,1045c-3.2-.4-5.7-1.4-5.9-4.8-.3-3.6,1.9-5.7,5.3-5.8,3,0,5.1,1.6,5.2,5,.1,3.4-1.8,4.9-4.6,5.5Z"/>
  <path class="st13" d="M804.1,1018.5c1.1-3.5,3.4-5.4,7.2-4.6,4.4.9,3.7,4.5,3.8,7.6-5.1,4.2-8.8,3.6-10.9-3Z"/>
  <path class="st13" d="M840.5,1023.1c-1.7-4-2.9-7.9,3.1-9.2,2.3-.5,4.6.2,5.7,2.7,1.5,3.5-.8,5.6-2.9,7.8-2.1.3-4-.3-5.8-1.2Z"/>
  <path class="st13" d="M759,1157.4c2.7,3.2,3.9,6.4-.3,9.3-3,2-5.5,1.2-7.6-1.5-3.4-4.6,0-6.4,3.4-8.2,1.5.1,3,.2,4.5.4Z"/>
  <path class="st13" d="M931.5,1186.1c.2,3.2-1.6,5-4.8,5.1-3.8.2-5-2.3-5.5-5.7-.7-4.4,2.7-4.3,5.1-4.5,3-.3,5.3,1.2,5.3,5.1Z"/>
  <path class="st10" d="M989,1176.5c.9.3,1.8.5,2.8.8-.7,3.7-3.5,2.5-6.8,2.9,1.9-1.7,3-2.7,4-3.7Z"/>
  <path class="st10" d="M942,1180.9c-1.7.9-3.2,1.1-4.9-.1,1.7-1,3.2-1.1,4.9.1Z"/>
  <path class="st10" d="M775.8,1156.8c-1.7.9-3.2,1.1-4.9-.1,1.7-1,3.3-1.1,4.9.1Z"/>
  <path class="st10" d="M764.8,1159.7c1.6-1.1,4-1.1,4.2-.4.6,1.9-1.4.8-2.2,1-.5.1-1.2-.4-2-.6Z"/>
  <path class="st10" d="M869.2,1168.9c1.6-1.3,3.1-1.1,4.8-.2-1.6,1.3-3.1,1.1-4.8.2Z"/>
  <path class="st10" d="M850.6,1170.2c2.3-.8,3.7-1,5.2,0-1.5,1.4-2.9,1-5.2,0Z"/>
  <path class="st10" d="M794,1162.5c-.5.4-.8.8-1.1.9-.8,0-1.8.4-2.1-.8,0,0,.8-.5,1.2-.5.6,0,1.3.2,2.1.4Z"/>
  <path class="st10" d="M866.2,1172.6c-.7-.3-1.7-.2-1.2-1.1.2-.4,1.3-.4,1.9-.3.3,0,.7.5,1,.7-.6.2-1.2.5-1.7.7Z"/>
  <path class="st10" d="M858.5,1167.5c.5-.4.7-.8,1-.9.8-.1,1.8-.4,2.3.7,0,0-.7.5-1.2.5-.6,0-1.3-.2-2.1-.4Z"/>
  <path class="st10" d="M828.5,1166.4c.6.4,1,.7,1.5,1.1-.6.2-1.3.5-1.9.5-.4,0-.8-.4-1.2-.5.5-.3,1-.6,1.6-1Z"/>
  <path class="st10" d="M818.2,1165.5c-.5.4-.7.8-1,.9-.8.1-1.8.4-2.2-.7,0,0,.7-.5,1.2-.5.6,0,1.3.2,2.1.4Z"/>
  <path class="st10" d="M880.2,1173.1c-.5.4-.8.8-1.1.9-.8,0-1.8.4-2.1-.8,0,0,.8-.5,1.2-.5.6,0,1.3.2,2.1.4Z"/>
  <path class="st10" d="M837.4,1163.5c-.2.6-.4,1.1-.6,1.7-1.2,0-2.4-.2-3.8-.3,1.2-2.2,3.1-1,4.5-1.4Z"/>
  <path class="st10" d="M802.6,1164.5c.5-.4.7-.8,1-.9.8-.1,1.8-.4,2.2.7,0,0-.7.5-1.2.5-.6,0-1.3-.2-2.1-.4Z"/>
  <path class="st10" d="M824.2,1162.5c-.5.4-.7.8-1,.9-.8.1-1.8.4-2.3-.7,0,0,.8-.5,1.2-.5.6,0,1.3.2,2.1.4Z"/>
  <path class="st10" d="M910.6,1173.1c-.6.4-.9.9-1.2.8-.8-.1-1.6-.4-2.4-.7.4-.2.8-.5,1.2-.6.6,0,1.3.2,2.4.4Z"/>
  <path class="st10" d="M812.8,1161.1c-1.3.4-1.9.8-2.5.8-.5,0-.9-.5-1.4-.8.4-.2.8-.5,1.2-.5.6,0,1.3.3,2.7.6Z"/>
  <path class="st10" d="M781.8,1160.9c-.4.4-.6.9-.8.9-.7,0-1.6.2-2-.2-1.1-1,.2-1,.7-1.1.6,0,1.3.2,2.1.3Z"/>
  <path class="st10" d="M800.3,1159.5c-.6.4-.9.9-1.2.8-.8-.1-1.6-.5-2.4-.7.4-.2.8-.6,1.2-.6.6,0,1.3.2,2.4.4Z"/>
  <path class="st10" d="M920.6,1175.6c-.7-.3-1.8-.2-1.2-1.1.2-.4,1.3-.4,1.9-.3.3,0,.7.5,1,.7-.6.3-1.2.5-1.7.7Z"/>
  <path class="st10" d="M786.1,1159c-.7-.3-1.8-.2-1.2-1.1.2-.4,1.3-.4,1.9-.3.3,0,.7.5,1,.7-.6.3-1.2.5-1.7.7Z"/>
  <path class="st10" d="M902.6,1175.4c.6.4,1,.7,1.5,1-.6.2-1.3.5-1.9.5-.4,0-.8-.4-1.2-.5.5-.3,1-.6,1.6-1Z"/>
  <path class="st10" d="M932.9,1175.4c.5.4,1,.8,1.4,1.1-.6.2-1.3.4-1.9.5-.4,0-.8-.4-1.2-.6.5-.3,1.1-.6,1.7-1Z"/>
  <path class="st10" d="M914.3,1178.7c-.4-.4-.8-.8-1.1-1.2.7-.1,1.3-.4,2-.3.4,0,.7.4,1.1.7-.6.3-1.2.5-2,.8Z"/>
  <path class="st10" d="M742.3,1157.5c-.7-.3-1.7-.2-1.2-1.1.2-.4,1.3-.4,1.9-.3.3,0,.7.5,1,.7-.6.2-1.2.5-1.7.7Z"/>
  <path class="st10" d="M999,1188.7c.5-.4.7-.8,1-.9.8-.1,1.8-.4,2.2.7,0,0-.7.5-1.2.5-.6,0-1.3-.2-2.1-.4Z"/>
  <path class="st10" d="M732.1,1154.9c-.5.4-.8.8-1.1.9-.8,0-1.8.4-2.1-.8,0,0,.8-.5,1.2-.5.6,0,1.3.2,2.1.4Z"/>
  <path class="st10" d="M948.3,1177.6c-.6.4-.9.9-1.2.8-.8-.1-1.6-.5-2.4-.7.4-.2.8-.6,1.2-.6.6,0,1.3.2,2.4.4Z"/>
  <path class="st10" d="M748.3,1154.5c-.7-.3-1.8-.2-1.2-1.1.2-.4,1.3-.4,1.9-.3.3,0,.7.5,1,.7-.6.3-1.2.5-1.7.7Z"/>
  <path class="st10" d="M736.2,1153c-.7-.3-1.8-.2-1.2-1.1.2-.4,1.3-.4,1.9-.3.3,0,.7.5,1,.7-.6.3-1.2.5-1.7.7Z"/>
  <path class="st10" d="M724.1,1151.4c-.7-.3-1.8-.2-1.2-1.1.2-.4,1.3-.4,1.9-.3.3,0,.7.5,1,.7-.6.3-1.2.5-1.7.7Z"/>
  <path class="st10" d="M958.4,1180.1c-.7-.3-1.8-.2-1.2-1.1.2-.4,1.3-.4,1.9-.3.3,0,.7.5,1,.7-.6.3-1.2.5-1.7.7Z"/>
  <path class="st10" d="M970.6,1179.9c.6.4,1,.7,1.5,1.1-.6.2-1.3.5-1.9.5-.4,0-.8-.4-1.2-.6.5-.3,1-.6,1.6-1Z"/>
  <path class="st10" d="M954.8,1182.3c-1.3.4-1.9.8-2.5.8-.5,0-.9-.5-1.4-.8.4-.2.8-.5,1.2-.5.6,0,1.3.3,2.7.6Z"/>
  <path class="st10" d="M984.6,1182.1c-.6.4-.9.8-1.2.9-.9.1-1.9.4-2.4-.7.4-.2.8-.6,1.2-.6.6,0,1.3.2,2.4.4Z"/>
  <path class="st10" d="M966.5,1183.6c-.6.4-.9.9-1.2.8-.8-.1-1.6-.4-2.4-.7.4-.2.8-.5,1.2-.6.6,0,1.3.2,2.4.4Z"/>
  <path class="st10" d="M996.5,1183.6c-.5.4-.8.8-1.1.9-.8,0-1.8.4-2.1-.8,0,0,.8-.5,1.2-.5.7,0,1.3.2,2.1.4Z"/>
  <path class="st10" d="M976.6,1184.5c.6.4,1,.7,1.5,1.1-.6.2-1.3.5-1.9.5-.4,0-.8-.4-1.2-.5.5-.3,1-.6,1.6-1Z"/>
  <path class="st10" d="M988.7,1186c.6.4,1,.7,1.5,1.1-.6.2-1.3.5-1.9.5-.4,0-.8-.4-1.2-.5.5-.3,1-.6,1.6-1Z"/>
  <path class="st10" d="M759,1155.9c.8-.4,1.7-.9,2.5-1.3.2.3.3.6.5.9-1,.1-2,.3-2.9.4,0,0,0,0,0,0Z"/>
  <path class="st10" d="M759,1157.4c-1.5-.1-3-.2-4.5-.4,1.2-1.4,2.9-1.1,4.5-1.1,0,0,0,0,0,0,0,.5,0,1,0,1.4Z"/>
  <path class="st10" d="M895.4,1172.6c0-.5,0-1.1-.1-1.6,1,.3,2.3-.6,2.8,1-.9.2-1.8.4-2.7.6Z"/>
  <path class="st13" d="M1068.9,979.9c-3-.2-5.2-1.8-5.5-4.9-.2-3.2,1.7-5.4,4.9-5.6,3.1-.2,5.3,1.7,5.6,4.9.2,3.2-1.6,5.1-5,5.6Z"/>
  <path class="st13" d="M1138.5,985.2c.9-3.8,2.5-7,7.1-5.8,4.9,1.2,3.8,5.1,3.2,8.6-4.5,3-7.9,1.9-10.3-2.8Z"/>
  <path class="st13" d="M1160,1031.4c3.3.5,5.4,2.1,5.3,5.4-.1,3.3-2.3,5.1-5.4,5-3.1-.1-5.1-1.9-5-5.3.1-3.4,2.2-4.8,5.1-5Z"/>
  <path class="st13" d="M1117.1,1010.1c-.2,2.5-2.1,4.1-5.4,4-3.3-.2-5.2-2.1-4.9-5.4.3-3.1,2.3-5.2,5.5-5,3,.2,5,2.1,4.8,6.4Z"/>
  <path class="st13" d="M1103.5,971.5c3-.2,5.3,1.1,7.2,3.3.6,3.8-.8,6.4-4.5,7.3-2.4.6-4.8-.5-5.3-2.9-.7-2.8-2.1-6.6,2.7-7.7Z"/>
  <path class="st13" d="M923,1013.8c-.6,3-2.2,4.9-5.6,4.8-3.3-.2-5.2-2.2-5.1-5.2.2-3.2,2.1-5.7,5.8-5.2,3.1.4,4.6,2.6,4.8,5.7Z"/>
  <path class="st13" d="M897.8,988.6c-.4,3.1-2,5.2-5.1,5.5-3.2.3-5.2-1.4-5.4-4.7-.3-3.5,1.2-5.8,5-5.8,3.4,0,4.7,2.2,5.5,5Z"/>
  <path class="st13" d="M851.1,995.6c0-3.8,1.6-5.7,4.9-5.9,3.3-.2,5.4,1.3,5.6,4.5.3,3.5-1.8,5.8-5.2,5.9-3.2.1-4.7-2.2-5.3-4.5Z"/>
  <path class="st7" d="M899.9,1026.5c-.6.4-.9.9-1.1.8-.8-.1-1.6-.4-2.4-.7.4-.2.8-.5,1.2-.5.6,0,1.3.2,2.3.4Z"/>
  <path class="st7" d="M886,1024.4c.5.4.9.7,1.4,1.1-.6.2-1.3.4-1.9.5-.4,0-.8-.4-1.2-.6.5-.3,1.1-.6,1.7-1Z"/>
  <path class="st7" d="M860,1022.5c.5-.4.7-.8,1-.9.8,0,1.8-.4,2.2.7,0,0-.7.5-1.1.5-.6,0-1.3-.2-2.1-.4Z"/>
  <path class="st7" d="M875.6,1023.5c-.5.4-.8.8-1.1.8-.8,0-1.8.4-2.1-.8,0,0,.7-.5,1.1-.5.6,0,1.3.2,2.1.4Z"/>
  <path class="st13" d="M918,903.8c1.4.5,2.8,1,4.2,1.6,1.8,3,1.8,5.9-1.8,7.4-2.4,1-4.6,0-5.8-2.3-2.1-3.8,1.3-5,3.4-6.7Z"/>
  <path class="st13" d="M880.2,934.5c1.8.7,4.2.9,4.4,3.8.2,2.5-.6,4.5-3.4,4.8-2.8.3-5.1-.8-5.1-3.9,0-2.2,1.2-4.3,4.1-4.7Z"/>
  <path class="st13" d="M851.5,956.4c2.9.4,5,2.1,5.3,4.6.2,2.2-1.6,4.3-4.1,4.3-2.3,0-4.3-1.3-4.5-4-.2-2.6,1.2-4.1,3.4-4.9Z"/>
  <path class="st13" d="M914.3,941.5c2.2.8,4.8,1.7,4.6,4.8-.2,2.3-1.4,4.4-4.2,4.2-2.8-.1-4.9-1.5-4.5-4.6.3-2,.8-4.6,4.1-4.4Z"/>
  <path class="st13" d="M1121.7,951c0,4.4-2.1,6.3-5.1,6.4-3.1,0-5.2-1.9-5.3-5.2,0-3.3,1.9-5,5.1-5.2,3.4-.1,5,1.8,5.3,3.9Z"/>
  <path class="st10" d="M961.5,856.9c6.8,6.3,17,3.8,24.1,9.1-3.3,8.8-12.1,12.1-18.2,18-2.3,2.2-5.4,3.6-5.9,7.3-7.2-4.3-14.6-8.3-22.7-10.6,1.1-3.3,2.4-6.4,6.3-7.3,1.4,2.7,3,5.6,6.7,4.1,3-1.3,3-4.2,2-7,3-4.3,3-10.3,7.7-13.6Z"/>
  <path class="st13" d="M917.5,870c-1,2.6-2.3,4.4-5,4-3.4-.5-4.4-2.8-3.8-6,.5-2.5,1.9-3.1,4.3-2.5,2.6.7,4.7,1.7,4.5,4.5Z"/>
  <path class="st13" d="M939,839.1c2,.9,4.4,1.4,4.4,4.3,0,2.9-1.5,4.6-4.6,4.5-2.3-.1-4.6-.5-4.3-3.7.2-2.7,1.7-4.5,4.5-5.1Z"/>
  <path class="st13" d="M895,891.3c-.5,2.2-1.7,4.1-4.3,3.9-2.6-.2-4.9-1.6-4.4-4.8.4-2.4,2-4,4.7-3.7,2.5.3,4.1,1.6,4.1,4.6Z"/>
  <path class="st13" d="M872.2,904.2c-.4,2.7-1.9,4.3-4.9,4.2-2.5,0-4.4-.8-4.1-3.8.2-2.2,0-5.2,2.9-4.9,2.3.2,5.6.7,6,4.5Z"/>
  <path class="st13" d="M953.8,870.5c1,2.8,1,5.7-2,7-3.6,1.6-5.3-1.3-6.7-4.1,1.9-3.9,4.5-5.9,8.7-3Z"/>
  <path class="st13" d="M814.5,959.5c-2.4-.2-4.5-1.4-4.8-3.8-.3-2.6.9-5,4.1-5,2.5,0,4.3,1.3,4.4,4,0,2.4-1,4.3-3.6,4.9Z"/>
  <path class="st13" d="M825.1,835.6c-2.4-.6-4.2-1.7-4.1-4.5.1-2.9,1.6-4.7,4.7-4.5,2.4.2,4.4,1.6,4.1,4.3-.3,2.6-1.7,4.6-4.7,4.7Z"/>
  <path class="st13" d="M869.5,822.2c2.3.6,4.4,1.7,4,4.5-.4,2.6-2,4.7-5.1,4.4-2.9-.3-3.8-2.4-3.5-4.8.3-2.5,1.7-4.1,4.6-4Z"/>
  <path class="st13" d="M790.6,867.7c2.4,1,4.9,2.2,4.3,5.3-.4,2.5-2.2,3.9-4.9,3.5-2.6-.4-4.1-1.9-3.8-4.6.3-2.5,1.7-4.1,4.4-4.2Z"/>
  <path class="st13" d="M801.5,843.2c-.4,2.8-1.6,4.7-4.3,4.5-2.7-.3-4.9-1.9-4.5-4.8.3-2.1,1.6-4.3,4.4-4.1,2.9.2,4.4,1.8,4.5,4.5Z"/>
  <path class="st13" d="M844.5,838.3c2.5.2,4.7,1.3,4.7,3.9,0,2.4-1.4,4.2-4.2,4.3-2.6,0-4.4-1.2-4.5-3.9-.1-2.7,1.4-4.1,4-4.3Z"/>
  <path class="st2" d="M771.1,733c.5.5,1,1,1.5,1.5-.5-.5-1-1-1.5-1.5Z"/>
</svg>