<svg xmlns="http://www.w3.org/2000/svg" viewBox="0 0 100 100">
  <defs>
    <linearGradient id="spargelGradient" x1="0%" y1="100%" x2="0%" y2="0%">
      <stop offset="0%" style="stop-color:#2D5016"/>
      <stop offset="100%" style="stop-color:#4A7A2A"/>
    </linearGradient>
  </defs>
  <!-- Spargel-Icon -->
  <ellipse cx="50" cy="85" rx="15" ry="8" fill="#1E3610"/>
  <path d="M50 80 Q45 60 47 40 Q48 20 50 10 Q52 20 53 40 Q55 60 50 80" fill="url(#spargelGradient)"/>
  <path d="M50 10 Q48 15 50 20 Q52 15 50 10" fill="#4A7A2A"/>
  <!-- Kleine Blätter -->
  <path d="M47 50 Q40 48 42 42 Q45 45 47 50" fill="#4A7A2A"/>
  <path d="M53 45 Q60 43 58 37 Q55 40 53 45" fill="#4A7A2A"/>
  <path d="M48 35 Q41 33 43 27 Q46 30 48 35" fill="#4A7A2A"/>
</svg>
